<?xml version="1.0" encoding="UTF-8" standalone="no"?>
<!-- Created with Inkscape (http://www.inkscape.org/) -->

<svg
   xmlns:osb="http://www.openswatchbook.org/uri/2009/osb"
   xmlns:dc="http://purl.org/dc/elements/1.1/"
   xmlns:cc="http://creativecommons.org/ns#"
   xmlns:rdf="http://www.w3.org/1999/02/22-rdf-syntax-ns#"
   xmlns:svg="http://www.w3.org/2000/svg"
   xmlns="http://www.w3.org/2000/svg"
   xmlns:sodipodi="http://sodipodi.sourceforge.net/DTD/sodipodi-0.dtd"
   xmlns:inkscape="http://www.inkscape.org/namespaces/inkscape"
   width="210mm"
   height="297mm"
   viewBox="0 0 210 297"
   version="1.1"
   id="svg853"
   inkscape:version="0.92.2 (5c3e80d, 2017-08-06)"
   sodipodi:docname="Baum_zweige.svg">
  <defs
     id="defs847">
    <linearGradient
       id="linearGradient1423"
       osb:paint="solid">
      <stop
         style="stop-color:#64b100;stop-opacity:1;"
         offset="0"
         id="stop1421" />
    </linearGradient>
  </defs>
  <sodipodi:namedview
     id="base"
     pagecolor="#ffffff"
     bordercolor="#666666"
     borderopacity="1.0"
     inkscape:pageopacity="0.0"
     inkscape:pageshadow="2"
     inkscape:zoom="0.98994949"
     inkscape:cx="224.29121"
     inkscape:cy="409.06569"
     inkscape:document-units="mm"
     inkscape:current-layer="layer1"
     showgrid="false"
     inkscape:window-width="1920"
     inkscape:window-height="1178"
     inkscape:window-x="1912"
     inkscape:window-y="-8"
     inkscape:window-maximized="1" />
  <metadata
     id="metadata850">
    <rdf:RDF>
      <cc:Work
         rdf:about="">
        <dc:format>image/svg+xml</dc:format>
        <dc:type
           rdf:resource="http://purl.org/dc/dcmitype/StillImage" />
        <dc:title />
      </cc:Work>
    </rdf:RDF>
  </metadata>
  <g
     inkscape:label="Layer 1"
     inkscape:groupmode="layer"
     id="layer1">
    <path
       style="fill:#51b319;fill-opacity:1;stroke:#a1e168;stroke-width:0.1;stroke-linecap:butt;stroke-linejoin:miter;stroke-miterlimit:4;stroke-dasharray:none;stroke-opacity:1"
       d="m 58.586308,180.20535 c -15.45447,-12.79705 -32.857948,7.48136 -30.724671,13.71623 -7.846928,3.15299 1.038965,9.37119 6.969154,7.84741 -16.75979,16.40685 13.84186,22.61335 17.481399,14.51919 4.764227,14.29002 26.470508,5.38109 26.633412,-3.47451 5.033484,8.776 15.832088,1.83004 12.619129,-11.25266 6.874723,-2.53653 3.052058,-18.37322 -4.535715,-17.67039 -1.061669,-5.36635 -5.869213,-11.17369 -13.985118,-7.18154 -8.414588,-5.88468 -14.993573,1.03648 -14.45759,3.49627 z"
       id="path1415"
       inkscape:connector-curvature="0"
       sodipodi:nodetypes="ccccccccc"
       inkscape:export-xdpi="30.146584"
       inkscape:export-ydpi="30.146584"
       inkscape:export-filename="C:\Users\Chuchu_chan\Documents\GitHub\Projekt_C\VillageDefender\Assets\Isa_Pngs\Baum_zweige_1_schatten_128.png" />
    <path
       style="fill:#000000;fill-opacity:0.25116284;stroke:#000000;stroke-width:0;stroke-linecap:butt;stroke-linejoin:miter;stroke-miterlimit:4;stroke-dasharray:none;stroke-opacity:1"
       d="m 28.442708,270.82514 c 3.02578,-4.0195 10.160586,-5.21682 13.040179,-2.07887 2.495179,-3.01469 6.999808,-2.27918 12.473213,-1.32291 5.13786,-0.99727 5.92426,-4.85318 17.103422,0.47246 2.095064,-0.79488 6.898618,0.11389 10.110865,5.0082 -0.563876,6.6767 -9.780225,6.36731 -13.796132,6.4256 1.879683,2.44812 -11.684823,3.98202 -12.000744,1.60638 -3.875222,3.40403 -21.92889,-0.83007 -20.694196,-3.96874 -2.267284,-1.66169 -5.335082,-1.74557 -6.236607,-6.14212 z"
       id="path825"
       inkscape:connector-curvature="0"
       sodipodi:nodetypes="ccccccccc"
       inkscape:export-filename="C:\Users\Chuchu_chan\Documents\GitHub\Projekt_C\VillageDefender\Assets\Isa_Pngs\Baum_zweige_1_schatten_128.png"
       inkscape:export-xdpi="30.146584"
       inkscape:export-ydpi="30.146584" />
    <path
       style="fill:#640000;stroke:#000000;stroke-width:0;stroke-linecap:butt;stroke-linejoin:miter;stroke-opacity:1;fill-opacity:1;stroke-miterlimit:4;stroke-dasharray:none"
       d="M 51.026784,274.51042 C 51.72547,262.32069 55.184606,246.5429 50.932296,235.76786 44.19997,221.52211 37.094967,212.17413 31.75,199.76562 c 3.578341,5.13321 7.948867,12.21467 10.77232,16.34748 3.149802,-11.92224 5.921627,-13.18552 9.071429,-20.03275 -2.393853,7.11856 -6.672087,16.92909 -7.181548,21.35566 2.645833,3.88228 6.142113,9.71315 8.787946,10.77232 2.452522,-7.58989 1.30722,-22.07737 2.362352,-32.69494 0.360216,7.2746 0.377179,22.94038 1.41741,21.82813 3.65377,-7.39266 7.024059,-12.12592 10.677829,-17.4814 -3.316541,6.55234 -8.104359,15.45361 -10.299853,22.67857 0.193443,2.64286 0.600121,3.50567 1.511906,5.66964 3.60447,-2.44589 8.330692,-5.41178 10.77232,-8.78794 -0.460269,-7.23717 -0.727617,-14.23319 -0.188986,-20.22173 0.893102,5.37888 2.385141,10.93218 2.36235,19.37128 3.348837,-3.83543 6.326615,-10.26826 9.449406,-15.68601 -2.834822,6.67758 -3.837077,13.35515 -8.504465,20.03273 -4.233168,2.96786 -8.881747,4.06636 -12.662202,9.07143 -2.362629,1.72004 -1.007937,28.22223 -1.511906,42.33334 z"
       id="path1398"
       inkscape:connector-curvature="0"
       sodipodi:nodetypes="cccccccccccccccccccc"
       inkscape:export-xdpi="30.146584"
       inkscape:export-ydpi="30.146584"
       inkscape:export-filename="C:\Users\Chuchu_chan\Documents\GitHub\Projekt_C\VillageDefender\Assets\Isa_Pngs\Baum_zweige_1_schatten_128.png" />
    <path
       style="fill:#56ac38;stroke:#5dcd60;stroke-width:0.265;stroke-linecap:butt;stroke-linejoin:miter;stroke-opacity:1;fill-opacity:1;stroke-miterlimit:4;stroke-dasharray:none"
       d="m 129.74032,217.625 c -5.31181,0.098 -3.71955,10.43952 -1.60639,8.40997 -3.59824,4.67669 3.54446,11.3928 9.26042,8.03199 -0.2057,5.93441 10.28341,6.87715 11.15029,1.79539 9.01717,6.89961 13.26589,0.12496 15.30804,-6.52009 0.0768,3.23046 5.06017,10.30275 10.86681,8.78794 2.61449,4.19723 9.13323,5.81854 13.04018,-0.66145 7.57922,0.79337 8.40105,-8.9628 3.96875,-16.25298 6.73533,1.3868 5.6576,-15.10496 -6.04762,-14.17411 4.64392,-7.69443 -10.48258,-13.46357 -13.70164,-4.91369 -2.47235,-12.7899 -24.84995,-5.83291 -25.04092,0.85045 -6.78414,-2.48793 -11.58877,2.1481 -10.20535,6.14211 -4.1414,-1.77274 -10.97403,4.15067 -6.99257,8.50447 z"
       id="path2867"
       inkscape:connector-curvature="0"
       sodipodi:nodetypes="ccccccccccccc"
       inkscape:export-xdpi="39.346008"
       inkscape:export-ydpi="39.346008"
       inkscape:export-filename="C:\Users\Chuchu_chan\Documents\GitHub\Projekt_C\VillageDefender\Assets\Isa_Pngs\Baum_zweige_2_schatten_128.png" />
    <path
       style="fill:#000000;fill-opacity:0.25116284;stroke:#000000;stroke-width:0;stroke-linecap:butt;stroke-linejoin:miter;stroke-miterlimit:4;stroke-dasharray:none;stroke-opacity:1"
       d="m 138.23529,273.0554 c 0.29016,-2.65169 6.0031,-5.84401 8.89194,-2.71069 2.49518,-3.01469 8.16403,-4.03054 12.47321,-1.13392 5.13786,-0.99727 5.92426,-4.85318 17.10343,0.47246 2.09506,-0.79488 2.92986,1.43681 6.14211,6.33112 -0.56387,6.6767 -4.37391,6.43609 -7.63387,9.3292 0,0 -13.68934,0.88943 -14.00526,-1.48621 -3.93953,3.48442 -23.12954,0.67073 -20.6942,-3.96874 -2.26729,-1.66169 -1.37583,-2.43667 -2.27736,-6.83322 z"
       id="path825-8"
       inkscape:connector-curvature="0"
       sodipodi:nodetypes="ccccccccc"
       inkscape:export-filename="C:\Users\Chuchu_chan\Documents\GitHub\Projekt_C\VillageDefender\Assets\Isa_Pngs\Baum_zweige_2_schatten_128.png"
       inkscape:export-xdpi="39"
       inkscape:export-ydpi="39" />
    <path
       style="fill:#560913;fill-opacity:1;stroke:#000000;stroke-width:0;stroke-linecap:butt;stroke-linejoin:miter;stroke-miterlimit:4;stroke-dasharray:none;stroke-opacity:1"
       d="m 157.04421,277.47291 c 1.44891,-9.82738 3.12178,-14.04464 2.92932,-25.5134 -4.3652,-17.79651 -10.11042,-30.96 -23.24554,-29.76562 3.13115,-1.72142 10.46378,2.21002 14.0187,3.86869 2.18402,2.45824 -0.22306,-9.54279 1.28934,-13.12911 -0.47999,4.50146 0.18283,13.63208 1.28771,15.86943 2.23636,3.51092 2.33456,1.97377 4.57092,4.3523 5.01433,-5.26306 0.84301,-13.10319 -0.47247,-20.03274 1.7149,2.90815 2.94122,9.33649 4.89076,8.72506 5.18411,-3.78768 4.11767,-6.04773 7.77145,-11.65437 -0.92185,5.26455 -5.75206,11.01272 -7.45554,15.39025 -0.68821,7.85496 4.52304,5.77656 3.89243,6.49125 5.30592,-2.26265 5.45421,-2.46191 8.76027,-7.51841 0.42055,-6.25703 -2.77183,-4.12624 -2.83482,-10.86682 0.68012,6.08822 4.5017,3.60574 5.38616,7.84301 2.6547,4.79705 0.77747,-5.9326 3.68527,-10.48884 -3.50663,5.33395 4.48527,7.45299 -2.74033,14.83555 -3.62579,3.08847 -5.87991,5.40029 -10.20536,11.52827 -4.02725,8.95972 -3.46477,25.76539 -3.96874,39.87651 z"
       id="path1398-6"
       inkscape:connector-curvature="0"
       sodipodi:nodetypes="cccccccccccccccccccc"
       inkscape:export-xdpi="39.346008"
       inkscape:export-ydpi="39.346008"
       inkscape:export-filename="C:\Users\Chuchu_chan\Documents\GitHub\Projekt_C\VillageDefender\Assets\Isa_Pngs\Baum_zweige_2_schatten_128.png" />
    <path
       style="fill:#51b319;fill-opacity:1;stroke:#a1e168;stroke-width:0.1;stroke-linecap:butt;stroke-linejoin:miter;stroke-miterlimit:4;stroke-dasharray:none;stroke-opacity:1"
       d="m 25.985863,189.18229 c -3.166625,-1.23047 -7.409508,5.12002 -3.496281,8.69345 -6.173406,1.447 -5.444517,9.43667 -1.606398,9.07143 2.077705,7.10207 17.230561,4.67504 17.103421,1.41741 4.706753,3.31965 19.846929,6.12997 16.34747,0.56696 9.63808,-2.56384 17.569173,-20.88243 -0.850446,-22.58407 1.596575,-5.81799 -9.810957,-8.98466 -11.339285,-5.48066 -5.288443,-4.97112 -18.823573,-0.28179 -16.158481,8.31548 z"
       id="path1417"
       inkscape:connector-curvature="0"
       sodipodi:nodetypes="cccccccc"
       inkscape:export-xdpi="30.146584"
       inkscape:export-ydpi="30.146584"
       inkscape:export-filename="C:\Users\Chuchu_chan\Documents\GitHub\Projekt_C\VillageDefender\Assets\Isa_Pngs\Baum_zweige_1_schatten_128.png" />
    <path
       style="fill:#51b319;fill-opacity:1;stroke:#a1e168;stroke-width:0.1;stroke-linecap:butt;stroke-linejoin:miter;stroke-miterlimit:4;stroke-dasharray:none;stroke-opacity:1"
       d="m 65.295386,195.89137 c -6.952441,-0.90293 -10.365376,8.86607 -6.236608,9.26041 -2.205366,8.89311 14.092889,8.90633 14.646579,7.08706 5.948353,2.76467 10.168998,0.62267 10.583333,-4.91369 3.306575,6.54923 18.24529,2.26547 17.95387,-3.30729 2.26352,-9.70899 -11.280542,-14.11794 -17.953871,-9.73289 2.575041,-5.05666 -15.94163,-8.19785 -18.993303,1.6064 z"
       id="path1419"
       inkscape:connector-curvature="0"
       sodipodi:nodetypes="ccccccc"
       inkscape:export-xdpi="30.146584"
       inkscape:export-ydpi="30.146584"
       inkscape:export-filename="C:\Users\Chuchu_chan\Documents\GitHub\Projekt_C\VillageDefender\Assets\Isa_Pngs\Baum_zweige_1_schatten_128.png" />
    <path
       style="fill:#56ac38;fill-opacity:1;stroke:#5dcd60;stroke-width:0.265;stroke-linecap:butt;stroke-linejoin:miter;stroke-miterlimit:4;stroke-dasharray:none;stroke-opacity:1"
       d="m 133.04761,212.99479 c -3.73896,-0.62055 -9.48923,3.71037 -5.48064,8.12649 -3.13858,3.11256 2.38479,1.56866 9.16102,1.07261 -4.72916,3.504 5.57867,9.01295 8.24766,4.3974 2.33581,3.11301 11.75223,-4.12209 7.15305,-7.80387 1.0874,1.63371 14.28873,4.47685 8.41669,-4.46972 3.92148,1.035 4.48754,-10.50359 -2.17337,-11.90625 4.33868,-5.53964 -14.29449,-11.06246 -19.18229,-2.74032 -5.05078,-1.11744 -9.82517,7.03975 -6.14212,13.32366 z"
       id="path2869"
       inkscape:connector-curvature="0"
       sodipodi:nodetypes="ccccccccc"
       inkscape:export-xdpi="39.346008"
       inkscape:export-ydpi="39.346008"
       inkscape:export-filename="C:\Users\Chuchu_chan\Documents\GitHub\Projekt_C\VillageDefender\Assets\Isa_Pngs\Baum_zweige_2_schatten_128.png" />
    <path
       style="fill:#56ac38;fill-opacity:1;stroke:#5dcd60;stroke-width:0.265;stroke-linecap:butt;stroke-linejoin:miter;stroke-miterlimit:4;stroke-dasharray:none;stroke-opacity:1"
       d="m 167.91592,200.42708 c -3.46851,-2.41809 -7.38734,2.75902 -6.23661,6.70908 -6.13773,3.51003 4.89156,14.95876 5.89499,11.16766 5.1591,7.901 8.51969,2.64481 9.50754,-1.34028 0.27886,3.66838 9.09805,8.99702 10.58334,5.19717 7.95954,0.0355 6.12174,-6.28576 2.64583,-6.23661 6.43691,-4.38715 -4.38434,-18.63793 -8.69345,-13.98511 -2.51793,-5.92284 -11.07464,-7.04415 -13.70164,-1.51191 z"
       id="path2871"
       inkscape:connector-curvature="0"
       sodipodi:nodetypes="cccccccc"
       inkscape:export-xdpi="39.346008"
       inkscape:export-ydpi="39.346008"
       inkscape:export-filename="C:\Users\Chuchu_chan\Documents\GitHub\Projekt_C\VillageDefender\Assets\Isa_Pngs\Baum_zweige_2_schatten_128.png" />
  </g>
</svg>
