<?xml version="1.0" encoding="UTF-8" standalone="no"?>
<!-- Created with Inkscape (http://www.inkscape.org/) -->

<svg
   xmlns:dc="http://purl.org/dc/elements/1.1/"
   xmlns:cc="http://creativecommons.org/ns#"
   xmlns:rdf="http://www.w3.org/1999/02/22-rdf-syntax-ns#"
   xmlns:svg="http://www.w3.org/2000/svg"
   xmlns="http://www.w3.org/2000/svg"
   xmlns:xlink="http://www.w3.org/1999/xlink"
   xmlns:sodipodi="http://sodipodi.sourceforge.net/DTD/sodipodi-0.dtd"
   xmlns:inkscape="http://www.inkscape.org/namespaces/inkscape"
   width="210mm"
   height="297mm"
   viewBox="0 0 210 297"
   version="1.1"
   id="svg8"
   inkscape:export-filename="C:\Users\Chuchu_chan\Documents\GitHub\Projekt_C\VillageDefender\Assets\Isa_Pngs\Baum_einfach_ohneSchatten_128.png"
   inkscape:export-xdpi="21"
   inkscape:export-ydpi="21"
   inkscape:version="0.92.2 (5c3e80d, 2017-08-06)"
   sodipodi:docname="Baum_einfach.svg">
  <defs
     id="defs2">
    <linearGradient
       inkscape:collect="always"
       id="linearGradient900-2-7">
      <stop
         style="stop-color:#00ac2e;stop-opacity:1;"
         offset="0"
         id="stop896" />
      <stop
         style="stop-color:#00ac2e;stop-opacity:0;"
         offset="1"
         id="stop898" />
    </linearGradient>
    <linearGradient
       id="linearGradient5259-1-9"
       inkscape:collect="always">
      <stop
         id="stop5272"
         offset="0"
         style="stop-color:#007a2e;stop-opacity:1" />
      <stop
         id="stop5274"
         offset="1"
         style="stop-color:#007a2e;stop-opacity:0.47441861" />
    </linearGradient>
    <radialGradient
       inkscape:collect="always"
       xlink:href="#linearGradient5259-1-9"
       id="radialGradient5270"
       cx="87.007614"
       cy="66.449135"
       fx="87.007614"
       fy="66.449135"
       r="54.737843"
       gradientTransform="matrix(1.792288,-1.5989427,3.0947122,3.4689287,-281.08259,42.690056)"
       gradientUnits="userSpaceOnUse" />
    <linearGradient
       inkscape:collect="always"
       xlink:href="#linearGradient5259-1-9"
       id="linearGradient869"
       x1="233.43024"
       y1="116.6441"
       x2="359.05609"
       y2="53.033947"
       gradientUnits="userSpaceOnUse" />
    <linearGradient
       inkscape:collect="always"
       xlink:href="#linearGradient900-2-7"
       id="linearGradient908"
       x1="201.33098"
       y1="49.918362"
       x2="207.06706"
       y2="61.217949"
       gradientUnits="userSpaceOnUse" />
    <linearGradient
       inkscape:collect="always"
       xlink:href="#linearGradient900-2-7"
       id="linearGradient910"
       x1="166.42554"
       y1="75.901276"
       x2="171.05251"
       y2="82.31575"
       gradientUnits="userSpaceOnUse" />
    <linearGradient
       inkscape:collect="always"
       xlink:href="#linearGradient900-2-7"
       id="linearGradient912"
       x1="154.54121"
       y1="92.662521"
       x2="160.53532"
       y2="98.609268"
       gradientUnits="userSpaceOnUse" />
  </defs>
  <sodipodi:namedview
     id="base"
     pagecolor="#ffffff"
     bordercolor="#666666"
     borderopacity="1.0"
     inkscape:pageopacity="0.0"
     inkscape:pageshadow="2"
     inkscape:zoom="0.7"
     inkscape:cx="751.66095"
     inkscape:cy="624.22095"
     inkscape:document-units="mm"
     inkscape:current-layer="layer1"
     showgrid="false"
     inkscape:window-width="1920"
     inkscape:window-height="1138"
     inkscape:window-x="-8"
     inkscape:window-y="-8"
     inkscape:window-maximized="1" />
  <metadata
     id="metadata5">
    <rdf:RDF>
      <cc:Work
         rdf:about="">
        <dc:format>image/svg+xml</dc:format>
        <dc:type
           rdf:resource="http://purl.org/dc/dcmitype/StillImage" />
        <dc:title />
      </cc:Work>
    </rdf:RDF>
  </metadata>
  <g
     inkscape:label="Layer 1"
     inkscape:groupmode="layer"
     id="layer1">
    <ellipse
       style="opacity:1;fill:#00002e;fill-opacity:0.18139535;fill-rule:nonzero;stroke:#ffb500;stroke-width:0;stroke-miterlimit:4;stroke-dasharray:none;stroke-opacity:1"
       id="path1552"
       ry="12.095239"
       rx="24.717823"
       cy="191.27736"
       cx="76.759964"
       inkscape:export-xdpi="21.061131"
       inkscape:export-ydpi="21.061131" />
    <path
       style="fill:#905f2c;fill-opacity:1;stroke:#000000;stroke-width:0;stroke-linecap:butt;stroke-linejoin:miter;stroke-miterlimit:4;stroke-dasharray:none;stroke-opacity:1"
       d="m 60.803816,135.70284 c 1.918954,1.63308 2.092229,0.97186 6.297046,5.31297 0.840117,1.53532 1.848895,1.82927 3.191024,8.31777 l 1.069078,9.35444 0.935443,12.2944 c -0.537959,4.19708 -0.975919,6.61236 -3.891273,13.37494 -0.877554,1.36755 -6.55829,6.268 -2.322744,5.60119 l 21.941811,-0.0277 c 1.03292,0.89727 -5.669791,-12.53669 -5.814503,-18.96607 l 0.242951,-7.06504 0.534537,-15.50163 c 0.789224,-3.40365 2.30456,-5.89011 5.479026,-6.28083 0,0 10.644087,-3.03977 7.750816,-4.27632 C 93.323759,136.60445 80.95024,131.9342 80.95024,131.9342 Z"
       id="path5277"
       inkscape:connector-curvature="0"
       sodipodi:nodetypes="ccccccccccccccc"
       inkscape:export-xdpi="21.061131"
       inkscape:export-ydpi="21.061131" />
    <path
       style="fill:url(#radialGradient5270);fill-opacity:1;stroke:#000000;stroke-width:0;stroke-linecap:butt;stroke-linejoin:miter;stroke-miterlimit:4;stroke-dasharray:none;stroke-opacity:1"
       d="m 26.694807,119.02856 c 5.322156,21.43908 21.845505,16.049 34.708959,17.22084 2.838046,0.14474 5.709072,1.5045 9.827379,-1.70089 7.799193,1.66086 6.431442,1.121 9.269914,-0.47132 -1.579527,3.23892 5.260871,4.28054 10.951814,2.92816 4.311137,3.99245 11.126297,2.2386 10.928887,3.42472 7.27434,-0.26681 29.25154,-1.35026 33.17805,-16.79471 2.46977,-12.25301 -3.97652,-27.851249 -18.37607,-38.435663 5.29089,-10.745843 -1.14898,-19.760859 -1.14898,-19.760859 C 110.26966,56.306798 90.842424,42.673606 73.663869,52.296775 57.761127,65.928144 57.658526,72.356942 56.089171,82.466086 49.217645,83.400438 43.765735,83.406513 35.479972,93.297694 26.60431,102.12779 26.327434,109.2255 26.694807,119.02856 Z"
       id="path5243"
       inkscape:connector-curvature="0"
       sodipodi:nodetypes="ccccccccccccc"
       inkscape:export-xdpi="21.061131"
       inkscape:export-ydpi="21.061131" />
    <ellipse
       style="opacity:1;fill:#00002e;fill-opacity:0.18139535;fill-rule:nonzero;stroke:#ffb500;stroke-width:0;stroke-miterlimit:4;stroke-dasharray:none;stroke-opacity:1"
       id="path1552-6"
       ry="12.095239"
       rx="24.717823"
       cy="188.89894"
       cx="204.42708"
       inkscape:export-xdpi="21.061131"
       inkscape:export-ydpi="21.061131"
       inkscape:export-filename="C:\Users\Chuchu_chan\Documents\GitHub\Projekt_C\VillageDefender\Assets\Isa_Pngs\Baum_einfach_2_128.png" />
    <path
       style="fill:#905f2c;fill-opacity:1;stroke:#000000;stroke-width:0;stroke-linecap:butt;stroke-linejoin:miter;stroke-miterlimit:4;stroke-dasharray:none;stroke-opacity:1"
       d="m 188.47093,133.32443 c 1.91895,1.63308 2.09223,0.97186 6.29704,5.31297 0.84012,1.53532 1.8489,1.82927 3.19103,8.31777 l 1.06908,9.35444 0.93544,12.29439 c -0.53796,4.19708 -0.97592,6.61237 -3.89127,13.37495 -0.87756,1.36755 -6.55829,6.268 -2.32275,5.60119 l 21.94181,-0.0277 c 1.03292,0.89727 -5.66979,-12.53669 -5.8145,-18.96607 l 0.24295,-7.06504 0.53454,-15.50163 c 0.78922,-3.40365 2.30456,-5.89011 5.47902,-6.28083 0,0 10.64409,-3.03977 7.75082,-4.27632 -2.89327,-1.23651 -15.26679,-5.90676 -15.26679,-5.90676 z"
       id="path5277-3"
       inkscape:connector-curvature="0"
       sodipodi:nodetypes="ccccccccccccccc"
       inkscape:export-xdpi="21.061131"
       inkscape:export-ydpi="21.061131"
       inkscape:export-filename="C:\Users\Chuchu_chan\Documents\GitHub\Projekt_C\VillageDefender\Assets\Isa_Pngs\Baum_einfach_2_128.png" />
    <path
       style="fill:url(#linearGradient869);fill-opacity:1;stroke:#000000;stroke-width:0;stroke-linecap:butt;stroke-linejoin:miter;stroke-miterlimit:4;stroke-dasharray:none;stroke-opacity:1"
       d="m 152.7583,113.17565 c -3.48324,17.04204 33.7702,31.26818 36.31258,20.69534 2.51818,1.74404 5.70373,1.53121 9.82738,-1.70089 -0.23719,2.51147 8.0625,3.20775 9.26991,-0.47132 -0.82948,3.46394 10.89968,5.97218 10.95182,2.92816 3.50569,6.1403 9.81948,5.72344 10.92888,3.42472 7.96296,9.97981 40.71418,6.82829 33.17805,-16.79471 15.51452,-10.73282 3.87703,-43.561403 -18.37607,-38.435668 10.6697,-6.654089 4.59374,-23.888442 -1.14898,-19.760856 8.05395,-9.910348 -29.63651,-31.274688 -42.37089,-13.142063 -19.97867,-6.094024 -26.89208,30.170773 -17.5747,30.169309 2.86396,-12.637461 -24.82799,-12.633666 -18.54375,8.555885 C 146.86435,84.927921 146.20338,112 152.7583,113.17565 Z"
       id="path5243-2"
       inkscape:connector-curvature="0"
       sodipodi:nodetypes="ccccccccccccc"
       inkscape:export-xdpi="21.061131"
       inkscape:export-ydpi="21.061131"
       inkscape:export-filename="C:\Users\Chuchu_chan\Documents\GitHub\Projekt_C\VillageDefender\Assets\Isa_Pngs\Baum_einfach_2_128.png" />
    <path
       style="fill:url(#linearGradient912);stroke:#000000;stroke-width:0;stroke-linecap:butt;stroke-linejoin:miter;stroke-opacity:1;fill-opacity:1;stroke-miterlimit:4;stroke-dasharray:none"
       d="m 165.21253,88.643557 c -7.33363,2.227248 -10.40403,15.833293 -10.59711,19.664163 -0.13028,-3.17509 -3.88758,-6.02571 -1.46999,-10.156251 2.93847,-6.275973 10.24864,-8.194837 12.0671,-9.507912 z"
       id="path871"
       inkscape:connector-curvature="0"
       sodipodi:nodetypes="cccc"
       inkscape:export-filename="C:\Users\Chuchu_chan\Documents\GitHub\Projekt_C\VillageDefender\Assets\Isa_Pngs\Baum_einfach_2_128.png"
       inkscape:export-xdpi="21"
       inkscape:export-ydpi="21" />
    <path
       style="fill:url(#linearGradient910);stroke:#000000;stroke-width:0;stroke-linecap:butt;stroke-linejoin:miter;stroke-opacity:1;fill-opacity:1;stroke-miterlimit:4;stroke-dasharray:none"
       d="m 167.84526,85.723436 c -0.14163,-2.544523 1.82872,-7.929098 9.75534,-10.824414 -3.06858,1.097876 -5.99273,0.462729 -9.2208,3.474503 -1.7322,2.44997 -0.35636,4.899941 -0.53454,7.349911 z"
       id="path873"
       inkscape:connector-curvature="0"
       sodipodi:nodetypes="cccc"
       inkscape:export-filename="C:\Users\Chuchu_chan\Documents\GitHub\Projekt_C\VillageDefender\Assets\Isa_Pngs\Baum_einfach_2_128.png"
       inkscape:export-xdpi="21"
       inkscape:export-ydpi="21" />
    <path
       style="fill:url(#linearGradient908);stroke:#000000;stroke-width:0;stroke-linecap:butt;stroke-linejoin:miter;stroke-opacity:1;fill-opacity:1;stroke-miterlimit:4;stroke-dasharray:none"
       d="m 185.08415,69.954534 c 2.25102,-3.685337 3.46806,-10.894454 7.61718,-13.630744 3.85667,-2.094861 6.67303,-0.548596 9.88897,-0.400904 2.62525,-2.919144 3.01848,-7.889738 8.8199,-9.220799 4.95956,-0.832314 10.6393,-0.176199 14.96709,1.202711 -14.96709,-0.267268 -29.23137,14.075578 -41.29314,22.049736 z"
       id="path875"
       inkscape:connector-curvature="0"
       sodipodi:nodetypes="cccccc"
       inkscape:export-filename="C:\Users\Chuchu_chan\Documents\GitHub\Projekt_C\VillageDefender\Assets\Isa_Pngs\Baum_einfach_2_128.png"
       inkscape:export-xdpi="21"
       inkscape:export-ydpi="21" />
    <path
       style="fill:#907120;stroke:#000000;stroke-width:0;stroke-linecap:butt;stroke-linejoin:miter;stroke-opacity:1;fill-opacity:1;stroke-miterlimit:4;stroke-dasharray:none"
       d="m 209.46108,150.94798 c 0.322,10.48325 -1.89095,21.76611 2.28541,29.5026 0,0 -5.98809,-4.32265 -5.72083,-6.19354 0.26728,-1.87089 3.43542,-23.30906 3.43542,-23.30906 z"
       id="path877"
       inkscape:connector-curvature="0"
       sodipodi:nodetypes="cccc"
       inkscape:export-filename="C:\Users\Chuchu_chan\Documents\GitHub\Projekt_C\VillageDefender\Assets\Isa_Pngs\Baum_einfach_2_128.png"
       inkscape:export-xdpi="21"
       inkscape:export-ydpi="21" />
  </g>
</svg>
