<?xml version="1.0" encoding="UTF-8" standalone="no"?>
<!-- Created with Inkscape (http://www.inkscape.org/) -->

<svg
   xmlns:dc="http://purl.org/dc/elements/1.1/"
   xmlns:cc="http://creativecommons.org/ns#"
   xmlns:rdf="http://www.w3.org/1999/02/22-rdf-syntax-ns#"
   xmlns:svg="http://www.w3.org/2000/svg"
   xmlns="http://www.w3.org/2000/svg"
   xmlns:sodipodi="http://sodipodi.sourceforge.net/DTD/sodipodi-0.dtd"
   xmlns:inkscape="http://www.inkscape.org/namespaces/inkscape"
   width="210mm"
   height="297mm"
   viewBox="0 0 210 297"
   version="1.1"
   id="svg8"
   inkscape:version="0.92.2 (5c3e80d, 2017-08-06)"
   sodipodi:docname="Eimer.svg">
  <defs
     id="defs2" />
  <sodipodi:namedview
     id="base"
     pagecolor="#ffffff"
     bordercolor="#666666"
     borderopacity="1.0"
     inkscape:pageopacity="0.0"
     inkscape:pageshadow="2"
     inkscape:zoom="0.5"
     inkscape:cx="161.16751"
     inkscape:cy="283.49211"
     inkscape:document-units="mm"
     inkscape:current-layer="layer1"
     showgrid="false"
     showguides="false"
     inkscape:window-width="1920"
     inkscape:window-height="1138"
     inkscape:window-x="-8"
     inkscape:window-y="-8"
     inkscape:window-maximized="1" />
  <metadata
     id="metadata5">
    <rdf:RDF>
      <cc:Work
         rdf:about="">
        <dc:format>image/svg+xml</dc:format>
        <dc:type
           rdf:resource="http://purl.org/dc/dcmitype/StillImage" />
        <dc:title />
      </cc:Work>
    </rdf:RDF>
  </metadata>
  <g
     inkscape:label="Layer 1"
     inkscape:groupmode="layer"
     id="layer1">
    <path
       style="fill:none;stroke:#000000;stroke-width:0.26499999;stroke-linecap:butt;stroke-linejoin:miter;stroke-miterlimit:4;stroke-dasharray:none;stroke-opacity:1"
       d="m 36.217084,68.408209 c 13.66819,6.012789 27.645365,7.555469 42.317987,0 l -6.041793,49.160981 c 2.381573,2.13594 -28.24602,8.46908 -31.829634,0.001 -1.014177,-2.39643 -4.44656,-49.162211 -4.44656,-49.162211 z"
       id="path3703"
       inkscape:connector-curvature="0"
       sodipodi:nodetypes="cccsc"
       inkscape:export-xdpi="22.461599"
       inkscape:export-ydpi="22.461599" />
    <path
       style="fill:none;stroke:#000000;stroke-width:0.26458332px;stroke-linecap:butt;stroke-linejoin:miter;stroke-opacity:1"
       d="m 36.217084,68.408209 c 5.769833,10.479101 19.353527,54.306491 42.317987,0 -9.72612,-2.025493 -20.18495,-5.203269 -42.317987,0 -2.267907,3.379377 23.248694,63.102661 42.317987,0 -25.389072,-4.699398 -30.894909,-0.84276 -42.317987,0 z"
       id="path4516"
       inkscape:connector-curvature="0"
       sodipodi:nodetypes="ccccc"
       inkscape:export-xdpi="22.461599"
       inkscape:export-ydpi="22.461599" />
    <path
       style="opacity:0.39899998;fill:#d45500;stroke-width:0.50587165;stroke-miterlimit:4;stroke-dasharray:none"
       d="m 191.53423,459.49621 c -12.24794,-0.70776 -22.7769,-3.19826 -28.79346,-6.81076 -5.75259,-3.45399 -8.02436,-6.46529 -9.09364,-12.05388 -0.76035,-3.97402 -2.65345,-20.60869 -4.25915,-37.4251 -2.53715,-26.5716 -10.16159,-119.97701 -10.11114,-123.86946 0.0112,-0.86597 0.93586,0.98916 2.45422,4.924 5.48887,14.22446 13.74534,30.21356 21.89977,42.41007 14.22972,21.28326 28.6664,34.31954 43.69208,39.45381 4.59761,1.571 5.36552,1.68245 11.73797,1.7036 5.76029,0.0192 7.40645,-0.1599 10.6066,-1.15354 23.16019,-7.19113 43.39124,-36.24957 61.4221,-88.22232 2.02385,-5.83363 3.69166,-10.37383 3.70624,-10.08932 0.0146,0.2845 -4.75615,39.3774 -10.60162,86.87311 -5.84548,47.49572 -10.69045,87.35418 -10.7666,88.57436 -0.1727,2.7669 -1.0387,3.51819 -6.4693,5.61245 -8.49675,3.2767 -24.31066,6.7142 -39.552,8.59751 -6.71125,0.82928 -26.88559,2.17544 -28.80101,1.92178 -0.27779,-0.0368 -3.45977,-0.23763 -7.07106,-0.44631 z"
       id="path4518"
       inkscape:connector-curvature="0"
       transform="scale(0.26458333)"
       inkscape:export-xdpi="22.461599"
       inkscape:export-ydpi="22.461599" />
    <path
       style="opacity:0.39899998;fill:#aa4400;stroke-width:0.50587165;stroke-miterlimit:4;stroke-dasharray:none"
       d="m 209.16379,357.75712 c -8.10713,-1.76385 -15.81801,-6.66794 -23.88645,-15.19169 -11.49377,-12.14237 -22.18511,-30.20906 -37.94008,-64.1128 -2.83996,-6.11142 -5.93591,-12.64585 -6.87988,-14.52094 -0.94398,-1.8751 -1.53314,-3.40927 -1.30924,-3.40927 0.22389,0 3.01098,1.05201 6.19353,2.33779 44.20449,17.85907 85.53574,20.40027 124.73192,7.66899 6.34677,-2.06149 16.36173,-6.0502 20.78904,-8.27976 1.95698,-0.98552 3.68683,-1.66316 3.84412,-1.50587 0.76603,0.76602 -15.27374,34.17036 -21.84211,45.48826 -8.70597,15.00118 -16.86424,26.35309 -24.96521,34.73811 -13.43286,13.90385 -26.31933,19.48857 -38.73564,16.78718 z"
       id="path4520"
       inkscape:connector-curvature="0"
       transform="scale(0.26458333)"
       inkscape:export-xdpi="22.461599"
       inkscape:export-ydpi="22.461599" />
    <path
       style="opacity:0.39899998;fill:#aa4400;stroke-width:0.50587165;stroke-miterlimit:4;stroke-dasharray:none"
       d="m 193.30199,459.43333 c -20.78287,-1.30862 -33.87728,-6.20562 -37.95227,-14.19324 -1.27515,-2.49952 -2.08917,-7.30513 -3.69783,-21.83057 -2.61303,-23.59448 -10.84616,-120.61196 -11.63701,-137.12821 -0.32552,-6.79822 -0.54274,-7.02665 4.32277,4.54569 9.31029,22.14403 22.48289,43.02236 35.80835,56.75557 9.31713,9.60222 17.12326,14.97329 27.29813,18.78269 3.51498,1.31598 4.33425,1.42023 11.36422,1.44604 8.45814,0.0311 10.98076,-0.49236 17.07384,-3.54268 5.90797,-2.95766 9.49388,-5.69556 15.75611,-12.03007 15.13275,-15.30743 27.02141,-37.86219 41.20762,-78.17768 0.65446,-1.85989 1.25167,-3.31986 1.32713,-3.2444 0.0755,0.0755 -2.70719,23.41649 -6.18369,51.86894 -3.4765,28.45244 -8.01947,65.7097 -10.09549,82.7939 -2.07602,17.08421 -4.02968,33.15348 -4.34146,35.7095 -0.6628,5.43354 -0.83795,5.65848 -6.06143,7.78419 -10.52082,4.28148 -31.49818,8.31283 -50.70294,9.74389 -14.06683,1.04821 -16.86262,1.13349 -23.48605,0.71644 z"
       id="path4522"
       inkscape:connector-curvature="0"
       transform="scale(0.26458333)"
       inkscape:export-xdpi="22.461599"
       inkscape:export-ydpi="22.461599" />
    <path
       style="opacity:0.39899998;fill:#ff9955;stroke-width:0.50587165;stroke-miterlimit:4;stroke-dasharray:none"
       d="m 207.8059,357.24735 c -1.32889,-0.36545 -4.15182,-1.48873 -6.27319,-2.49616 -13.57888,-6.44859 -27.06816,-22.98556 -41.63742,-51.04475 -5.77907,-11.13 -20.57688,-42.3948 -20.14695,-42.56645 0.19293,-0.077 3.51416,1.08909 7.38051,2.59138 18.41903,7.1568 35.32613,11.55738 52.99167,13.79267 9.56672,1.21052 30.13121,1.2131 39.25254,0.005 17.4177,-2.30706 34.25923,-7.1762 50.24435,-14.52641 2.38797,-1.09803 4.45909,-1.8791 4.60248,-1.73571 0.45899,0.45898 -3.95358,10.20417 -11.5551,25.51952 -8.53095,17.18791 -11.25153,22.04007 -18.4076,32.82996 -14.2146,21.43269 -28.26674,34.15744 -41.51036,37.5892 -3.70582,0.96028 -11.52164,0.98214 -14.94093,0.0418 z"
       id="path4524"
       inkscape:connector-curvature="0"
       transform="scale(0.26458333)"
       inkscape:export-xdpi="22.461599"
       inkscape:export-ydpi="22.461599" />
    <path
       style="opacity:1;fill:#ff9955;stroke-width:0.50587165;stroke-miterlimit:4;stroke-dasharray:none"
       d="m 207.69667,276.68166 c -16.25861,-1.288 -33.65121,-5.07523 -50.50763,-10.998 -7.18839,-2.52576 -16.94192,-6.31788 -16.74819,-6.51161 0.0586,-0.0586 3.05541,-0.4681 6.6596,-0.91 3.60418,-0.4419 13.03066,-1.80793 20.94773,-3.03562 18.73082,-2.90455 26.14044,-3.72751 38.77702,-4.30681 15.7069,-0.72006 36.71488,0.41234 56.6824,3.05535 11.24087,1.4879 30.30457,4.65365 30.30457,5.03242 0,0.44997 -8.97021,4.45656 -16.45942,7.35169 -11.70993,4.52674 -25.07361,7.86395 -38.31749,9.56874 -7.40341,0.95299 -23.83525,1.34825 -31.33859,0.75384 z"
       id="path4526"
       inkscape:connector-curvature="0"
       transform="scale(0.26458333)"
       inkscape:export-xdpi="22.461599"
       inkscape:export-ydpi="22.461599" />
    <path
       style="opacity:1;fill:#aa4400;stroke-width:0.50587165;stroke-miterlimit:4;stroke-dasharray:none"
       d="m 208.16521,357.27801 c -14.5649,-4.11868 -28.09272,-17.83656 -42.6187,-43.2175 -5.21145,-9.10585 -25.7826,-51.1749 -25.7826,-52.72671 0,-0.15449 1.87509,0.42409 4.16688,1.28574 8.724,3.27997 19.93368,7.08451 25.82451,8.76477 28.00142,7.98695 56.32708,9.36549 82.43692,4.012 11.75685,-2.41059 25.6681,-6.94706 36.31256,-11.84155 2.46491,-1.1334 4.77325,-1.99524 5.12965,-1.91519 0.92878,0.20861 -1.98272,6.82159 -11.1826,25.39936 -8.07807,16.31245 -11.9282,23.148 -18.77602,33.33503 -13.38414,19.91069 -25.92509,31.58295 -38.84748,36.15657 -3.92842,1.39039 -12.95731,1.79541 -16.66312,0.74748 z"
       id="path4528"
       inkscape:connector-curvature="0"
       transform="scale(0.26458333)"
       inkscape:export-xdpi="22.461599"
       inkscape:export-ydpi="22.461599" />
    <path
       style="opacity:1;fill:#aa4400;stroke-width:0.50587165;stroke-miterlimit:4;stroke-dasharray:none"
       d="m 205.80601,356.2737 c -13.19789,-4.65803 -27.34976,-19.63614 -40.14305,-42.48674 -5.83091,-10.4148 -25.60841,-50.92038 -25.2825,-51.78013 0.0776,-0.20466 4.91403,1.32497 10.74766,3.39918 18.38948,6.53858 31.71608,9.93494 47.47717,12.09981 9.30894,1.27863 33.2958,1.29985 41.92133,0.0371 16.81073,-2.46107 30.77974,-6.4039 46.35867,-13.085 3.27391,-1.40403 6.10173,-2.40361 6.28406,-2.22128 0.18232,0.18232 0.0317,1.1781 -0.3348,2.21284 -1.16162,3.27994 -12.37147,26.43774 -16.9552,35.0268 -14.97861,28.0671 -31.42115,47.45853 -46.4342,54.76195 -5.44414,2.64842 -8.30326,3.26243 -15.12516,3.24821 -4.06999,-0.008 -5.80026,-0.25495 -8.51398,-1.21272 z"
       id="path4530"
       inkscape:connector-curvature="0"
       transform="scale(0.26458333)"
       inkscape:export-xdpi="22.461599"
       inkscape:export-ydpi="22.461599" />
    <path
       style="opacity:1;fill:#aa4400;stroke-width:0.50587165;stroke-miterlimit:4;stroke-dasharray:none"
       d="m 191.53423,459.19448 c -0.83338,-0.0971 -3.67443,-0.41928 -6.31346,-0.71584 -14.38056,-1.61601 -25.56767,-6.32268 -28.96208,-12.18502 -2.0036,-3.46031 -2.73193,-7.32264 -4.60106,-24.39933 -2.23192,-20.39114 -9.48565,-105.00199 -10.86842,-126.77414 -0.78902,-12.42339 -0.80706,-12.87945 -0.50951,-12.87945 0.1488,0 1.49151,2.89788 2.9838,6.43973 5.77576,13.70834 14.55293,30.03718 21.65144,40.27983 7.64172,11.02644 18.14914,22.54533 25.86167,28.35115 4.59334,3.45776 10.99176,6.98491 16.53308,9.11392 2.92582,1.12411 4.36199,1.33567 9.98343,1.47065 7.79124,0.18708 11.28916,-0.32146 16.16079,-2.34952 11.34118,-4.72135 24.33854,-17.68335 34.24204,-34.1489 7.61353,-12.65825 15.68035,-30.55211 23.07142,-51.17716 1.44345,-4.02799 2.74029,-7.43725 2.88187,-7.57615 0.14158,-0.13889 0.12043,0.77025 -0.047,2.02031 -0.16744,1.25006 -1.21983,10.00051 -2.33864,19.44544 -4.57953,38.66019 -17.63689,145.67387 -18.11841,148.49242 -0.62758,3.67348 -1.61433,4.66657 -6.43917,6.48062 -12.67212,4.76446 -31.93842,8.17954 -55.97889,9.92263 -6.69668,0.48555 -15.87309,0.57582 -19.19289,0.18881 z"
       id="path4532"
       inkscape:connector-curvature="0"
       transform="scale(0.26458333)"
       inkscape:export-xdpi="22.461599"
       inkscape:export-ydpi="22.461599" />
    <path
       style="opacity:1;fill:#ffff00;stroke-width:0.50587165;stroke-miterlimit:4;stroke-dasharray:none"
       d="m 211.66552,365.80634 c -20.15443,-4.42218 -42.50641,-27.88806 -60.21328,-63.21399 -6.78719,-13.54071 -12.54541,-29.17572 -13.16877,-35.75647 -0.21051,-2.22234 -0.33112,-4.10865 -0.26803,-4.1918 0.13079,-0.17237 1.13512,1.91663 9.15168,19.03541 16.63959,35.53263 26.80918,52.07403 39.64015,64.47693 13.59892,13.14524 26.60305,16.74212 40.83991,11.29614 18.17383,-6.95197 36.66361,-29.74942 56.69908,-69.90856 3.32619,-6.667 5.8954,-11.46545 5.70935,-10.66321 -1.25825,5.42571 -9.92953,26.69858 -15.66995,38.44241 -16.66159,34.08648 -35.29873,51.43245 -55.02676,51.21453 -2.52514,-0.0279 -5.98717,-0.35702 -7.69338,-0.73139 z"
       id="path4548"
       inkscape:connector-curvature="0"
       transform="scale(0.26458333)"
       inkscape:export-xdpi="22.461599"
       inkscape:export-ydpi="22.461599" />
    <path
       style="opacity:1;fill:#ffff00;stroke-width:0.50587165;stroke-miterlimit:4;stroke-dasharray:none;stroke:#000000;stroke-opacity:1;fill-opacity:1"
       d="m 255.93145,252.64088 c -18.07431,-2.32136 -44.97005,-2.95479 -61.0631,-1.4381 -4.75507,0.44814 -8.92516,0.72162 -9.26685,0.60772 -1.10003,-0.36668 11.19084,-1.44326 21.59009,-1.89112 11.17331,-0.4812 27.29637,0.0275 40.52922,1.2786 9.67528,0.91478 18.53061,2.12605 15.53425,2.12484 -1.11117,-4.5e-4 -4.40679,-0.30732 -7.32361,-0.68194 z"
       id="path4550"
       inkscape:connector-curvature="0"
       transform="scale(0.26458333)"
       inkscape:export-xdpi="22.461599"
       inkscape:export-ydpi="22.461599" />
    <path
       style="opacity:1;fill:#ffff00;fill-opacity:1;stroke:#000000;stroke-width:0.08942632;stroke-miterlimit:4;stroke-dasharray:none;stroke-opacity:1"
       d="m 146.74733,256.8949 c 3.6732,-0.83015 12.61305,-2.56333 17.94643,-3.47932 16.25626,-2.79194 29.96311,-4.26572 45.35714,-4.87687 3.50577,-0.13918 14.7297,-0.13928 18.08036,-1.6e-4 12.24421,0.50839 22.03587,1.51933 33.92857,3.50297 2.02194,0.33725 6.81033,1.20351 8.08036,1.4618 0.93739,0.19065 0.39764,0.15534 -1.21939,-0.0798 -3.55633,-0.51707 -10.38621,-1.37611 -14.89669,-1.87364 -20.68014,-2.28115 -39.16889,-2.76903 -55.89285,-1.47492 -3.25606,0.25196 -8.76487,0.76998 -10.35715,0.97393 -7.51564,0.96266 -11.13451,1.49456 -21.29759,3.13034 -8.51713,1.37087 -12.73255,1.99726 -17.69643,2.62963 -2.85138,0.36325 -3.3535,0.38449 -2.03276,0.086 z"
       id="path4552"
       inkscape:connector-curvature="0"
       transform="scale(0.26458333)"
       inkscape:export-xdpi="22.461599"
       inkscape:export-ydpi="22.461599" />
    <path
       style="opacity:1;fill:#ffff00;fill-opacity:1;stroke:#000000;stroke-width:0.0039124;stroke-miterlimit:4;stroke-dasharray:none;stroke-opacity:1"
       d="m 215.80631,358.56954 v -0.1558 l 0.12402,-0.003 c 0.47086,-0.0101 1.03061,-0.0377 1.51856,-0.0749 2.46174,-0.18765 4.90842,-0.68089 7.40726,-1.49328 l 0.0713,-0.0232 -0.001,0.18595 -10e-4,0.18596 -0.0704,0.0222 c -2.0349,0.64281 -4.07537,1.08348 -6.09173,1.3156 -0.88703,0.10212 -1.79108,0.16614 -2.64844,0.18757 -0.087,0.002 -0.19204,0.005 -0.2334,0.006 l -0.0752,0.002 z"
       id="path4554"
       inkscape:connector-curvature="0"
       transform="scale(0.26458333)"
       inkscape:export-xdpi="22.461599"
       inkscape:export-ydpi="22.461599" />
    <path
       style="opacity:1;fill:#ffff00;fill-opacity:1;stroke:#000000;stroke-width:0.0039124;stroke-miterlimit:4;stroke-dasharray:none;stroke-opacity:1"
       d="m 215.80631,359.81003 v -0.0803 l 0.0557,-0.002 c 0.0306,-0.001 0.13916,-0.004 0.24121,-0.006 1.73944,-0.0391 3.61363,-0.25031 5.40625,-0.60928 1.11541,-0.22336 2.27263,-0.51618 3.3418,-0.84559 0.0387,-0.0119 0.0717,-0.0217 0.0733,-0.0217 0.002,0 0.003,0.0319 0.002,0.0708 l -0.001,0.0708 -0.0566,0.0172 c -0.14061,0.0428 -0.35181,0.10481 -0.5586,0.16402 -2.2626,0.64787 -4.4981,1.05903 -6.70703,1.23357 -0.55134,0.0436 -1.17373,0.0758 -1.67285,0.0866 l -0.12402,0.003 z"
       id="path4556"
       inkscape:connector-curvature="0"
       transform="scale(0.26458333)"
       inkscape:export-xdpi="22.461599"
       inkscape:export-ydpi="22.461599" />
    <path
       style="opacity:1;fill:#ffff00;fill-opacity:1;stroke:#000000;stroke-width:0.00553297;stroke-miterlimit:4;stroke-dasharray:none;stroke-opacity:1"
       d="m 224.93277,357.00321 1.7e-4,-0.18583 0.18856,-0.0625 c 1.75913,-0.58332 3.66595,-1.39121 5.48176,-2.32255 0.39208,-0.20109 0.98714,-0.51721 1.20567,-0.64049 l 0.029,-0.0164 v 0.22275 0.22276 l -0.11725,0.0629 c -2.2131,1.18787 -4.41704,2.13599 -6.64583,2.85898 l -0.14225,0.0461 z"
       id="path4558"
       inkscape:connector-curvature="0"
       transform="scale(0.26458333)"
       inkscape:export-xdpi="22.461599"
       inkscape:export-ydpi="22.461599" />
    <path
       style="opacity:1;fill:#ffff00;fill-opacity:1;stroke:#000000;stroke-width:0.00553297;stroke-miterlimit:4;stroke-dasharray:none;stroke-opacity:1"
       d="m 224.9326,358.3134 v -0.0713 l 0.076,-0.0236 c 2.20408,-0.68333 4.53814,-1.65713 6.74353,-2.81349 0.0455,-0.0238 0.0834,-0.0433 0.0842,-0.0433 8.8e-4,0 0.002,0.0469 0.002,0.10425 v 0.10425 l -0.37979,0.1908 c -0.9234,0.46388 -1.7327,0.83793 -2.61988,1.21088 -1.19294,0.50148 -2.45109,0.95981 -3.70127,1.34834 -0.10482,0.0326 -0.19369,0.0604 -0.19749,0.0618 -0.005,0.002 -0.007,-0.014 -0.007,-0.0687 z"
       id="path4560"
       inkscape:connector-curvature="0"
       transform="scale(0.26458333)"
       inkscape:export-xdpi="22.461599"
       inkscape:export-ydpi="22.461599" />
    <path
       style="opacity:1;fill:#ffff00;fill-opacity:1;stroke:#000000;stroke-width:0.01564961;stroke-miterlimit:4;stroke-dasharray:none;stroke-opacity:1"
       d="m 219.73837,366.74255 v -0.19279 l 0.54957,-0.0105 c 1.06916,-0.0204 1.96489,-0.0756 2.96606,-0.1829 5.65136,-0.60547 11.20682,-2.66953 16.6875,-6.20002 2.39805,-1.54476 4.85634,-3.44148 7.24218,-5.5878 1.86996,-1.68222 3.92642,-3.74957 5.68435,-5.71444 l 0.33128,-0.37028 0.22538,-8.2e-4 0.22538,-8.1e-4 -0.0311,0.0352 c -0.71099,0.80274 -1.39006,1.54174 -2.19985,2.39401 -0.7626,0.80259 -2.34863,2.36567 -3.24326,3.19632 -3.57441,3.31876 -7.31057,6.05725 -11.04682,8.09699 -4.56561,2.49251 -9.22306,4.00349 -13.95313,4.52672 -1.02712,0.11362 -2.45481,0.20279 -3.26172,0.20372 l -0.17578,2e-4 z"
       id="path4562"
       inkscape:connector-curvature="0"
       transform="scale(0.26458333)"
       inkscape:export-xdpi="22.461599"
       inkscape:export-ydpi="22.461599" />
    <path
       style="opacity:1;fill:#ffff00;fill-opacity:1;stroke:#000000;stroke-width:0.00553297;stroke-miterlimit:4;stroke-dasharray:none;stroke-opacity:1"
       d="m 218.90589,366.93929 c -1.71746,-0.0247 -3.48193,-0.18366 -5.24806,-0.47283 l -0.14363,-0.0235 -10e-4,-0.16478 -0.001,-0.16478 0.0208,0.003 c 0.0408,0.006 0.28387,0.0367 0.49036,0.0611 0.8556,0.10131 1.81751,0.19008 2.72347,0.25134 0.33863,0.0229 0.35978,0.0242 0.71263,0.0442 0.68948,0.0391 1.51439,0.0661 2.02602,0.0663 l 0.24169,9e-5 v 0.20164 0.20163 l -0.36598,-10e-4 c -0.20129,-6.7e-4 -0.40576,-0.002 -0.45437,-0.002 z"
       id="path4564"
       inkscape:connector-curvature="0"
       transform="scale(0.26458333)"
       inkscape:export-xdpi="22.461599"
       inkscape:export-ydpi="22.461599" />
    <path
       style="opacity:1;fill:#ffff00;fill-opacity:1;stroke:#000000;stroke-width:0.03129921;stroke-miterlimit:4;stroke-dasharray:none;stroke-opacity:1"
       d="m 199.70763,361.47736 c -8.21183,-4.46748 -16.52269,-11.70039 -24.67436,-21.474 -6.08741,-7.29862 -12.05636,-16.00639 -17.5974,-25.67187 -0.5853,-1.02097 -1.14986,-2.02528 -1.14986,-2.04553 0,-0.009 0.063,-0.017 0.13991,-0.017 0.11152,0 0.14862,0.0143 0.18287,0.0703 0.0236,0.0387 0.37075,0.64687 0.77139,1.35156 4.49251,7.90191 9.5054,15.46701 14.52619,21.92188 9.06095,11.64899 18.55628,20.36942 27.75464,25.48963 l 0.67188,0.37399 0.009,0.16194 c 0.005,0.0891 -0.002,0.16194 -0.0159,0.16194 -0.0139,0 -0.2924,-0.1453 -0.61882,-0.32288 z"
       id="path4566"
       inkscape:connector-curvature="0"
       transform="scale(0.26458333)"
       inkscape:export-xdpi="22.461599"
       inkscape:export-ydpi="22.461599" />
    <path
       style="opacity:1;fill:#ffff00;fill-opacity:1;stroke:#000000;stroke-width:0.02213188;stroke-miterlimit:4;stroke-dasharray:none;stroke-opacity:1"
       d="m 194.83313,352.83599 c -2.51516,-1.7562 -5.01375,-3.82391 -7.6538,-6.33389 -1.06055,-1.00829 -2.84222,-2.81527 -3.96741,-4.02378 -5.5163,-5.92472 -10.5993,-12.87259 -15.93178,-21.77687 -0.33083,-0.55243 -0.62106,-1.03674 -0.64497,-1.07624 l -0.0435,-0.0718 h 0.11037 0.11037 l 0.40329,0.66844 c 8.39503,13.91457 16.48806,23.851 24.75808,30.39734 0.87374,0.69163 2.16393,1.64482 2.97928,2.20107 0.15589,0.10636 0.28858,0.20678 0.29487,0.22317 0.0349,0.091 -0.0438,0.0516 -0.41484,-0.20743 z"
       id="path4568"
       inkscape:connector-curvature="0"
       transform="scale(0.26458333)"
       inkscape:export-xdpi="22.461599"
       inkscape:export-ydpi="22.461599" />
    <path
       style="opacity:1;fill:#ffff00;fill-opacity:1;stroke:#000000;stroke-width:0.01564961;stroke-miterlimit:4;stroke-dasharray:none;stroke-opacity:1"
       d="m 166.55122,319.48542 c -0.74141,-1.23007 -2.49874,-4.31486 -3.74519,-6.57421 -0.93776,-1.69983 -2.6955,-4.96387 -2.6955,-5.00543 0,-0.006 0.0369,-0.01 0.082,-0.01 l 0.082,3.9e-4 0.17024,0.32383 c 1.58376,3.01256 4.06489,7.43969 5.98054,10.6712 0.20496,0.34575 0.37266,0.63227 0.37266,0.63672 0,0.004 -0.0487,0.008 -0.1081,0.008 -0.10527,0 -0.10891,-10e-4 -0.13871,-0.0508 z"
       id="path4570"
       inkscape:connector-curvature="0"
       transform="scale(0.26458333)"
       inkscape:export-xdpi="22.461599"
       inkscape:export-ydpi="22.461599" />
    <path
       style="opacity:1;fill:#ffff00;fill-opacity:1;stroke:#000000;stroke-width:0.02213188;stroke-miterlimit:4;stroke-dasharray:none;stroke-opacity:1"
       d="m 155.78776,311.41208 c -3.06082,-5.53253 -5.89634,-11.19908 -8.49198,-16.97056 -0.18857,-0.41929 -0.35659,-0.79467 -0.37336,-0.83417 l -0.0305,-0.0718 0.14945,5.6e-4 0.14946,5.5e-4 0.2308,0.52425 c 2.36073,5.3622 5.44413,11.52942 8.67725,17.35568 0.24753,0.44607 0.45006,0.81563 0.45006,0.82123 0,0.006 -0.0654,0.0135 -0.14525,0.0176 l -0.14526,0.007 z"
       id="path4572"
       inkscape:connector-curvature="0"
       transform="scale(0.26458333)"
       inkscape:export-xdpi="22.461599"
       inkscape:export-ydpi="22.461599" />
    <path
       style="opacity:1;fill:#ffff00;fill-opacity:1;stroke:#000000;stroke-width:0.02213188;stroke-miterlimit:4;stroke-dasharray:none;stroke-opacity:1"
       d="m 159.79123,307.30755 c -1.50439,-2.86234 -2.71697,-5.22998 -4.30327,-8.40242 -0.96593,-1.93176 -2.20204,-4.43221 -2.50975,-5.0768 l -0.13976,-0.29279 h 0.0946 0.0946 l 0.34378,0.71263 c 2.01451,4.17593 4.50038,9.10822 6.53181,12.95994 l 0.35254,0.66844 h -0.0828 -0.0828 z"
       id="path4574"
       inkscape:connector-curvature="0"
       transform="scale(0.26458333)"
       inkscape:export-xdpi="22.461599"
       inkscape:export-ydpi="22.461599" />
    <path
       style="opacity:1;fill:#ffff00;fill-opacity:1;stroke:#000000;stroke-width:0.03129921;stroke-miterlimit:4;stroke-dasharray:none;stroke-opacity:1"
       d="m 146.66706,293.02022 c -3.4207,-7.83347 -5.91183,-14.52092 -7.65658,-20.55416 -0.63511,-2.19615 -0.7888,-2.82655 -0.83045,-3.40625 -0.0185,-0.25782 -0.1594,-2.15569 -0.31306,-4.2175 -0.15366,-2.06181 -0.27181,-3.75632 -0.26256,-3.76558 0.0325,-0.0325 0.11314,0.11959 1.00883,1.9032 1.79963,3.58365 3.0898,6.3097 7.55846,15.9705 2.85998,6.183 4.61878,9.93482 6.3156,13.47224 0.27711,0.57769 0.50383,1.05933 0.50383,1.07031 0,0.011 -0.0361,0.0199 -0.0803,0.0199 -0.0742,0 -0.11354,-0.0681 -0.51876,-0.89844 -1.55544,-3.18742 -3.4195,-7.11034 -6.30714,-13.27343 -5.66868,-12.09868 -7.48154,-15.89995 -7.87274,-16.50782 -0.18326,-0.28477 -0.22103,-0.26578 -0.22103,0.11115 0,0.86866 0.26057,3.94239 0.42438,5.00604 0.81228,5.27436 4.19826,15.20848 8.55572,25.10156 l 0.20302,0.46094 -0.14625,-5.3e-4 -0.14624,-5.3e-4 -0.2147,-0.49167 z"
       id="path4576"
       inkscape:connector-curvature="0"
       transform="scale(0.26458333)"
       inkscape:export-xdpi="22.461599"
       inkscape:export-ydpi="22.461599" />
    <path
       style="opacity:1;fill:#ffff00;fill-opacity:1;stroke:#000000;stroke-width:0.01564961;stroke-miterlimit:4;stroke-dasharray:none;stroke-opacity:1"
       d=""
       id="path4578"
       inkscape:connector-curvature="0"
       transform="scale(0.26458333)" />
    <path
       style="opacity:1;fill:#ffff00;fill-opacity:1;stroke:#000000;stroke-width:0.06259842;stroke-miterlimit:4;stroke-dasharray:none;stroke-opacity:1"
       d="m 253.3145,348.40705 c 0,-0.0212 0.19166,-0.25326 0.42592,-0.51562 0.73341,-0.82145 2.01528,-2.36508 3.0431,-3.66453 6.90509,-8.72993 13.59282,-20.05127 19.82605,-33.5625 3.83394,-8.31052 8.63192,-19.85319 11.39205,-27.40625 1.00921,-2.7617 2.0651,-6.03641 2.06149,-6.39349 -10e-4,-0.13582 -0.003,-0.13556 -0.12294,0.0185 -0.0669,0.0859 -0.34531,0.55 -0.61879,1.03125 -1.06667,1.87699 -1.93552,3.56616 -7.51781,14.6157 -0.10161,0.20113 -0.19802,0.35243 -0.21424,0.33621 -0.0162,-0.0162 0.83726,-1.76985 1.89661,-3.89695 3.14914,-6.32323 6.13365,-12.65039 8.86397,-18.79163 0.40938,-0.92079 0.75272,-1.64895 0.763,-1.61812 0.0445,0.13361 -3.05433,9.30041 -4.66532,13.80055 -10.42862,29.13126 -21.68696,50.75506 -33.81822,64.95436 -0.82438,0.96492 -0.99199,1.13113 -1.14062,1.13113 -0.0958,0 -0.17425,-0.0174 -0.17425,-0.0386 z"
       id="path4580"
       inkscape:connector-curvature="0"
       transform="scale(0.26458333)"
       inkscape:export-xdpi="22.461599"
       inkscape:export-ydpi="22.461599" />
    <path
       style="opacity:1;fill:#803300;fill-opacity:1;stroke:#000000;stroke-width:0.03129921;stroke-miterlimit:4;stroke-dasharray:none;stroke-opacity:1"
       d="m 231.84269,355.45684 c 3.9e-4,-0.0755 0.0316,-0.10261 0.25781,-0.22345 7.16189,-3.82643 14.35874,-10.03074 21.68069,-18.69061 3.5185,-4.16145 7.30805,-9.23722 10.8146,-14.48526 0.75376,-1.1281 2.11689,-3.20416 2.13035,-3.24453 0.005,-0.015 0.0312,-0.0222 0.0581,-0.016 0.0535,0.0124 -0.17105,0.37041 -1.46705,2.3387 -4.91589,7.46597 -9.85106,13.93013 -14.66063,19.20271 -2.00553,2.19861 -4.37622,4.57008 -6.36122,6.36334 -3.94008,3.55947 -7.83073,6.36855 -11.73949,8.476 -0.37234,0.20075 -0.68523,0.36501 -0.69531,0.36501 -0.0101,0 -0.0181,-0.0387 -0.0179,-0.0859 z"
       id="path4582"
       inkscape:connector-curvature="0"
       transform="scale(0.26458333)"
       inkscape:export-xdpi="22.461599"
       inkscape:export-ydpi="22.461599" />
    <path
       style="opacity:1;fill:#803300;fill-opacity:1;stroke:#000000;stroke-width:0.08852754;stroke-miterlimit:4;stroke-dasharray:none;stroke-opacity:1"
       d="m 212.44826,357.7791 c -2.70194,-0.10235 -4.33331,-0.43494 -6.98268,-1.42356 -9.05459,-3.37874 -17.49955,-10.31316 -26.23847,-21.54524 -5.20757,-6.69327 -11.35741,-16.32071 -15.81391,-24.75633 -2.99481,-5.66881 -8.62937,-16.88395 -13.15591,-26.18578 l -1.62542,-3.34015 v -8.07317 -8.07318 l 1.08276,0.39198 c 7.81475,2.82905 16.59672,5.69919 21.87353,7.14874 14.0208,3.85152 28.36987,6.10034 41.47882,6.50066 3.73444,0.11404 14.28728,0.0571 16.83798,-0.0909 7.30222,-0.42366 14.84873,-1.39916 21.87981,-2.8283 11.97445,-2.43394 25.22961,-6.72722 36.58908,-11.85103 3.01269,-1.3589 4.90676,-2.04774 5.25896,-1.91259 0.81539,0.31289 -2.56537,7.87991 -11.8919,26.61718 -7.55341,15.175 -10.92434,21.1865 -17.09943,30.49398 -12.8046,19.29991 -24.43798,30.86159 -36.55995,36.33465 -3.84681,1.73684 -6.97573,2.42653 -11.6116,2.55949 -0.87504,0.0251 -1.78986,0.0561 -2.03293,0.0689 -0.24307,0.0128 -1.138,-0.003 -1.98874,-0.0353 z"
       id="path4584"
       inkscape:connector-curvature="0"
       transform="scale(0.26458333)"
       inkscape:export-xdpi="22.461599"
       inkscape:export-ydpi="22.461599" />
    <path
       style="opacity:1;fill:#803300;fill-opacity:1;stroke:#000000;stroke-width:0.01564961;stroke-miterlimit:4;stroke-dasharray:none;stroke-opacity:1"
       d=""
       id="path4586"
       inkscape:connector-curvature="0"
       transform="scale(0.26458333)" />
    <path
       style="opacity:1;fill:#803300;fill-opacity:1;stroke:#000000;stroke-width:0.01564961;stroke-miterlimit:4;stroke-dasharray:none;stroke-opacity:1"
       d="m 223.60852,367.70603 c 0.0559,-0.008 0.28789,-0.0398 0.51563,-0.07 4.44787,-0.58879 8.94611,-2.08736 13.27786,-4.42347 2.11999,-1.14331 4.27912,-2.53003 6.32599,-4.06293 l 0.29916,-0.22405 h 0.12822 0.12821 l -0.10706,0.0837 c -0.0589,0.046 -0.29691,0.22414 -0.52894,0.39584 -4.56965,3.38142 -9.24346,5.80297 -14.07813,7.29401 -1.34829,0.41582 -2.43924,0.67672 -3.42671,0.81948 -0.49906,0.0722 -1.77498,0.1762 -2.3936,0.19519 -0.19473,0.006 -0.22228,0.004 -0.14063,-0.008 z"
       id="path4588"
       inkscape:connector-curvature="0"
       transform="scale(0.26458333)"
       inkscape:export-xdpi="22.461599"
       inkscape:export-ydpi="22.461599" />
    <path
       style="opacity:1;fill:#803300;fill-opacity:1;stroke:#000000;stroke-width:0.01564961;stroke-miterlimit:4;stroke-dasharray:none;stroke-opacity:1"
       d="m 226.96009,367.39344 c 2.18677,-0.45078 4.93808,-1.37782 7.47656,-2.51918 2.98914,-1.34399 5.85172,-3.01774 8.76341,-5.12398 0.20074,-0.1452 0.36833,-0.26065 0.37244,-0.25654 0.0193,0.0193 -1.44707,1.0933 -2.26866,1.66159 -1.70467,1.17912 -4.46581,2.69893 -7.2969,4.0164 -2.64698,1.2318 -4.62227,1.86765 -6.90623,2.22311 -0.37121,0.0578 -0.42506,0.0572 -0.14062,-10e-4 z"
       id="path4590"
       inkscape:connector-curvature="0"
       transform="scale(0.26458333)"
       inkscape:export-xdpi="22.461599"
       inkscape:export-ydpi="22.461599" />
    <path
       style="opacity:1;fill:#803300;fill-opacity:1;stroke:#000000;stroke-width:0.08852754;stroke-miterlimit:4;stroke-dasharray:none;stroke-opacity:1"
       d="m 192.87458,459.27197 c -1.45605,-0.10045 -8.64365,-0.92673 -10.78338,-1.23966 -4.24622,-0.62098 -8.55114,-1.62959 -12.1534,-2.84744 -4.32738,-1.463 -8.21199,-3.46411 -10.6066,-5.46387 -3.54802,-2.96297 -4.78927,-5.92154 -6.00475,-14.31256 -1.56068,-10.77399 -4.04399,-36.81736 -8.22106,-86.21685 -1.08654,-12.84987 -2.52368,-30.25218 -2.52376,-30.56027 -1e-5,-0.0365 3.53687,-0.0663 7.85973,-0.0663 h 7.85976 l 0.8581,1.43631 c 2.89011,4.83755 5.41723,8.64972 8.40667,12.68145 7.24908,9.77654 16.21819,19.32759 23.01059,24.50358 4.64052,3.5362 11.71439,7.41926 17.1912,9.43676 2.68127,0.9877 4.51136,1.21183 10.66836,1.3065 6.6425,0.10214 10.05215,-0.38787 14.25749,-2.04898 5.98947,-2.36585 12.01302,-6.61512 18.39312,-12.97532 5.046,-5.03025 9.24537,-10.20177 13.60217,-16.75102 3.10751,-4.67129 5.71095,-9.16951 8.98088,-15.5172 l 1.06742,-2.07208 h 6.78618 6.78618 l -0.0321,0.19887 c -0.0176,0.10938 -0.33165,2.70468 -0.69782,5.76734 -3.62776,30.34224 -13.67837,112.417 -14.36313,117.29134 -0.36524,2.59994 -0.77401,3.67129 -1.78464,4.67752 -0.97048,0.96624 -2.1661,1.59803 -5.04454,2.66561 -10.65691,3.95253 -26.07608,7.00331 -44.8307,8.87005 -6.84141,0.68095 -11.86024,1.05464 -16.7054,1.24383 -2.5642,0.10014 -10.48771,0.0951 -11.97662,-0.008 z"
       id="path4592"
       inkscape:connector-curvature="0"
       transform="scale(0.26458333)"
       inkscape:export-xdpi="22.461599"
       inkscape:export-ydpi="22.461599" />
    <path
       style="opacity:1;fill:#803300;fill-opacity:1;stroke:#000000;stroke-width:0.01564961;stroke-miterlimit:4;stroke-dasharray:none;stroke-opacity:1"
       d="m 215.04518,367.76365 c -1.80681,-0.0675 -3.17215,-0.26043 -4.59375,-0.64901 -0.83973,-0.22953 -2.59835,-0.799 -3.80469,-1.23202 -4.16646,-1.49556 -8.13506,-3.51531 -12.28516,-6.25232 l -0.48047,-0.31687 v -0.1032 c 0,-0.0568 0.005,-0.1 0.0117,-0.096 0.006,0.004 0.26836,0.17856 0.58203,0.38792 5.79657,3.86902 11.52458,6.4026 17.23209,7.622 1.24376,0.26573 2.69277,0.49836 3.84604,0.61748 0.1332,0.0138 0.25625,0.0272 0.27344,0.0299 0.0603,0.009 -0.45646,0.004 -0.78125,-0.008 z"
       id="path4594"
       inkscape:connector-curvature="0"
       transform="scale(0.26458333)"
       inkscape:export-xdpi="22.461599"
       inkscape:export-ydpi="22.461599" />
    <path
       style="opacity:1;fill:#803300;fill-opacity:1;stroke:#000000;stroke-width:0.01564961;stroke-miterlimit:4;stroke-dasharray:none;stroke-opacity:1"
       d="m 218.78736,367.97457 c -0.1332,-0.003 -0.66054,-0.0125 -1.17187,-0.0218 -5.23856,-0.0955 -7.14742,-0.3304 -9.52344,-1.1721 -0.76017,-0.26929 -1.76722,-0.66572 -2.67822,-1.0543 -3.5479,-1.51329 -7.58338,-3.65326 -10.97022,-5.81739 -0.26211,-0.16748 -0.49585,-0.31584 -0.51943,-0.32967 -0.0302,-0.0177 -0.0429,-0.0379 -0.043,-0.0681 -5e-5,-0.0236 0.003,-0.043 0.007,-0.043 0.004,0 0.19221,0.11838 0.41797,0.26306 4.26257,2.73173 9.23988,5.27341 13.28548,6.78428 2.73079,1.01984 4.37314,1.24421 9.96875,1.36185 1.17988,0.0248 3.84293,0.0245 4.5625,-5.8e-4 1.89227,-0.0659 3.20189,-0.17584 4.60156,-0.38642 1.04632,-0.15741 2.21057,-0.41223 3.21094,-0.70278 0.46435,-0.13487 0.42969,-0.12834 0.42969,-0.0809 0,0.0318 -0.0108,0.0419 -0.0586,0.0547 -0.0322,0.009 -0.1957,0.0556 -0.36328,0.10431 -2.25546,0.65562 -4.59672,0.98136 -7.8125,1.08695 -0.48196,0.0158 -2.86515,0.0314 -3.34375,0.0219 z"
       id="path4596"
       inkscape:connector-curvature="0"
       transform="scale(0.26458333)"
       inkscape:export-xdpi="22.461599"
       inkscape:export-ydpi="22.461599" />
    <path
       style="opacity:1;fill:#803300;fill-opacity:1;stroke:#000000;stroke-width:0.01564961;stroke-miterlimit:4;stroke-dasharray:none;stroke-opacity:1"
       d="m 213.70143,367.72301 c -0.75446,-0.0397 -1.79813,-0.14113 -2.39844,-0.23296 -1.20643,-0.18456 -2.38331,-0.5502 -4.82031,-1.49764 -2.67149,-1.0386 -4.69745,-1.98573 -7.41407,-3.46608 -1.74489,-0.95083 -3.70035,-2.11316 -4.88672,-2.90468 -0.25623,-0.17096 -0.30078,-0.20643 -0.30078,-0.23954 0,-0.0214 0.004,-0.0389 0.008,-0.0389 0.005,0 0.21029,0.13239 0.45703,0.29421 4.02824,2.64176 7.66971,4.5269 11.58925,5.9996 1.14325,0.42956 2.89389,1.01534 4.10156,1.37241 1.24186,0.36719 2.33064,0.57022 3.71094,0.69202 0.30218,0.0267 0.27627,0.0386 -0.0469,0.0215 z"
       id="path4598"
       inkscape:connector-curvature="0"
       transform="scale(0.26458333)"
       inkscape:export-xdpi="22.461599"
       inkscape:export-ydpi="22.461599" />
    <path
       style="opacity:1;fill:#803300;fill-opacity:1;stroke:#000000;stroke-width:0.01564961;stroke-miterlimit:4;stroke-dasharray:none;stroke-opacity:1"
       d=""
       id="path4600"
       inkscape:connector-curvature="0"
       transform="scale(0.26458333)" />
    <path
       style="opacity:1;fill:#803300;fill-opacity:1;stroke:#000000;stroke-width:0.01564961;stroke-miterlimit:4;stroke-dasharray:none;stroke-opacity:1"
       d="m 218.14674,367.95252 c -2.54825,-0.0563 -3.38606,-0.0845 -4.4375,-0.14914 -1.92699,-0.11857 -3.24586,-0.31979 -4.56129,-0.6959 -0.90817,-0.25967 -2.47676,-0.85109 -3.96042,-1.49324 -3.19475,-1.38274 -6.66039,-3.19654 -9.79079,-5.12417 -0.9701,-0.59737 -1.49204,-0.93608 -1.49717,-0.97158 -0.004,-0.0286 0.0475,-9.9e-4 0.30468,0.16325 4.26797,2.72535 8.94438,5.1375 12.9503,6.67993 2.8914,1.11329 4.39821,1.36033 9.13281,1.49729 1.6711,0.0483 4.72556,0.0647 5.78125,0.0309 3.25304,-0.10405 5.43836,-0.40629 7.85802,-1.0868 0.22698,-0.0638 0.41507,-0.11607 0.41796,-0.11607 0.003,0 0.005,0.01 0.005,0.0222 0,0.0272 -0.0392,0.0402 -0.56491,0.18742 -2.2463,0.62894 -4.55242,0.94381 -7.61477,1.03968 -0.67643,0.0212 -3.31759,0.0319 -4.02344,0.0163 z"
       id="path4602"
       inkscape:connector-curvature="0"
       transform="scale(0.26458333)"
       inkscape:export-xdpi="22.461599"
       inkscape:export-ydpi="22.461599" />
    <path
       style="opacity:1;fill:#803300;fill-opacity:1;stroke:#000000;stroke-width:0.01564961;stroke-miterlimit:4;stroke-dasharray:none;stroke-opacity:1"
       d=""
       id="path4604"
       inkscape:connector-curvature="0"
       transform="scale(0.26458333)" />
    <path
       style="opacity:1;fill:#803300;fill-opacity:1;stroke:#000000;stroke-width:0.01564961;stroke-miterlimit:4;stroke-dasharray:none;stroke-opacity:1"
       d="m 209.72486,367.18067 c -0.96738,-0.24781 -1.86486,-0.55717 -3.3125,-1.14183 -0.84164,-0.33991 -2.19725,-0.92543 -2.18076,-0.94192 0.004,-0.004 0.13948,0.0493 0.30105,0.11838 1.79351,0.76717 4.12773,1.63673 5.20784,1.94005 0.35157,0.0987 0.37833,0.10728 0.33594,0.10733 -0.0172,2e-5 -0.17539,-0.0369 -0.35157,-0.082 z"
       id="path4606"
       inkscape:connector-curvature="0"
       transform="scale(0.26458333)"
       inkscape:export-xdpi="22.461599"
       inkscape:export-ydpi="22.461599" />
    <path
       style="opacity:1;fill:#803300;fill-opacity:1;stroke:#000000;stroke-width:0.01564961;stroke-miterlimit:4;stroke-dasharray:none;stroke-opacity:1"
       d=""
       id="path4608"
       inkscape:connector-curvature="0"
       transform="scale(0.26458333)" />
    <path
       style="opacity:1;fill:#803300;fill-opacity:1;stroke:#000000;stroke-width:0.50078738;stroke-miterlimit:4;stroke-dasharray:none;stroke-opacity:1"
       d="m 142.41764,314.76442 c -0.70562,-8.38258 -2.23844,-31.67765 -2.0939,-31.82219 0.0816,-0.0816 1.66463,3.28824 3.5179,7.48847 3.40992,7.7282 10.65969,22.14225 13.00701,25.86065 l 1.27904,2.02614 -2.13127,0.002 c -1.1722,0.001 -4.62747,0.14612 -7.67838,0.32193 l -5.54711,0.31969 z"
       id="path4610"
       inkscape:connector-curvature="0"
       transform="scale(0.26458333)"
       inkscape:export-xdpi="22.461599"
       inkscape:export-ydpi="22.461599" />
    <path
       style="opacity:1;fill:#803300;fill-opacity:1;stroke:#000000;stroke-width:0.50078738;stroke-miterlimit:4;stroke-dasharray:none;stroke-opacity:1"
       d="m 146.9704,276.94249 c -0.70151,-1.58125 -2.52509,-5.56208 -4.05242,-8.84628 -1.52732,-3.2842 -2.68454,-6.06368 -2.5716,-6.17662 0.11294,-0.11294 2.01962,0.39886 4.23706,1.13734 l 4.03171,1.34268 v 7.70894 c 0,4.23991 -0.0831,7.70894 -0.18464,7.70894 -0.10156,0 -0.75861,-1.29375 -1.46011,-2.875 z"
       id="path4612"
       inkscape:connector-curvature="0"
       transform="scale(0.26458333)"
       inkscape:export-xdpi="22.461599"
       inkscape:export-ydpi="22.461599" />
    <path
       style="opacity:1;fill:#803300;fill-opacity:1;stroke:#000000;stroke-width:0.50078738;stroke-miterlimit:4;stroke-dasharray:none;stroke-opacity:1"
       d="m 275.11515,318.05639 c 0,-0.14361 0.87419,-1.99986 1.94265,-4.125 2.9238,-5.8154 8.48064,-19.16223 12.58545,-30.22865 2.01249,-5.42561 3.70754,-9.81311 3.76677,-9.75 0.0737,0.0785 -4.8852,41.65996 -5.27594,44.23975 -0.0382,0.25218 -13.01893,0.11648 -13.01893,-0.1361 z"
       id="path4614"
       inkscape:connector-curvature="0"
       transform="scale(0.26458333)"
       inkscape:export-xdpi="22.461599"
       inkscape:export-ydpi="22.461599" />
    <path
       style="opacity:1;fill:#aa4400;fill-opacity:1;stroke:#000000;stroke-width:0.50078738;stroke-miterlimit:4;stroke-dasharray:none;stroke-opacity:1"
       d="m 203.12865,276.06475 c -12.54705,-1.44315 -27.61354,-4.68932 -39.60002,-8.53206 -7.61844,-2.4424 -21.9877,-7.80765 -21.69485,-8.1005 0.27669,-0.27669 29.34533,-4.55663 43.03137,-6.33576 22.62735,-2.94146 43.90652,-2.86431 71.5,0.25923 12.97369,1.4686 36.75,5.21602 36.75,5.79222 0,0.36241 -7.18338,3.55438 -14.5,6.44314 -11.98893,4.7335 -25.56507,8.22895 -38.75,9.97696 -8.56815,1.13594 -28.80076,1.40953 -36.7365,0.49677 z"
       id="path4616"
       inkscape:connector-curvature="0"
       transform="scale(0.26458333)"
       inkscape:export-xdpi="22.461599"
       inkscape:export-ydpi="22.461599" />
    <path
       style="opacity:1;fill:#aa4400;fill-opacity:1;stroke:#000000;stroke-width:0.50078738;stroke-miterlimit:4;stroke-dasharray:none;stroke-opacity:1"
       d="m 205.61515,275.7904 c -15.40718,-1.12211 -37.95872,-6.70383 -57.78066,-14.30126 l -4.96934,-1.90467 2.25,-0.33794 c 35.87171,-5.38772 47.04857,-6.7576 61.41665,-7.52745 20.62166,-1.10493 47.34608,1.00141 78.08335,6.1543 3.4375,0.57627 6.42901,1.21471 6.64781,1.41875 0.39703,0.37025 -9.32294,4.6459 -16.89781,7.43305 -8.25601,3.03777 -21.18984,6.32569 -30.90294,7.85587 -9.2939,1.46414 -26.70828,2.02059 -37.84706,1.20935 z"
       id="path4618"
       inkscape:connector-curvature="0"
       transform="scale(0.26458333)"
       inkscape:export-xdpi="22.461599"
       inkscape:export-ydpi="22.461599" />
    <path
       style="opacity:1;fill:#aa4400;fill-opacity:1;stroke:#000000;stroke-width:0.06259842;stroke-miterlimit:4;stroke-dasharray:none;stroke-opacity:1"
       d="m 211.54073,276.77015 c -5.66116,-0.17647 -7.60091,-0.33183 -12.40625,-0.99364 -10.59765,-1.45956 -22.90374,-4.14697 -32.96875,-7.19973 -0.85938,-0.26065 -1.71016,-0.51674 -1.89063,-0.56908 -0.32226,-0.0935 -0.32812,-0.0995 -0.32812,-0.33489 0,-0.13184 0.007,-0.23929 0.0156,-0.23878 0.009,5e-4 0.24063,0.0716 0.51563,0.15804 2.24831,0.7064 4.85804,1.46325 7.5625,2.19321 3.00189,0.81024 9.15396,2.30483 9.29444,2.258 0.0313,-0.0104 -0.64089,-0.18476 -1.49377,-0.3874 -4.08689,-0.97101 -9.72995,-2.50499 -14.3163,-3.89167 l -1.57812,-0.47714 v -0.24617 c 0,-0.20513 0.0175,-0.23944 0.10528,-0.20578 0.0579,0.0222 0.93681,0.29065 1.95313,0.5965 14.83832,4.46547 29.24841,7.40289 40.00409,8.1546 5.95232,0.41601 14.74689,0.45357 22.46875,0.096 5.55116,-0.25708 10.75247,-0.70322 14.22616,-1.22024 9.13207,-1.35922 22.40289,-4.66252 30.74259,-7.65226 3.71303,-1.33111 8.45769,-3.24023 12.625,-5.07995 1.93477,-0.85413 4.72493,-2.23346 4.70684,-2.32685 -0.0761,-0.39275 -14.73748,-2.80433 -26.01934,-4.27979 -13.3507,-1.74603 -25.20808,-2.80159 -36.53125,-3.25207 -6.48105,-0.25784 -14.70172,-0.25772 -20.15625,3.1e-4 -11.62065,0.54971 -21.51286,1.60135 -40.58712,4.3148 -1.92136,0.27333 -3.50462,0.49696 -3.51837,0.49696 -0.0137,0 -0.0167,-0.20361 -0.007,-0.45246 l 0.0184,-0.45245 3.8125,-0.54519 c 22.35991,-3.19746 28.69696,-3.86717 41.3125,-4.36595 2.73583,-0.10817 11.57859,-0.14658 14.875,-0.0646 16.78713,0.41739 33.65433,2.09803 55.3125,5.51132 6.94311,1.09423 12.27255,2.05866 13.47735,2.4389 0.50866,0.16054 0.641,0.31947 0.47585,0.57151 -0.31612,0.48247 -6.37808,3.20464 -13.3282,5.98515 -12.19937,4.88055 -25.00139,8.30921 -38.125,10.2107 -4.31247,0.62484 -7.79957,0.89502 -15.09375,1.16946 -1.59282,0.0599 -13.7465,0.12463 -15.15625,0.0807 z m 17.17187,-0.63116 c -0.0773,-0.0149 -0.20391,-0.0149 -0.28125,0 -0.0773,0.0149 -0.0141,0.0271 0.14063,0.0271 0.15468,0 0.21796,-0.0122 0.14062,-0.0271 z m -22.1875,-0.0625 c -0.0773,-0.0149 -0.20391,-0.0149 -0.28125,0 -0.0773,0.0149 -0.0141,0.0271 0.14063,0.0271 0.15468,0 0.21796,-0.0122 0.14062,-0.0271 z m 23.53125,-6.6e-4 c -0.0945,-0.0143 -0.24922,-0.0143 -0.34375,0 -0.0945,0.0143 -0.0172,0.026 0.17188,0.026 0.18906,0 0.2664,-0.0117 0.17187,-0.026 z m -24.46875,-0.0618 c -0.0773,-0.0149 -0.20391,-0.0149 -0.28125,0 -0.0773,0.0149 -0.0141,0.0271 0.14063,0.0271 0.15468,0 0.21796,-0.0122 0.14062,-0.0271 z m 25.84375,-10e-4 c -0.12891,-0.0135 -0.33984,-0.0135 -0.46875,0 -0.12891,0.0135 -0.0234,0.0245 0.23438,0.0245 0.25781,0 0.36328,-0.011 0.23437,-0.0245 z m -26.59375,-0.0611 c -0.0773,-0.0149 -0.20391,-0.0149 -0.28125,0 -0.0773,0.0149 -0.0141,0.0271 0.14063,0.0271 0.15468,0 0.21796,-0.0122 0.14062,-0.0271 z m 27.59375,-10e-4 c -0.12891,-0.0135 -0.33984,-0.0135 -0.46875,0 -0.12891,0.0135 -0.0234,0.0245 0.23438,0.0245 0.25781,0 0.36328,-0.011 0.23437,-0.0245 z m -28.375,-0.06 c -0.0602,-0.0157 -0.15859,-0.0157 -0.21875,0 -0.0602,0.0157 -0.0109,0.0286 0.10938,0.0286 0.12031,0 0.16953,-0.0129 0.10937,-0.0286 z m 30.97272,-0.0825 c 1.73068,-0.1279 4.71086,-0.41917 4.82416,-0.47149 0.0763,-0.0352 -0.20849,-0.0124 -2.42257,0.1939 -0.9543,0.0889 -2.40273,0.21243 -3.21875,0.27445 -0.81603,0.062 -1.3483,0.11636 -1.18284,0.12074 0.16546,0.004 1.06546,-0.0485 2,-0.1176 z m -31.62897,0.0217 c -0.043,-0.0173 -0.11328,-0.0173 -0.15625,0 -0.043,0.0173 -0.008,0.0315 0.0781,0.0315 0.0859,0 0.12109,-0.0142 0.0781,-0.0315 z m 36.84375,-0.56419 c -0.0602,-0.0157 -0.15859,-0.0157 -0.21875,0 -0.0602,0.0157 -0.0109,0.0286 0.10938,0.0286 0.12031,0 0.16953,-0.0129 0.10937,-0.0286 z m 0.46875,-0.0608 c -0.043,-0.0173 -0.11328,-0.0173 -0.15625,0 -0.043,0.0173 -0.008,0.0315 0.0781,0.0315 0.0859,0 0.12109,-0.0142 0.0781,-0.0315 z m 8.02995,-1.30886 c -0.0208,-0.0208 -0.0747,-0.023 -0.11979,-0.005 -0.0499,0.02 -0.0351,0.0348 0.0378,0.0378 0.0659,0.003 0.1028,-0.012 0.082,-0.0328 z m 1,-0.1875 c -0.0208,-0.0208 -0.0747,-0.023 -0.11979,-0.005 -0.0499,0.02 -0.0351,0.0348 0.0378,0.0378 0.0659,0.003 0.1028,-0.012 0.082,-0.0328 z m 0.28255,-0.0661 c -0.043,-0.0173 -0.11328,-0.0173 -0.15625,0 -0.043,0.0173 -0.008,0.0315 0.0781,0.0315 0.0859,0 0.12109,-0.0142 0.0781,-0.0315 z m 0.3125,-0.0625 c -0.043,-0.0173 -0.11328,-0.0173 -0.15625,0 -0.043,0.0173 -0.008,0.0315 0.0781,0.0315 0.0859,0 0.12109,-0.0142 0.0781,-0.0315 z m 0.3125,-0.0625 c -0.043,-0.0173 -0.11328,-0.0173 -0.15625,0 -0.043,0.0173 -0.008,0.0315 0.0781,0.0315 0.0859,0 0.12109,-0.0142 0.0781,-0.0315 z m 0.3125,-0.0625 c -0.043,-0.0173 -0.11328,-0.0173 -0.15625,0 -0.043,0.0173 -0.008,0.0315 0.0781,0.0315 0.0859,0 0.12109,-0.0142 0.0781,-0.0315 z m 0.3125,-0.0625 c -0.043,-0.0173 -0.11328,-0.0173 -0.15625,0 -0.043,0.0173 -0.008,0.0315 0.0781,0.0315 0.0859,0 0.12109,-0.0142 0.0781,-0.0315 z m 0.64063,-0.11343 c 0.17187,-0.0442 0.25625,-0.081 0.1875,-0.0817 -0.0687,-7.8e-4 -0.26563,0.0347 -0.4375,0.0789 -0.17188,0.0442 -0.25625,0.081 -0.1875,0.0817 0.0687,7.8e-4 0.26562,-0.0347 0.4375,-0.0789 z m 1.47994,-0.31824 c 3.21546,-0.70317 9.3589,-2.24017 9.27787,-2.3212 -0.014,-0.014 -0.4433,0.0874 -0.9541,0.22516 -2.00932,0.54207 -6.01219,1.51959 -8.20996,2.00493 -0.63594,0.14043 -1.18438,0.26635 -1.21875,0.27982 -0.19508,0.0764 0.20469,0.008 1.10494,-0.18871 z m -70.09062,-0.50219 c -0.0208,-0.0208 -0.0747,-0.023 -0.11979,-0.005 -0.0499,0.02 -0.0351,0.0348 0.0378,0.0378 0.0659,0.003 0.1028,-0.012 0.082,-0.0328 z m -0.3125,-0.0625 c -0.0208,-0.0208 -0.0747,-0.023 -0.11979,-0.005 -0.0499,0.02 -0.0351,0.0348 0.0378,0.0378 0.0659,0.003 0.1028,-0.012 0.082,-0.0328 z m -0.25,-0.0625 c -0.0208,-0.0208 -0.0747,-0.023 -0.11979,-0.005 -0.0499,0.02 -0.0351,0.0348 0.0378,0.0378 0.0659,0.003 0.1028,-0.012 0.082,-0.0328 z m -0.27995,-0.0661 c -0.043,-0.0173 -0.11328,-0.0173 -0.15625,0 -0.043,0.0173 -0.008,0.0315 0.0781,0.0315 0.0859,0 0.12109,-0.0142 0.0781,-0.0315 z m -0.28255,-0.0589 c -0.0208,-0.0208 -0.0747,-0.023 -0.11979,-0.005 -0.0499,0.02 -0.0351,0.0348 0.0378,0.0378 0.0659,0.003 0.1028,-0.012 0.082,-0.0328 z m -0.35807,-0.0872 c -0.0859,-0.0275 -0.2125,-0.05 -0.28125,-0.05 -0.099,0 -0.0925,0.0104 0.0312,0.05 0.0859,0.0275 0.2125,0.05 0.28125,0.05 0.099,0 0.0925,-0.0104 -0.0312,-0.05 z m 81.21875,-1.5625 c 0.0788,-0.0339 0.0903,-0.0537 0.0312,-0.0537 -0.0516,0 -0.15,0.0242 -0.21875,0.0537 -0.0788,0.0338 -0.0904,0.0537 -0.0312,0.0537 0.0516,0 0.15,-0.0242 0.21875,-0.0537 z m 0.32682,-0.10026 c -0.0208,-0.0208 -0.0747,-0.023 -0.11979,-0.005 -0.0499,0.02 -0.0351,0.0348 0.0378,0.0378 0.0659,0.003 0.1028,-0.012 0.082,-0.0328 z m 0.36068,-0.0872 c 0.0788,-0.0339 0.0903,-0.0537 0.0312,-0.0537 -0.0516,0 -0.15,0.0242 -0.21875,0.0537 -0.0788,0.0338 -0.0904,0.0537 -0.0312,0.0537 0.0516,0 0.15,-0.0242 0.21875,-0.0537 z m 22.78125,-8.28125 c 0.0859,-0.0491 0.12812,-0.0893 0.0937,-0.0893 -0.0344,0 -0.13282,0.0402 -0.21875,0.0893 -0.0859,0.0491 -0.12813,0.0893 -0.0937,0.0893 0.0344,0 0.13281,-0.0402 0.21875,-0.0893 z m 0.5,-0.21875 c 0.12031,-0.0659 0.19062,-0.11976 0.15625,-0.11976 -0.0344,0 -0.16094,0.0539 -0.28125,0.11976 -0.12032,0.0659 -0.19063,0.11976 -0.15625,0.11976 0.0344,0 0.16093,-0.0539 0.28125,-0.11976 z m 1.4794,-0.6487 c 2.74382,-1.221 4.20221,-1.94632 4.10395,-2.0411 -0.0925,-0.0892 -3.74955,-0.85234 -3.80739,-0.7945 -0.0122,0.0122 0.32633,0.0983 0.75222,0.19132 1.5273,0.33371 1.97182,0.5062 1.97182,0.76515 0,0.25052 -0.91717,0.79765 -2.90625,1.73369 -0.72188,0.33971 -1.32422,0.62923 -1.33855,0.64339 -0.0712,0.0704 0.14029,-0.0156 1.2242,-0.49795 z m 0.12867,-2.88906 c -0.0208,-0.0208 -0.0747,-0.023 -0.11979,-0.005 -0.0499,0.02 -0.0351,0.0348 0.0378,0.0378 0.0659,0.003 0.1028,-0.012 0.082,-0.0328 z m -0.3125,-0.0625 c -0.0208,-0.0208 -0.0747,-0.023 -0.11979,-0.005 -0.0499,0.02 -0.0351,0.0348 0.0378,0.0378 0.0659,0.003 0.1028,-0.012 0.082,-0.0328 z m -25.84245,-3.9422 c -0.043,-0.0173 -0.11328,-0.0173 -0.15625,0 -0.043,0.0173 -0.008,0.0315 0.0781,0.0315 0.0859,0 0.12109,-0.0142 0.0781,-0.0315 z m -1,-0.125 c -0.043,-0.0173 -0.11328,-0.0173 -0.15625,0 -0.043,0.0173 -0.008,0.0315 0.0781,0.0315 0.0859,0 0.12109,-0.0142 0.0781,-0.0315 z m -0.5,-0.0625 c -0.043,-0.0173 -0.11328,-0.0173 -0.15625,0 -0.043,0.0173 -0.008,0.0315 0.0781,0.0315 0.0859,0 0.12109,-0.0142 0.0781,-0.0315 z m -81.5625,-0.0625 c -0.043,-0.0173 -0.11328,-0.0173 -0.15625,0 -0.043,0.0173 -0.008,0.0315 0.0781,0.0315 0.0859,0 0.12109,-0.0142 0.0781,-0.0315 z m 81.0625,0 c -0.043,-0.0173 -0.11328,-0.0173 -0.15625,0 -0.043,0.0173 -0.008,0.0315 0.0781,0.0315 0.0859,0 0.12109,-0.0142 0.0781,-0.0315 z m -80.625,-0.0625 c -0.043,-0.0173 -0.11328,-0.0173 -0.15625,0 -0.043,0.0173 -0.008,0.0315 0.0781,0.0315 0.0859,0 0.12109,-0.0142 0.0781,-0.0315 z m 80.15625,-0.002 c -0.0602,-0.0157 -0.15859,-0.0157 -0.21875,0 -0.0602,0.0157 -0.0109,0.0286 0.10938,0.0286 0.12031,0 0.16953,-0.0129 0.10937,-0.0286 z m -79.6888,-0.0572 c -0.0208,-0.0208 -0.0747,-0.023 -0.11979,-0.005 -0.0499,0.0199 -0.0351,0.0348 0.0378,0.0378 0.0659,0.003 0.1028,-0.0121 0.082,-0.0328 z m 79.1888,-0.005 c -0.0602,-0.0157 -0.15859,-0.0157 -0.21875,0 -0.0602,0.0157 -0.0109,0.0286 0.10938,0.0286 0.12031,0 0.16953,-0.0129 0.10937,-0.0286 z m -78.65506,-0.0604 c -0.0423,-0.0171 -0.12669,-0.0182 -0.1875,-0.002 -0.0608,0.0159 -0.0262,0.0299 0.0769,0.0311 0.10312,0.001 0.15287,-0.0117 0.11056,-0.0288 z m 78.15579,-0.002 c -0.0598,-0.0156 -0.17225,-0.0162 -0.25,-10e-4 -0.0777,0.0149 -0.0288,0.0277 0.10865,0.0284 0.1375,7e-4 0.2011,-0.0115 0.14135,-0.0272 z m -77.68823,-0.0626 c -0.0602,-0.0157 -0.15859,-0.0157 -0.21875,0 -0.0602,0.0157 -0.0109,0.0286 0.10938,0.0286 0.12031,0 0.16953,-0.0129 0.10937,-0.0286 z m 77.125,0 c -0.0602,-0.0157 -0.15859,-0.0157 -0.21875,0 -0.0602,0.0157 -0.0109,0.0286 0.10938,0.0286 0.12031,0 0.16953,-0.0129 0.10937,-0.0286 z m -76.62427,-0.0624 c -0.0598,-0.0156 -0.17226,-0.0162 -0.25,-10e-4 -0.0778,0.0149 -0.0289,0.0277 0.10865,0.0284 0.1375,7e-4 0.2011,-0.0115 0.14135,-0.0272 z m 76.12427,-1.4e-4 c -0.0602,-0.0157 -0.15859,-0.0157 -0.21875,0 -0.0602,0.0157 -0.0109,0.0286 0.10938,0.0286 0.12031,0 0.16953,-0.0129 0.10937,-0.0286 z m -75.06465,-0.11213 c 0.79875,-0.10986 4.22623,-0.51183 6.64278,-0.77904 4.88955,-0.54067 9.87262,-0.96155 14.84375,-1.25373 1.20312,-0.0707 2.60937,-0.15385 3.125,-0.18475 l 0.9375,-0.0562 -1.15625,0.0297 c -4.20395,0.108 -12.20841,0.72102 -17.90625,1.37136 -3.01071,0.34364 -7.57152,0.9419 -7.29903,0.95745 0.0762,0.004 0.44179,-0.0338 0.8125,-0.0848 z m 74.50215,0.0496 c -0.0602,-0.0157 -0.15859,-0.0157 -0.21875,0 -0.0602,0.0157 -0.0109,0.0286 0.10938,0.0286 0.12031,0 0.16953,-0.0129 0.10937,-0.0286 z m -0.5,-0.0625 c -0.0602,-0.0157 -0.15859,-0.0157 -0.21875,0 -0.0602,0.0157 -0.0109,0.0286 0.10938,0.0286 0.12031,0 0.16953,-0.0129 0.10937,-0.0286 z m -0.56177,-0.0624 c -0.0598,-0.0156 -0.17225,-0.0162 -0.25,-0.001 -0.0777,0.0149 -0.0288,0.0277 0.10865,0.0284 0.1375,7e-4 0.2011,-0.0115 0.14135,-0.0272 z m -0.53198,-0.0637 c -0.0773,-0.0149 -0.20391,-0.0149 -0.28125,0 -0.0773,0.0149 -0.0141,0.0271 0.14063,0.0271 0.15468,0 0.21796,-0.0122 0.14062,-0.0271 z m -0.59375,-0.0615 c -0.0602,-0.0157 -0.15859,-0.0157 -0.21875,0 -0.0602,0.0157 -0.0109,0.0286 0.10938,0.0286 0.12031,0 0.16953,-0.0129 0.10937,-0.0286 z m -0.5625,-0.0625 c -0.0602,-0.0157 -0.15859,-0.0157 -0.21875,0 -0.0602,0.0157 -0.0109,0.0286 0.10938,0.0286 0.12031,0 0.16953,-0.0129 0.10937,-0.0286 z m -0.56177,-0.0624 c -0.0598,-0.0156 -0.17225,-0.0162 -0.25,-0.001 -0.0778,0.0149 -0.0289,0.0277 0.10865,0.0284 0.1375,7e-4 0.2011,-0.0115 0.14135,-0.0272 z m -0.5625,-0.0625 c -0.0598,-0.0156 -0.17225,-0.0162 -0.25,-0.001 -0.0778,0.0149 -0.0289,0.0277 0.10865,0.0284 0.1375,7e-4 0.2011,-0.0115 0.14135,-0.0272 z m -0.62573,-0.0626 c -0.0602,-0.0157 -0.15859,-0.0157 -0.21875,0 -0.0602,0.0157 -0.0109,0.0286 0.10938,0.0286 0.12031,0 0.16953,-0.0129 0.10937,-0.0286 z m -0.56177,-0.0624 c -0.0598,-0.0156 -0.17225,-0.0162 -0.25,-0.001 -0.0778,0.0149 -0.0289,0.0277 0.10865,0.0284 0.1375,7e-4 0.2011,-0.0115 0.14135,-0.0272 z m -0.625,-0.0625 c -0.0598,-0.0156 -0.17225,-0.0162 -0.25,-0.001 -0.0778,0.0149 -0.0289,0.0277 0.10865,0.0284 0.1375,7e-4 0.2011,-0.0115 0.14135,-0.0272 z m -0.5625,-0.0625 c -0.0598,-0.0156 -0.17225,-0.0162 -0.25,-0.001 -0.0778,0.0149 -0.0289,0.0277 0.10865,0.0284 0.1375,7e-4 0.2011,-0.0115 0.14135,-0.0272 z m -0.65698,-0.0637 c -0.0773,-0.0149 -0.20391,-0.0149 -0.28125,0 -0.0773,0.0149 -0.0141,0.0271 0.14063,0.0271 0.15468,0 0.21796,-0.0122 0.14062,-0.0271 z m -0.625,-0.0625 c -0.0773,-0.0149 -0.20391,-0.0149 -0.28125,0 -0.0773,0.0149 -0.0141,0.0271 0.14063,0.0271 0.15468,0 0.21796,-0.0122 0.14062,-0.0271 z m -0.625,-0.0625 c -0.0773,-0.0149 -0.20391,-0.0149 -0.28125,0 -0.0773,0.0149 -0.0141,0.0271 0.14063,0.0271 0.15468,0 0.21796,-0.0122 0.14062,-0.0271 z m -0.62414,-0.0624 c -0.0769,-0.0148 -0.2175,-0.0152 -0.3125,-8.5e-4 -0.095,0.0144 -0.0321,0.0265 0.13977,0.027 0.17187,4.7e-4 0.2496,-0.0113 0.17273,-0.0261 z m -0.68836,-0.0626 c -0.0773,-0.0149 -0.20391,-0.0149 -0.28125,0 -0.0773,0.0149 -0.0141,0.0271 0.14063,0.0271 0.15468,0 0.21796,-0.0122 0.14062,-0.0271 z m -0.6875,-0.0625 c -0.0773,-0.0149 -0.20391,-0.0149 -0.28125,0 -0.0773,0.0149 -0.0141,0.0271 0.14063,0.0271 0.15468,0 0.21796,-0.0122 0.14062,-0.0271 z m -0.6875,-0.0625 c -0.0773,-0.0149 -0.20391,-0.0149 -0.28125,0 -0.0773,0.0149 -0.0141,0.0271 0.14063,0.0271 0.15468,0 0.21796,-0.0122 0.14062,-0.0271 z m -0.62414,-0.0624 c -0.0769,-0.0148 -0.2175,-0.0152 -0.3125,-8.5e-4 -0.095,0.0144 -0.0321,0.0265 0.13977,0.027 0.17187,4.7e-4 0.2496,-0.0113 0.17273,-0.0261 z m -0.71961,-0.0633 c -0.0945,-0.0143 -0.24922,-0.0143 -0.34375,0 -0.0945,0.0143 -0.0172,0.026 0.17188,0.026 0.18906,0 0.2664,-0.0117 0.17187,-0.026 z m -0.71789,-0.0617 c -0.0769,-0.0148 -0.2175,-0.0152 -0.3125,-8.5e-4 -0.095,0.0144 -0.0321,0.0265 0.13977,0.027 0.17187,4.7e-4 0.2496,-0.0113 0.17273,-0.0261 z m -0.78211,-0.0633 c -0.0945,-0.0143 -0.24922,-0.0143 -0.34375,0 -0.0945,0.0143 -0.0172,0.026 0.17188,0.026 0.18906,0 0.2664,-0.0117 0.17187,-0.026 z m -0.75,-0.0625 c -0.0945,-0.0143 -0.24922,-0.0143 -0.34375,0 -0.0945,0.0143 -0.0172,0.026 0.17188,0.026 0.18906,0 0.2664,-0.0117 0.17187,-0.026 z m -0.78039,-0.0617 c -0.0769,-0.0148 -0.2175,-0.0152 -0.3125,-8.5e-4 -0.095,0.0144 -0.0321,0.0265 0.13977,0.027 0.17187,4.7e-4 0.2496,-0.0113 0.17273,-0.0261 z m -0.78211,-0.0633 c -0.0945,-0.0143 -0.24922,-0.0143 -0.34375,0 -0.0945,0.0143 -0.0172,0.026 0.17188,0.026 0.18906,0 0.2664,-0.0117 0.17187,-0.026 z m -0.8125,-0.0625 c -0.0945,-0.0143 -0.24922,-0.0143 -0.34375,0 -0.0945,0.0143 -0.0172,0.026 0.17188,0.026 0.18906,0 0.2664,-0.0117 0.17187,-0.026 z m -0.875,-0.0625 c -0.0945,-0.0143 -0.24922,-0.0143 -0.34375,0 -0.0945,0.0143 -0.0172,0.026 0.17188,0.026 0.18906,0 0.2664,-0.0117 0.17187,-0.026 z m -0.81138,-0.0624 c -0.0939,-0.0143 -0.26266,-0.0146 -0.375,-6.4e-4 -0.11233,0.0139 -0.0355,0.0256 0.17076,0.0259 0.20625,3.5e-4 0.29816,-0.011 0.20424,-0.0253 z m -0.9375,-0.0625 c -0.0939,-0.0143 -0.26266,-0.0146 -0.375,-6.4e-4 -0.11233,0.0139 -0.0355,0.0256 0.17076,0.0259 0.20625,3.5e-4 0.29816,-0.011 0.20424,-0.0253 z m -0.9375,-0.0625 c -0.0939,-0.0143 -0.26266,-0.0146 -0.375,-6.4e-4 -0.11233,0.0139 -0.0355,0.0256 0.17076,0.0259 0.20625,3.5e-4 0.29816,-0.011 0.20424,-0.0253 z m -0.96987,-0.0631 c -0.11172,-0.0139 -0.29453,-0.0139 -0.40625,0 -0.11172,0.0139 -0.0203,0.0252 0.20313,0.0252 0.22343,0 0.31484,-0.0113 0.20312,-0.0252 z m -1.0625,-0.0625 c -0.11172,-0.0139 -0.29453,-0.0139 -0.40625,0 -0.11172,0.0139 -0.0203,0.0252 0.20313,0.0252 0.22343,0 0.31484,-0.0113 0.20312,-0.0252 z m -1.09375,-0.062 c -0.0945,-0.0143 -0.24922,-0.0143 -0.34375,0 -0.0945,0.0143 -0.0172,0.026 0.17188,0.026 0.18906,0 0.2664,-0.0117 0.17187,-0.026 z m -1.15625,-0.063 c -0.11172,-0.0139 -0.29453,-0.0139 -0.40625,0 -0.11172,0.0139 -0.0203,0.0252 0.20313,0.0252 0.22343,0 0.31484,-0.0113 0.20312,-0.0252 z m -1.21763,-0.0619 c -0.0939,-0.0143 -0.26266,-0.0146 -0.375,-6.4e-4 -0.11233,0.0139 -0.0355,0.0256 0.17076,0.0259 0.20625,3.5e-4 0.29816,-0.011 0.20424,-0.0253 z m -1.37612,-0.0634 c -0.12891,-0.0135 -0.33984,-0.0135 -0.46875,0 -0.12891,0.0135 -0.0234,0.0245 0.23438,0.0245 0.25781,0 0.36328,-0.011 0.23437,-0.0245 z m -1.56389,-0.0626 c -0.12968,-0.0135 -0.32655,-0.0133 -0.4375,5.1e-4 -0.11095,0.0138 -0.005,0.0249 0.23577,0.0246 0.24062,-2.8e-4 0.3314,-0.0116 0.20173,-0.0251 z m -18.90486,-0.063 c -0.18047,-0.0126 -0.47578,-0.0126 -0.65625,0 -0.18047,0.0126 -0.0328,0.0229 0.32813,0.0229 0.36093,0 0.50859,-0.0103 0.32812,-0.0229 z m 17.2204,6.5e-4 c -0.12799,-0.0134 -0.35299,-0.0136 -0.5,-4.2e-4 -0.147,0.0132 -0.0423,0.0242 0.23273,0.0244 0.275,2.3e-4 0.39527,-0.0106 0.26727,-0.024 z m -15.18705,-0.0629 c -0.16213,-0.0128 -0.44338,-0.013 -0.625,-2.9e-4 -0.18163,0.0127 -0.049,0.0232 0.29478,0.0233 0.34375,1.6e-4 0.49234,-0.0102 0.33022,-0.023 z m 12.99955,4.3e-4 c -0.128,-0.0134 -0.353,-0.0136 -0.5,-4.2e-4 -0.147,0.0132 -0.0423,0.0242 0.23273,0.0244 0.275,2.3e-4 0.39527,-0.0106 0.26727,-0.024 z m -9.71851,-0.0627 c -0.14506,-0.0131 -0.39819,-0.0133 -0.5625,-3.5e-4 -0.16432,0.0129 -0.0456,0.0236 0.26374,0.0238 0.30937,1.9e-4 0.44381,-0.0104 0.29876,-0.0235 z m 6.24811,-1e-4 c -0.14609,-0.0132 -0.38516,-0.0132 -0.53125,0 -0.14609,0.0132 -0.0266,0.0239 0.26563,0.0239 0.29218,0 0.41171,-0.0108 0.26562,-0.0239 z"
       id="path4620"
       inkscape:connector-curvature="0"
       transform="scale(0.26458333)"
       inkscape:export-xdpi="22.461599"
       inkscape:export-ydpi="22.461599" />
    <path
       style="opacity:1;fill:#aa4400;fill-opacity:1;stroke:#000000;stroke-width:0.06259842;stroke-miterlimit:4;stroke-dasharray:none;stroke-opacity:1"
       d="m 215.04073,277.2455 c -15.38136,-0.5101 -30.69587,-3.02784 -46.5625,-7.65497 -3.44894,-1.00579 -4.53125,-1.35973 -4.53125,-1.4818 0,-0.0622 0.0141,-0.11313 0.0314,-0.11313 0.0173,0 1.00868,0.29382 2.20313,0.65293 11.56098,3.47586 22.20313,5.76717 34.10922,7.3439 2.75957,0.36545 3.44715,0.43251 7.09375,0.69179 8.08948,0.57519 22.54965,0.27877 30.71875,-0.62971 10.08891,-1.12197 22.36365,-3.8771 32.85616,-7.37473 5.35899,-1.78639 12.98269,-4.82013 18.95542,-7.54303 2.62463,-1.19654 4.06683,-2.00232 3.89369,-2.17546 -0.0583,-0.0583 -1.72159,-0.45936 -2.95527,-0.71258 -5.74047,-1.17829 -21.31588,-3.57184 -30.90625,-4.74952 -7.53322,-0.92507 -14.37118,-1.58006 -22.5,-2.15524 -0.63594,-0.045 -1.00157,-0.0855 -0.8125,-0.09 0.59495,-0.0142 5.4888,0.31209 8.84375,0.58964 3.67202,0.30378 6.25807,0.56871 10.03125,1.02765 1.39218,0.16934 3.2625,0.37853 4.15625,0.46488 6.63146,0.6407 24.25188,3.33767 34.875,5.33795 l 0.625,0.11768 -2.15625,1.0642 c -17.23441,8.50585 -35.52858,14.0576 -53.59375,16.26415 -4.40502,0.53805 -7.65474,0.80528 -12.96875,1.06645 -1.7101,0.084 -9.44441,0.12404 -11.40625,0.059 z"
       id="path4622"
       inkscape:connector-curvature="0"
       transform="scale(0.26458333)"
       inkscape:export-xdpi="22.461599"
       inkscape:export-ydpi="22.461599" />
    <path
       style="fill:none;stroke:#000000;stroke-width:0.26458332px;stroke-linecap:butt;stroke-linejoin:miter;stroke-opacity:1"
       d="m 88.370832,187.72708 3.439584,59.79583 c 14.325074,9.216 28.237164,5.83578 42.068744,0 l 6.87917,-61.11874 c -7.27514,-5.37079 -41.547997,-8.23338 -52.387498,1.32291 28.276248,47.69674 48.207508,15.01047 52.387498,-1.32291 -9.19457,13.63383 -46.957172,8.38352 -52.387498,1.32291 z"
       id="path4624"
       inkscape:connector-curvature="0"
       sodipodi:nodetypes="ccccccc"
       inkscape:export-xdpi="17.627787"
       inkscape:export-ydpi="17.627787" />
    <path
       style="opacity:1;fill:#aa4400;fill-opacity:1;stroke:#000000;stroke-width:0.35411015;stroke-miterlimit:4;stroke-dasharray:none;stroke-opacity:1"
       d="m 407.48276,955.98323 c -14.52017,-1.19551 -30.05333,-5.41942 -43.58582,-11.85225 -4.57697,-2.17571 -13.80395,-7.26899 -15.46877,-8.53875 l -0.7963,-0.60733 -6.36891,-110.66009 c -3.5029,-60.86304 -6.32354,-110.89873 -6.26809,-111.19041 0.0555,-0.29168 0.72412,0.50382 1.48593,1.76777 18.78352,31.16442 39.78118,56.53441 58.70561,70.92987 11.37601,8.65352 23.75421,14.69129 35.17856,17.15923 3.23087,0.69794 4.74398,0.80293 11.66726,0.80952 6.91257,0.007 8.41823,-0.0945 11.49049,-0.77145 18.4003,-4.05433 34.74083,-15.93422 49.7692,-36.18317 9.98549,-13.45427 18.58047,-29.95114 25.03692,-48.05491 1.08934,-3.05449 1.70506,-4.39109 1.71013,-3.71231 0.004,0.58336 -5.53762,50.28105 -12.31551,110.4393 -9.17928,81.47231 -12.4466,109.45626 -12.80624,109.68285 -0.26554,0.1673 -4.06254,1.72445 -8.43776,3.46032 -26.21163,10.39948 -46.32453,15.60872 -66.99837,17.35255 -4.93056,0.4159 -16.77468,0.39934 -21.99833,-0.0308 z"
       id="path4626"
       inkscape:connector-curvature="0"
       transform="scale(0.26458333)"
       inkscape:export-xdpi="17.627787"
       inkscape:export-ydpi="17.627787" />
    <path
       style="opacity:1;fill:#d45500;fill-opacity:1;stroke:#000000;stroke-width:0.35411015;stroke-miterlimit:4;stroke-dasharray:none;stroke-opacity:1"
       d="m 438.14315,802.70276 c -11.10866,-1.08658 -20.83078,-4.39452 -31.38539,-10.67885 -20.91127,-12.45079 -42.62472,-36.07775 -64.06285,-69.70842 -2.35271,-3.69076 -4.3837,-6.98794 -4.51332,-7.32706 -0.22392,-0.58581 -0.19244,-0.58575 0.63063,10e-4 15.52694,11.07225 48.71343,19.57385 85.18879,21.82336 7.40239,0.45653 23.32569,0.45768 30.22882,0.002 17.72024,-1.16922 33.38254,-4.14072 45.6696,-8.66457 11.32982,-4.17142 23.34237,-11.75721 28.52463,-18.01299 0.74923,-0.90444 1.44112,-1.56555 1.53752,-1.46915 0.45313,0.45313 -4.09213,13.45627 -7.50623,21.47391 -12.849,30.17449 -31.76089,53.91982 -51.78529,65.02043 -10.01899,5.55407 -22.72292,8.49893 -32.52691,7.53996 z"
       id="path4628"
       inkscape:connector-curvature="0"
       transform="scale(0.26458333)"
       inkscape:export-xdpi="17.627787"
       inkscape:export-ydpi="17.627787" />
    <path
       style="opacity:1;fill:#803300;fill-opacity:1;stroke:#000000;stroke-width:0.35411015;stroke-miterlimit:4;stroke-dasharray:none;stroke-opacity:1"
       d="m 430.8953,735.70867 c -19.5731,-0.50916 -39.18118,-3.20805 -57.31322,-7.8887 -17.02077,-4.39377 -29.86433,-10.06608 -36.73198,-16.22252 -1.50472,-1.34889 -1.70971,-1.68125 -1.37758,-2.23358 0.67395,-1.1208 7.56098,-5.63168 11.98435,-7.84953 14.89662,-7.46909 33.69601,-11.88627 60.45746,-14.20533 7.00807,-0.6073 33.09355,-0.83842 41.7193,-0.36964 33.08429,1.79802 62.78933,7.66369 77.19592,15.2434 4.03863,2.12483 4.17373,2.25488 3.56459,3.43109 -0.79456,1.53423 -8.01059,8.64621 -10.93371,10.77605 -13.80453,10.05822 -33.28847,16.18757 -59.39697,18.68537 -6.29161,0.60192 -19.41936,0.88699 -29.16816,0.63339 z"
       id="path4630"
       inkscape:connector-curvature="0"
       transform="scale(0.26458333)"
       inkscape:export-xdpi="17.627787"
       inkscape:export-ydpi="17.627787" />
    <path
       style="opacity:1;fill:#803300;fill-opacity:1;stroke:#000000;stroke-width:0.35411015;stroke-miterlimit:4;stroke-dasharray:none;stroke-opacity:1"
       d="m 437.61282,802.34585 c -4.1016,-0.50897 -8.72144,-1.42586 -12.19898,-2.42113 -22.09671,-6.32403 -45.49119,-26.00147 -68.93171,-57.97946 -5.26054,-7.17653 -17.33393,-25.35893 -17.33393,-26.10472 0,-0.12236 0.85258,0.32291 1.89462,0.98949 9.04615,5.78676 25.33618,11.46615 43.53699,15.17884 45.29555,9.2396 93.9364,6.67604 122.25825,-6.44349 7.25478,-3.36063 16.47242,-9.55937 20.48893,-13.77852 1.11811,-1.17452 2.03293,-1.9175 2.03293,-1.65107 0,0.75334 -3.60057,10.87861 -6.06386,17.05234 -2.74744,6.88589 -8.87324,19.23337 -12.60009,25.39736 -14.19616,23.47963 -30.66829,39.19651 -48.15992,45.95179 -7.72609,2.98382 -18.41124,4.61663 -24.92323,3.80857 z"
       id="path4632"
       inkscape:connector-curvature="0"
       transform="scale(0.26458333)"
       inkscape:export-xdpi="17.627787"
       inkscape:export-ydpi="17.627787" />
    <path
       style="opacity:1;fill:#803300;fill-opacity:1;stroke:#000000;stroke-width:0.35411015;stroke-miterlimit:4;stroke-dasharray:none;stroke-opacity:1"
       d="m 407.03045,955.64941 c -12.35064,-1.07877 -27.30522,-4.92604 -39.12205,-10.06468 -4.50522,-1.95914 -12.50268,-6.11712 -17.34964,-9.02031 l -2.5219,-1.51054 -0.21254,-2.50724 c -0.1169,-1.37898 -2.03548,-34.40659 -4.26351,-73.39469 -7.15983,-125.28938 -8.27409,-145.0919 -8.17031,-145.20212 0.0355,-0.0377 1.96935,2.97687 4.29756,6.69894 8.09101,12.93498 17.62919,26.25026 26.12879,36.47571 21.35029,25.68551 40.79827,39.89718 62.60358,45.74775 3.44463,0.92423 3.79459,0.94862 13.6118,0.94862 10.02312,0 10.09586,-0.005 13.78859,-1.02323 23.26115,-6.41151 42.82815,-24.30414 59.62095,-54.51909 4.55495,-8.19564 7.43573,-14.60725 13.32826,-29.66405 0.38535,-0.98465 0.55899,-1.18101 0.57167,-0.64647 0.0616,2.5946 -23.85917,213.44516 -24.54607,216.36256 -0.14393,0.61131 -1.57976,1.31179 -7.51741,3.66746 -24.05001,9.54146 -41.63073,14.44191 -60.90284,16.97605 -6.63809,0.87285 -22.81996,1.24526 -29.34493,0.67533 z"
       id="path4634"
       inkscape:connector-curvature="0"
       transform="scale(0.26458333)"
       inkscape:export-xdpi="17.627787"
       inkscape:export-ydpi="17.627787" />
    <path
       style="opacity:1;fill:#d45500;fill-opacity:1;stroke:#000000;stroke-width:0.35411015;stroke-miterlimit:4;stroke-dasharray:none;stroke-opacity:1"
       d="m 424.88489,735.19401 c -0.97227,-0.0719 -4.0747,-0.29434 -6.89429,-0.49437 -26.88839,-1.90752 -55.76959,-8.77017 -71.28595,-16.93874 -5.8915,-3.10157 -11.32187,-7.19288 -10.90061,-8.21267 0.5035,-1.21891 7.69039,-5.72599 13.77398,-8.63801 13.05668,-6.24981 29.65851,-10.3077 51.97235,-12.7033 12.80966,-1.37523 43.45915,-1.57398 57.45243,-0.37255 24.57284,2.10977 46.11101,6.12939 59.75052,11.15111 3.72551,1.37163 9.7863,4.25615 10.93347,5.20357 l 0.8572,0.70793 -0.73133,1.02705 c -1.85407,2.60381 -9.82444,9.82815 -13.4609,12.20097 -10.9895,7.17073 -24.95207,12.00535 -43.22829,14.96804 -10.75751,1.74387 -14.77514,2.0189 -31.09124,2.12842 -8.45876,0.0568 -16.17506,0.0444 -17.14734,-0.0275 z"
       id="path4636"
       inkscape:connector-curvature="0"
       transform="scale(0.26458333)"
       inkscape:export-xdpi="17.627787"
       inkscape:export-ydpi="17.627787" />
    <path
       style="fill:none;stroke:#000000;stroke-width:0.26458332px;stroke-linecap:butt;stroke-linejoin:miter;stroke-opacity:1"
       d="m 94.573322,196.81402 6.173928,7.10936"
       id="path4638"
       inkscape:connector-curvature="0"
       inkscape:export-xdpi="17.627787"
       inkscape:export-ydpi="17.627787" />
    <path
       style="fill:none;stroke:#000000;stroke-width:0.26458332px;stroke-linecap:butt;stroke-linejoin:miter;stroke-opacity:1"
       d="m 88.37083,187.72708 c 17.88567,29.25955 40.63227,38.16595 52.3875,-1.32291 4.78817,26.02869 -42.193744,48.95152 -52.3875,1.32291 z"
       id="path4644"
       inkscape:connector-curvature="0"
       sodipodi:nodetypes="ccc"
       inkscape:export-xdpi="17.627787"
       inkscape:export-ydpi="17.627787" />
    <path
       style="opacity:1;fill:#552200;fill-opacity:1;stroke:#000000;stroke-width:0.25039369;stroke-miterlimit:4;stroke-dasharray:none;stroke-opacity:1"
       d="m 455.63324,803.12301 c 17.72377,-5.06886 32.59356,-15.81981 46.07664,-33.31368 4.17354,-5.41504 3.29649,-3.58804 -1.34212,2.79577 -6.89701,9.49192 -15.69339,18.01157 -23.73452,22.98786 -6.76714,4.18788 -15.45189,7.39799 -21.625,7.99317 l -1.5,0.14462 z"
       id="path4646"
       inkscape:connector-curvature="0"
       transform="scale(0.26458333)"
       inkscape:export-xdpi="17.627787"
       inkscape:export-ydpi="17.627787" />
    <path
       style="opacity:1;fill:#552200;fill-opacity:1;stroke:#000000;stroke-width:0.25039369;stroke-miterlimit:4;stroke-dasharray:none;stroke-opacity:1"
       d="m 426.00824,813.32592 c -12.14227,-1.24416 -20.4117,-3.4751 -29.64887,-7.9987 -27.19348,-13.31712 -46.89917,-40.93357 -58.31274,-81.72212 -1.06685,-3.81259 -1.94027,-7.41937 -1.8571,-7.66888 0.0436,-0.13075 1.19821,1.54125 2.56584,3.71557 20.70493,32.91775 41.80131,57.10484 61.2531,70.22694 7.81486,5.27188 15.14024,8.95113 23.12477,11.61466 4.9653,1.65635 7.27622,2.23001 9.625,2.38926 1.1,0.0746 3.35,0.36522 5,0.64585 4.2545,0.72361 12.40991,0.89529 16.56582,0.34873 20.87371,-2.74516 39.01039,-17.02693 54.29377,-42.75374 5.6905,-9.57894 12.74191,-24.27688 18.29947,-38.14339 1.08845,-2.71577 1.95653,-4.58129 1.95989,-4.21187 0.003,0.36472 -0.78014,7.83287 -1.74103,16.59588 l -1.74708,15.93276 -1.83993,3.66677 c -13.07063,26.04825 -38.54361,46.58893 -67.41591,54.36223 -3.21164,0.86467 -9.19541,2.03314 -13,2.53856 -2.98075,0.39597 -14.68596,0.71141 -17.125,0.46149 z"
       id="path4648"
       inkscape:connector-curvature="0"
       transform="scale(0.26458333)"
       inkscape:export-xdpi="17.627787"
       inkscape:export-ydpi="17.627787" />
    <path
       style="opacity:1;fill:#552200;fill-opacity:1;stroke:#000000;stroke-width:0.25039369;stroke-miterlimit:4;stroke-dasharray:none;stroke-opacity:1"
       d="m 528.22762,743.8551 c 0.0473,-0.55 0.91546,-8.39494 1.92935,-17.4332 1.24464,-11.09541 1.91283,-16.25188 2.05713,-15.875 0.37294,0.97406 0.5024,10.59401 0.19221,14.28224 -0.51972,6.17951 -1.79774,12.64752 -3.51236,17.77596 -0.57314,1.71428 -0.73179,2.0119 -0.66633,1.25 z"
       id="path4654"
       inkscape:connector-curvature="0"
       transform="scale(0.26458333)"
       inkscape:export-xdpi="17.627787"
       inkscape:export-ydpi="17.627787" />
    <path
       style="fill:none;stroke:#000000;stroke-width:0.26458332px;stroke-linecap:butt;stroke-linejoin:miter;stroke-opacity:1"
       d="m 125.41957,211.05614 c 0.14031,0.0234 0.14031,-0.0234 0.14031,-0.0234"
       id="path4686"
       inkscape:connector-curvature="0"
       inkscape:export-xdpi="17.627787"
       inkscape:export-ydpi="17.627787" />
    <path
       style="fill:none;stroke:#000000;stroke-width:0.26458332px;stroke-linecap:butt;stroke-linejoin:miter;stroke-opacity:1"
       d="m 125.55988,211.03274 -0.70158,0.46774"
       id="path4688"
       inkscape:connector-curvature="0"
       inkscape:export-xdpi="17.627787"
       inkscape:export-ydpi="17.627787" />
  </g>
</svg>
