<?xml version="1.0" encoding="UTF-8" standalone="no"?>
<!-- Created with Inkscape (http://www.inkscape.org/) -->

<svg
   xmlns:dc="http://purl.org/dc/elements/1.1/"
   xmlns:cc="http://creativecommons.org/ns#"
   xmlns:rdf="http://www.w3.org/1999/02/22-rdf-syntax-ns#"
   xmlns:svg="http://www.w3.org/2000/svg"
   xmlns="http://www.w3.org/2000/svg"
   xmlns:sodipodi="http://sodipodi.sourceforge.net/DTD/sodipodi-0.dtd"
   xmlns:inkscape="http://www.inkscape.org/namespaces/inkscape"
   width="210mm"
   height="297mm"
   viewBox="0 0 210 297"
   version="1.1"
   id="svg8"
   inkscape:version="0.92.2 (5c3e80d, 2017-08-06)"
   sodipodi:docname="Enemy1.svg"
   inkscape:export-filename="C:\Users\Tobi_\Desktop\Enemy1.png"
   inkscape:export-xdpi="40.291687"
   inkscape:export-ydpi="40.291687">
  <defs
     id="defs2" />
  <sodipodi:namedview
     id="base"
     pagecolor="#ffffff"
     bordercolor="#666666"
     borderopacity="1.0"
     inkscape:pageopacity="0.0"
     inkscape:pageshadow="2"
     inkscape:zoom="0.49497475"
     inkscape:cx="-444.2356"
     inkscape:cy="747.5625"
     inkscape:document-units="mm"
     inkscape:current-layer="layer1"
     showgrid="true"
     inkscape:window-width="1920"
     inkscape:window-height="1017"
     inkscape:window-x="-8"
     inkscape:window-y="-8"
     inkscape:window-maximized="1">
    <inkscape:grid
       type="xygrid"
       id="grid10" />
  </sodipodi:namedview>
  <metadata
     id="metadata5">
    <rdf:RDF>
      <cc:Work
         rdf:about="">
        <dc:format>image/svg+xml</dc:format>
        <dc:type
           rdf:resource="http://purl.org/dc/dcmitype/StillImage" />
        <dc:title></dc:title>
      </cc:Work>
    </rdf:RDF>
  </metadata>
  <g
     inkscape:label="Ebene 1"
     inkscape:groupmode="layer"
     id="layer1">
    <ellipse
       style="fill:#d40000;stroke-width:0.23333885"
       id="path14"
       cx="83.884384"
       cy="255.89706"
       rx="20.578402"
       ry="21.166666" />
    <rect
       style="fill:#800000;stroke-width:0.26458332"
       id="rect33"
       width="31.75"
       height="50.270832"
       x="68.791672"
       y="196.45833" />
    <ellipse
       style="fill:#800000;stroke-width:0.49170965"
       id="path52"
       cx="105.83334"
       cy="154.125"
       rx="56.384243"
       ry="58.019337" />
    <ellipse
       style="fill:#ff00ff;stroke-width:0.26458332"
       id="path64"
       cx="105.59293"
       cy="75.618629"
       rx="29.104166"
       ry="31.75" />
    <rect
       style="fill:#800000;stroke-width:0.26458332"
       id="rect33-1"
       width="31.75"
       height="50.270832"
       x="111.125"
       y="196.45833" />
    <circle
       style="fill:#ffffff;stroke-width:0.26458332"
       id="path132"
       cx="96.332512"
       cy="63.712376"
       r="6.614583" />
    <circle
       style="fill:#ffffff;stroke-width:0.26458332"
       id="path132-3"
       cx="116.36525"
       cy="63.523384"
       r="6.6145835" />
    <ellipse
       style="fill:#008000;stroke-width:0.77664834"
       id="path149"
       cx="96.29911"
       cy="64.051208"
       rx="5.5179973"
       ry="2.7327971" />
    <path
       style="fill:none;stroke:#000000;stroke-width:0.26458332px;stroke-linecap:butt;stroke-linejoin:miter;stroke-opacity:1"
       d="m 93.686675,46.51446 1.322917,-19.843751 9.260418,17.197918"
       id="path166"
       inkscape:connector-curvature="0" />
    <path
       style="fill:#000000;stroke:#000000;stroke-width:0.26458332px;stroke-linecap:butt;stroke-linejoin:miter;stroke-opacity:1"
       d="m 108.23876,43.868627 9.26042,-17.197918 V 46.51446"
       id="path170"
       inkscape:connector-curvature="0" />
    <path
       style="fill:#000000;stroke-width:0.37797621"
       d="m 94.134032,43.998307 c 0.124669,-1.30243 0.421098,-5.429663 0.658731,-9.171628 0.237632,-3.741962 0.458012,-6.836553 0.489733,-6.876867 0.03172,-0.04031 1.028808,1.745625 2.21575,3.96875 1.186942,2.223127 3.086664,5.760677 4.221614,7.861228 l 2.06354,3.819181 -3.15715,0.620324 c -1.736425,0.34118 -3.958534,0.963843 -4.938013,1.383697 l -1.780873,0.76337 z"
       id="path172"
       inkscape:connector-curvature="0" />
    <ellipse
       style="fill:#280b0b;stroke-width:0.26458332"
       id="path230"
       cx="105.83333"
       cy="91.947914"
       rx="13.229166"
       ry="3.9687474" />
    <ellipse
       style="fill:#008000;stroke-width:0.77664834"
       id="path149-8"
       cx="116.33185"
       cy="63.862221"
       rx="5.5179973"
       ry="2.7327971" />
    <ellipse
       style="fill:#800000;stroke-width:0.23333885"
       id="path14-8"
       cx="126.51387"
       cy="255.93701"
       rx="20.578402"
       ry="21.166666" />
    <path
       style="fill:#d40000;stroke-width:1.01015258"
       d="m 468.75704,1046.2083 c -8.63817,-1.0307 -21.44522,-5.4346 -29.40987,-10.113 -3.23785,-1.902 -10.04009,-7.5673 -15.11606,-12.5897 -8.11643,-8.0308 -9.8491,-10.4055 -14.37236,-19.698 -2.82882,-5.81149 -5.81994,-13.52104 -6.64691,-17.13233 -5.28684,-23.08709 -0.98978,-46.37271 12.03723,-65.22913 l 5.53162,-8.00693 0.0195,-56.28397 0.0196,-56.28398 -20.70813,0.005 -20.70812,0.005 v 65.62308 65.62308 h -59.599 -59.599 v -92.07735 -92.07734 l -8.8842,-9.19045 c -33.21203,-34.35737 -54.19424,-76.0674 -61.29244,-121.84221 -2.30324,-14.85308 -3.06729,-40.42328 -1.64444,-55.03406 7.16714,-73.5972 48.8023,-137.83746 111.72209,-172.37971 9.68326,-5.316 24.15911,-11.97982 25.97223,-11.95608 0.71604,0.009 4.70547,2.7423 8.86541,6.07316 9.07551,7.26676 24.44076,15.12383 36.88319,18.86034 8.42135,2.52897 10.43142,2.73018 27.27412,2.73018 16.8427,0 18.85277,-0.20121 27.27412,-2.73018 12.70198,-3.81445 27.91378,-11.66262 37.55167,-19.37388 l 8.17506,-6.54086 6.36039,2.58446 c 26.38594,10.72157 54.96287,30.42088 74.25674,51.18841 81.34881,87.56215 79.43113,223.44856 -4.35695,308.73347 l -8.34475,8.49382 v 85.8233 85.8233 l 3.60151,5.92872 c 8.69602,14.31519 12.0538,27.92388 11.28454,45.73481 -0.58366,13.51369 -2.64139,21.66031 -8.32249,32.94893 -14.66493,29.14 -45.94176,46.1641 -77.82429,42.36 z"
       id="path283"
       inkscape:connector-curvature="0"
       transform="scale(0.26458333)" />
    <path
       style="fill:#d40000;stroke-width:1.01015258"
       d="m 298.14975,1044.3202 c -21.14079,-5.8636 -39.04718,-20.2927 -48.97226,-39.4622 -6.20727,-11.98881 -8.30531,-19.98616 -8.90879,-33.95862 -0.84649,-19.59889 3.71006,-35.47129 14.50026,-50.51058 l 5.43656,-7.57743 v -82.34555 -82.34555 l -9.84899,-10.59038 c -37.9691,-40.82722 -58.30089,-86.56394 -61.90586,-139.25828 -4.45157,-65.06912 18.45043,-127.03485 63.66011,-172.24452 18.62244,-18.62244 40.27696,-33.64862 63.30427,-43.92716 l 10.62714,-4.74355 3.69969,2.72422 c 15.89746,11.70586 30.94293,19.56574 44.74337,23.37429 9.12403,2.51799 40.01966,2.54366 49.07507,0.0408 14.4433,-3.99206 31.10323,-12.6664 43.10684,-22.44448 l 5.47965,-4.46369 10.41249,4.55389 c 26.41543,11.55275 55.24439,32.37614 73.25777,52.91469 49.6996,56.6666 67.69384,131.29135 49.27828,204.36421 -7.24294,28.73999 -23.26172,60.711 -41.95495,83.73562 -2.99472,3.68865 -9.42244,11.0144 -14.28379,16.27947 l -8.83884,9.57284 v 85.503 85.50301 l 4.53493,8.3873 c 6.02443,11.14209 8.40064,18.37306 9.72339,29.58889 3.9628,33.60117 -12.50452,65.65046 -41.40015,80.57446 -22.04447,11.3856 -45.61152,11.6389 -68.42185,0.7356 -6.53897,-3.1256 -10.26477,-5.9084 -18.52247,-13.8344 -9.58076,-9.1958 -10.73716,-10.7383 -15.80679,-21.0842 -6.5653,-13.39818 -8.457,-21.53913 -8.48042,-36.49555 -0.0276,-17.6027 3.84997,-30.16696 14.17458,-45.92954 l 5.00078,-7.6347 V 857.06466 800.8072 h -20.70813 -20.70812 v 65.6519 65.65191 l -59.85154,0.27277 -59.85154,0.27277 60.10408,-0.0122 60.10407,-0.0122 0.50508,-5.36278 0.50507,-5.36277 3.32987,6.08126 c 5.01888,9.16589 8.24227,19.66274 9.52983,31.03365 4.13439,36.51236 -18.35437,71.90789 -53.2658,83.83629 -10.99116,3.7554 -31.53839,4.4647 -42.36289,1.4624 z"
       id="path285"
       inkscape:connector-curvature="0"
       transform="scale(0.26458333)" />
    <path
       style="fill:#d40000;stroke-width:1.01015258"
       d="m 297.813,1044.2942 c -25.71674,-6.9325 -46.21442,-27.171 -54.77591,-54.0834 -3.45442,-10.85871 -3.94279,-29.45746 -1.08751,-41.41625 2.49395,-10.44545 8.25281,-22.87437 14.16793,-30.57761 l 4.08801,-5.32379 v -82.42311 -82.42311 l -8.22648,-8.6907 c -34.41276,-36.35472 -55.25461,-77.91714 -61.88351,-123.40695 -12.8404,-88.11534 26.8089,-175.03221 100.76749,-220.89657 8.78822,-5.44989 32.71256,-17.49943 34.74508,-17.49943 0.52571,0 4.70318,2.70616 9.28329,6.01368 10.05027,7.2578 25.2823,15.20293 34.91568,18.21224 15.54406,4.85571 45.13652,4.6819 59.77997,-0.35112 10.75367,-3.69608 24.99439,-11.3728 34.4276,-18.55882 l 8.34461,-6.35674 11.30305,5.04364 c 37.39493,16.68636 68.62751,43.29071 91.81872,78.21247 24.26727,36.54212 36.57735,77.71573 36.57735,122.34054 0,36.37122 -7.22867,67.42492 -23.15128,99.45575 -10.88411,21.89511 -21.26443,36.68411 -39.8555,56.78276 l -9.03382,9.7664 v 85.52305 85.52305 l 3.38533,5.7762 c 15.33943,26.17273 15.55676,57.86422 0.57099,83.26102 -5.48622,9.2977 -18.54614,22.3841 -27.6949,27.7511 -3.88909,2.2815 -10.70762,5.4038 -15.15229,6.9384 -7.33956,2.5342 -9.42548,2.7945 -22.72843,2.8363 -12.87119,0.04 -15.50461,-0.2467 -21.71828,-2.3679 -14.17281,-4.8382 -19.61115,-8.1699 -30.62702,-18.7628 -9.73253,-9.3589 -10.84841,-10.8472 -15.90507,-21.2132 -6.77555,-13.8898 -8.48718,-21.07275 -8.5063,-35.69752 -0.024,-18.41457 4.07864,-31.80165 14.59354,-47.61831 l 4.58443,-6.89596 V 856.98736 800.8072 h -20.70813 -20.70812 l 0.15869,65.40738 c 0.0873,35.97405 0.42821,63.14372 0.75762,60.37704 l 0.59891,-5.03034 3.34484,6.29791 c 23.78366,44.78171 3.16889,98.96731 -43.75094,114.99861 -11.06641,3.7811 -31.45712,4.467 -42.69964,1.4364 z"
       id="path287"
       inkscape:connector-curvature="0"
       transform="scale(0.26458333)" />
    <path
       style="fill:#d40000;stroke-width:1.01015258"
       d="m 297.96559,1044.333 c -26.11597,-7.0488 -46.56074,-27.3214 -55.09123,-54.62727 -2.02518,-6.48256 -2.36682,-9.69042 -2.36682,-22.22336 0,-10.95398 0.45583,-16.3028 1.80782,-21.2132 2.35193,-8.54222 8.6498,-21.34235 13.80215,-28.05223 l 4.08801,-5.32379 v -82.45634 -82.45633 l -8.37492,-8.68944 c -44.02206,-45.67533 -66.62718,-104.20941 -64.01757,-165.76816 3.42689,-80.8376 48.70789,-151.91617 119.50544,-187.59028 19.72129,-9.93735 16.55188,-9.87784 30.50331,-0.57275 6.61526,4.41214 16.39726,9.93839 21.73774,12.28055 14.58173,6.39504 21.00077,7.43131 43.0775,6.95428 17.18481,-0.37133 19.33778,-0.62769 26.76905,-3.18745 10.9632,-3.77637 23.71337,-10.63493 34.23824,-18.41741 l 8.74964,-6.46981 7.29541,3.10099 c 75.02112,31.88858 125.11016,102.5513 132.07637,186.32573 3.13816,37.73885 -4.26387,76.9558 -21.16349,112.12694 -11.62782,24.19958 -21.88475,39.13644 -41.04466,59.77203 l -9.53981,10.27457 v 85.51332 85.51332 l 3.98899,6.7426 c 2.19395,3.70843 5.46773,11.061 7.27505,16.33905 3.11196,9.08801 3.28672,10.37248 3.29849,24.24366 0.0135,15.99511 -1.19493,22.34314 -6.46726,33.97098 -8.58191,18.927 -25.47224,34.5563 -45.18083,41.8076 -7.73212,2.8449 -10.50894,3.331 -21.54067,3.771 -10.69679,0.4266 -13.97827,0.1728 -21.12199,-1.6337 -14.93358,-3.7764 -22.31288,-8.1697 -34.94007,-20.8019 -9.70018,-9.704 -11.71189,-12.3201 -15.49312,-20.1477 -6.91635,-14.31773 -8.55523,-22.47587 -7.92198,-39.43467 0.70219,-18.80509 4.15802,-29.21794 15.00303,-45.20589 l 3.90236,-5.75295 v -56.1189 -56.11889 h -20.70813 -20.70812 v 59.6956 c 0,58.65107 0.0364,59.74673 2.08038,62.61724 3.31905,4.66116 8.63477,16.98504 10.63861,24.66436 1.33873,5.13042 1.82593,10.5365 1.77519,19.69797 -0.0855,15.43446 -2.21099,24.22086 -9.10836,37.65213 -3.87974,7.5549 -6.51685,11.0417 -13.92483,18.4113 -10.30328,10.25 -18.49589,15.4794 -30.35187,19.3737 -11.12823,3.6553 -31.70785,4.339 -42.54705,1.4135 z"
       id="path289"
       inkscape:connector-curvature="0"
       transform="scale(0.26458333)" />
    <path
       style="fill:#d40000;stroke-width:1.01015258"
       d="m 297.813,1044.2942 c -15.3873,-4.148 -31.73144,-15.0558 -41.11498,-27.4395 -6.76275,-8.925 -13.17129,-22.86224 -15.23982,-33.1435 -2.30768,-11.46994 -1.59021,-29.92856 1.5535,-39.96742 2.56804,-8.20055 8.51424,-19.73288 13.62711,-26.42901 l 3.56671,-4.67116 v -82.29024 -82.29022 l -9.67156,-10.17166 C 233.2302,719.693 219.3579,699.63075 208.81631,677.55904 186.73303,631.32165 181.65946,577.93975 194.49897,526.91821 c 15.37653,-61.1031 57.33846,-113.45939 113.18371,-141.22035 19.38992,-9.63882 16.66125,-9.46511 28.05469,-1.78603 12.17842,8.20816 23.53301,14.08109 34.0697,17.62188 7.67972,2.58073 9.08497,2.71746 28.28427,2.75213 14.18858,0.0256 21.85687,-0.38741 25.75834,-1.38741 12.7579,-3.27002 27.36972,-10.73615 41.0734,-20.98706 l 7.23274,-5.41039 5.36973,2.11655 c 9.61479,3.78979 27.41824,13.34932 37.74348,20.26628 51.86527,34.74493 85.32352,88.36407 95.10716,152.41571 2.42246,15.8594 2.42738,46.71351 0.0101,62.62946 -7.34257,48.34327 -29.0211,91.50575 -63.93924,127.30457 l -6.42928,6.59134 v 85.45292 85.45291 l 4.47752,7.96084 c 8.22122,14.61697 11.33681,28.27898 10.3389,45.3365 -0.76461,13.06974 -2.6252,20.07298 -8.41027,31.65634 -7.14137,14.299 -20.72959,27.914 -35.20233,35.2718 -9.45676,4.8077 -16.79038,6.512 -30.32157,7.0464 -11.42629,0.4514 -14.21508,0.23 -21.21321,-1.6837 -14.33125,-3.9191 -21.65618,-8.1718 -33.1092,-19.2222 -11.5023,-11.098 -15.56352,-17.1002 -20.75023,-30.66741 -3.25289,-8.50882 -3.58,-10.36193 -3.98715,-22.58833 -0.71728,-21.53908 2.48651,-33.67379 13.2502,-50.18677 l 5.72934,-8.78958 v -56.0287 -56.02871 h -20.70813 -20.70812 v 58.5966 58.5966 l 5.52648,11.35646 c 7.29296,14.98643 9.00843,22.24948 9.00497,38.12551 -0.003,14.55229 -2.09981,23.80504 -8.10596,35.77273 -4.82336,9.6108 -9.23055,15.4245 -17.45247,23.022 -8.5865,7.9345 -17.42507,13.2135 -27.8639,16.6424 -11.20381,3.6801 -31.69962,4.34 -42.69964,1.3747 z"
       id="path291"
       inkscape:connector-curvature="0"
       transform="scale(0.26458333)" />
    <path
       style="fill:#d40000;stroke-width:1.01015258"
       d="m 297.813,1044.2387 c -15.23793,-3.9925 -31.69705,-14.9549 -41.11498,-27.384 -6.76275,-8.925 -13.17129,-22.86224 -15.23982,-33.1435 -2.30768,-11.46994 -1.59021,-29.92856 1.5535,-39.96742 2.56804,-8.20055 8.51424,-19.73288 13.62711,-26.42901 l 3.56671,-4.67116 V 830.34976 748.0559 l -9.87004,-10.33775 c -42.96757,-45.00367 -64.71556,-101.74347 -62.54777,-163.18512 2.05435,-58.22655 25.84784,-112.02835 67.02069,-151.54704 10.77156,-10.33881 24.87359,-21.35155 36.20677,-28.27506 8.07543,-4.93334 32.49142,-17.15765 34.2695,-17.15765 0.65069,0 5.70688,3.0053 11.23598,6.67843 11.95121,7.93952 22.78049,13.52389 33.51422,17.28237 7.54875,2.64325 8.65676,2.75106 28.56154,2.77909 18.96175,0.0267 21.34705,-0.17107 28.28428,-2.34503 11.0819,-3.47282 24.39881,-10.36154 35.68799,-18.46111 l 9.9291,-7.12376 5.22319,2.23796 c 77.57158,33.23673 127.8182,103.67792 134.18274,188.11197 4.76677,63.23754 -17.63271,124.31392 -63.12285,172.11627 l -8.76309,9.20851 v 85.40614 85.40613 l 3.50482,5.88355 c 14.88222,24.98289 15.58163,56.58544 1.80133,81.3928 -10.57894,19.0443 -31.0309,34.6578 -50.76301,38.7537 -11.49369,2.3858 -30.5291,1.4587 -40.16762,-1.9563 -12.41859,-4.4001 -17.34357,-7.6785 -29.097,-19.3689 -8.55755,-8.5117 -12.02414,-12.78 -14.77506,-18.192 -6.68662,-13.1549 -8.16338,-18.86676 -8.66692,-33.52214 -0.73941,-21.52051 2.46141,-33.65689 13.23612,-50.18677 l 5.72934,-8.78958 v -56.0287 -56.02871 h -20.73159 -20.7316 l 0.27601,59.34646 0.276,59.34646 5.248,10.60661 c 6.10192,12.33246 8.15759,19.61832 9.02411,31.98389 2.68167,38.26868 -23.50705,74.34128 -59.92839,82.54588 -10.05654,2.2654 -26.98012,2.0807 -36.43931,-0.3978 z"
       id="path293"
       inkscape:connector-curvature="0"
       transform="scale(0.26458333)" />
    <path
       style="fill:#d40000;stroke-width:1.01015258"
       d="m 300.95385,1045.282 c -11.28537,-2.395 -26.90978,-10.7528 -36.32332,-19.4299 -10.18581,-9.3889 -19.91964,-26.8757 -23.14286,-41.57604 -2.39703,-10.93229 -1.64996,-30.47524 1.54942,-40.53228 2.90057,-9.1177 7.78222,-18.77005 13.01375,-25.7317 l 4.15468,-5.52866 v -82.23111 -82.23113 l -9.53461,-9.9337 c -52.14509,-54.32776 -73.33846,-126.97805 -58.56986,-200.7759 11.36323,-56.78146 46.10212,-108.25256 94.36843,-139.8216 7.94746,-5.19811 36.59107,-19.9367 38.74584,-19.9367 0.68883,0 5.76786,2.99805 11.28672,6.66232 12.11841,8.04608 27.91074,15.87964 36.84056,18.27425 9.21731,2.4717 41.96489,2.43663 51.4646,-0.0551 11.99996,-3.14755 31.77585,-13.78405 44.68809,-24.03559 3.22859,-2.5633 3.16909,-2.58123 21.53008,6.48795 52.09296,25.73064 91.45051,71.07575 109.8896,126.60739 26.44642,79.64674 7.12997,165.02395 -51.22079,226.39189 l -9.67641,10.17677 v 85.41536 85.41536 l 3.54574,5.85897 c 8.60662,14.22158 12.28852,29.70668 11.31485,47.58727 -1.22884,22.56668 -10.74409,41.38988 -28.71253,56.79968 -13.26524,11.3763 -29.4353,17.1345 -48.11695,17.1345 -13.43461,0 -21.30041,-1.7441 -32.96875,-7.31 -7.37853,-3.5196 -10.13541,-5.6474 -19.83542,-15.3089 -10.06696,-10.0271 -11.75799,-12.2425 -15.89071,-20.8177 -6.14395,-12.74847 -7.69391,-19.8723 -7.7122,-35.44627 -0.0227,-19.32812 3.27926,-30.40453 13.95874,-46.82471 l 5.21923,-8.02478 V 856.67457 800.8072 H 400.08074 379.3417 l 0.28345,59.34646 0.28344,59.34646 5.248,10.60661 c 6.01885,12.16456 8.25887,19.99516 9.09039,31.77786 2.54479,36.05989 -19.81201,69.59631 -54.24624,81.37241 -5.26102,1.7992 -9.35808,2.3099 -20.7013,2.5801 -7.77818,0.1854 -16.0337,-0.064 -18.34559,-0.5551 z"
       id="path295"
       inkscape:connector-curvature="0"
       transform="scale(0.26458333)" />
    <path
       style="fill:#d40000;stroke-width:1.01015258"
       d="m 301.11669,1045.2448 c -16.63498,-3.3271 -35.44287,-15.6429 -45.45687,-29.7661 -10.55333,-14.8838 -14.60409,-26.49316 -15.36299,-44.02988 -0.8961,-20.70721 3.74278,-36.7273 15.34174,-52.98179 l 4.56695,-6.4 v -82.17351 -82.17351 l -7.15588,-7.04398 c -3.93573,-3.87419 -10.83642,-11.58966 -15.33487,-17.1455 -33.15777,-40.95176 -50.24024,-88.86549 -50.24024,-140.91628 0,-74.76131 36.41509,-143.2685 97.9848,-184.33742 9.41316,-6.27887 33.61321,-18.98412 38.49185,-20.20859 1.92892,-0.48412 4.58525,0.77066 12.04349,5.68908 11.45895,7.55674 25.49885,14.85335 33.8124,17.57249 5.30945,1.73658 8.94153,1.98236 29.29442,1.98236 21.8164,0 23.6648,-0.14665 30.30458,-2.4043 11.93995,-4.05982 25.37272,-11.60765 39.59005,-22.24554 3.82291,-2.86043 3.49733,-2.95213 22.02925,6.20417 43.24716,21.36768 77.33266,55.61663 98.54336,99.01592 41.92547,85.78387 25.77878,185.93927 -41.17604,255.40862 l -8.37492,8.68944 v 84.97734 84.97734 l 4.96608,9.36878 c 7.07494,13.34727 9.23176,21.115 9.90135,35.6596 0.71307,15.4889 -1.20601,25.72377 -7.19245,38.35896 -10.09393,21.3046 -29.20895,37.4589 -50.88356,43.0023 -9.41554,2.4081 -27.1069,2.6081 -36.4234,0.4118 -7.33147,-1.7284 -19.23272,-7.0837 -24.41373,-10.9858 -1.94455,-1.4645 -7.54959,-6.6326 -12.45566,-11.4846 -7.66197,-7.5776 -9.61671,-10.2467 -13.85885,-18.9234 -6.43782,-13.16777 -7.99721,-20.16176 -8.01575,-35.95138 -0.0226,-19.26628 3.28797,-30.39307 14.02139,-47.12553 l 5.15658,-8.03864 V 856.51722 800.8072 h -20.77963 -20.77961 l 0.32403,59.34646 0.32403,59.34646 4.77784,9.28314 c 11.10013,21.56707 12.75535,44.39031 4.80018,66.188 -8.97922,24.60364 -31.26736,44.73484 -55.12333,49.78864 -7.42378,1.5727 -26.42212,1.8498 -33.24659,0.4849 z"
       id="path297"
       inkscape:connector-curvature="0"
       transform="scale(0.26458333)" />
    <path
       style="fill:#d40000;stroke-width:1.01015258"
       d="m 299.09639,1044.7776 c -12.82852,-3.4636 -25.34475,-10.4179 -34.99366,-19.4433 -10.01296,-9.366 -19.72577,-26.77531 -22.65974,-40.61553 -1.88223,-8.87888 -1.80751,-25.6345 0.15701,-35.2092 1.90979,-9.30798 7.7597,-22.24349 14.03857,-31.04254 l 4.56695,-6.4 v -81.98501 -81.98501 l -8.90461,-9.25278 c -32.98649,-34.27625 -53.64247,-74.98859 -61.32747,-120.87464 -2.56446,-15.31199 -3.07189,-45.32463 -1.04649,-61.89553 7.99822,-65.43787 43.97013,-123.85933 97.73844,-158.73562 9.10496,-5.90585 32.75811,-18.15264 37.1798,-19.25043 1.97806,-0.49111 4.60538,0.71486 12.12183,5.56403 10.9658,7.0745 26.20704,14.95121 34.34512,17.74965 4.84187,1.66497 8.60647,1.90775 29.29443,1.88921 23.57105,-0.0211 23.79205,-0.0414 31.31473,-2.87773 10.0055,-3.7724 22.1305,-10.38442 31.91179,-17.40217 4.36594,-3.13242 8.454,-5.89329 9.0846,-6.13527 1.69229,-0.64939 19.59139,7.57639 31.58827,14.51681 65.02679,37.61928 105.90513,106.3605 108.90817,183.14049 2.37101,60.6207 -20.43458,119.58232 -63.52932,164.24886 l -8.86704,9.19045 v 84.98141 84.98141 l 4.96608,9.36878 c 7.17099,13.52848 9.28946,21.15374 9.91796,35.69913 0.70234,16.2539 -1.19155,25.80871 -7.79565,39.32953 -2.71368,5.5559 -7.16868,12.7836 -9.9,16.0617 -10.35719,12.4306 -25.36497,22.086 -40.24436,25.8915 -9.6439,2.4665 -27.17205,2.6651 -36.74608,0.4164 -19.89218,-4.6722 -40.89201,-21.7298 -50.65354,-41.1446 -5.94796,-11.82985 -7.93531,-20.79197 -7.93531,-35.78487 0,-19.72104 3.22865,-30.65864 14.01248,-47.46968 l 5.18042,-8.0758 V 856.51722 800.8072 h -20.83148 -20.83147 l 0.44671,59.34646 0.44671,59.34646 4.70701,9.28314 c 11.17612,22.04144 12.70032,44.16372 4.58842,66.5966 -6.48627,17.93734 -21.66701,34.99924 -38.55748,43.33554 -5.09597,2.5151 -12.44738,5.2369 -16.33646,6.0483 -8.79716,1.8357 -28.5793,1.8434 -35.35534,0.014 z"
       id="path299"
       inkscape:connector-curvature="0"
       transform="scale(0.26458333)" />
    <path
       style="fill:#d40000;stroke-width:1.01015258"
       d="m 298.59131,1044.7441 c -27.3526,-6.7047 -51.14188,-31.6916 -57.14832,-60.02533 -1.88223,-8.87888 -1.80751,-25.6345 0.15701,-35.2092 1.90979,-9.30798 7.7597,-22.24349 14.03857,-31.04254 l 4.56695,-6.4 v -81.93572 -81.93572 l -10.2147,-10.7406 c -35.03072,-36.83428 -56.0682,-81.68045 -61.50043,-131.10216 -1.28292,-11.6719 -1.28292,-35.80526 0,-47.47716 3.5558,-32.35017 15.22394,-66.62069 31.76357,-93.29277 16.8111,-27.10988 40.35913,-51.28983 66.50953,-68.29435 9.31913,-6.05984 35.79203,-19.73549 38.20231,-19.73495 0.77259,1.7e-4 6.17768,2.99208 12.01131,6.64868 12.10446,7.58724 21.84584,12.69349 31.31473,16.41459 6.36184,2.50008 7.30407,2.5821 30.30457,2.63781 20.6746,0.0501 24.4557,-0.18731 29.29443,-1.83911 8.68474,-2.96471 26.59801,-12.41786 35.12698,-18.53711 4.26433,-3.05952 8.30733,-5.77536 8.98445,-6.03519 1.86725,-0.71653 20.5883,8.07976 33.66237,15.81661 48.275,28.56776 84.29204,76.11364 99.04217,130.74496 20.7014,76.67359 0.32202,156.55933 -54.61942,214.10428 l -10.06962,10.54678 v 84.93963 84.93963 l 4.96608,9.36878 c 7.17099,13.52848 9.28946,21.15374 9.91796,35.69913 0.70234,16.2539 -1.19155,25.80871 -7.79565,39.32953 -9.74107,19.9433 -24.96424,33.47 -46.22809,41.0762 -8.43346,3.0167 -29.50267,3.7532 -40.07606,1.4008 -10.67539,-2.375 -21.97705,-8.3107 -31.47192,-16.529 -9.44409,-8.1745 -15.0605,-15.2213 -19.87577,-24.9378 -6.77285,-13.6667 -7.32237,-16.35794 -7.32237,-35.86043 0,-15.78996 0.24942,-18.42217 2.33577,-24.64966 2.80443,-8.37088 6.72612,-16.16298 12.25151,-24.34274 l 4.09411,-6.06091 0.003,-55.81093 0.003,-55.81093 h -20.86842 -20.86841 l 0.59378,59.36791 0.59379,59.3679 5.10998,10.58516 c 7.41479,15.35949 8.68104,20.93961 8.59107,37.85928 -0.069,12.978 -0.3311,14.9138 -3.184,23.51653 -4.45107,13.42192 -10.11108,22.39352 -20.91632,33.15412 -7.72129,7.6894 -10.79542,9.9654 -18.79004,13.9118 -5.25711,2.5951 -12.74039,5.3824 -16.62947,6.1938 -8.76097,1.8281 -28.36629,1.8174 -35.86042,-0.02 z"
       id="path301"
       inkscape:connector-curvature="0"
       transform="scale(0.26458333)" />
    <path
       style="fill:#d40000;stroke-width:0.26726952"
       d="m 98.619744,106.18845 c -1.477883,-0.33269 -6.896497,-3.10098 -9.630262,-4.91996 -3.566369,-2.372983 -6.620951,-6.145057 -9.081838,-11.215077 -5.341906,-11.005608 -4.097838,-24.637767 3.139665,-34.403567 1.893921,-2.555534 5.936421,-6.273863 8.420753,-7.745494 4.482849,-2.65548 9.059698,-3.945292 14.021458,-3.951423 2.59784,-0.0032 3.23521,0.107887 7.40882,1.291368 3.68654,1.045371 4.98602,1.547495 6.7439,2.605879 2.65227,1.596866 6.49765,5.149344 8.51766,7.868853 6.35983,8.562158 8.12055,20.577204 4.54188,30.993514 -2.07597,6.042445 -6.31212,11.793635 -10.92503,14.832317 -2.80846,1.85003 -7.75441,4.306 -9.36894,4.65225 -1.63466,0.35057 -12.2218,0.34392 -13.788066,-0.009 z M 112.18333,95.3875 c 6.86005,-1.132853 8.99322,-3.838149 4.57748,-5.805167 -7.25847,-3.233325 -24.13626,-1.687931 -24.13626,2.210006 0,0.451818 0.239935,1.040067 0.551165,1.351296 2.307066,2.307069 11.822595,3.430384 19.007615,2.243865 z M 99.259253,69.626053 c 2.346617,-1.209656 3.641447,-3.355393 3.640187,-6.032325 -0.001,-2.19964 -0.59964,-3.570954 -2.1548,-4.936408 -1.384785,-1.215856 -2.481075,-1.612662 -4.43655,-1.605825 -1.963886,0.0069 -3.432387,0.585904 -4.699534,1.853051 -1.288402,1.288402 -1.729669,2.337996 -1.859045,4.421913 -0.103579,1.668399 -0.03277,2.029984 0.654272,3.34087 0.805159,1.536253 2.515333,2.950961 4.18913,3.465375 1.155478,0.355115 3.485324,0.102153 4.66634,-0.506651 z m 19.427877,0.07223 c 2.4679,-0.840896 4.40615,-3.644238 4.40615,-6.372725 0,-2.324338 -1.56949,-4.746474 -3.79383,-5.854914 -2.63802,-1.314577 -5.43822,-0.832789 -7.57418,1.303176 -5.07914,5.079138 0.12951,13.252479 6.96186,10.924463 z"
       id="path303"
       inkscape:connector-curvature="0" />
    <path
       style="fill:#f4d7d7;stroke-width:0.08928572"
       d="m 382.95588,339.81876 c -1.31088,-3.93216 -1.98341,-6.07091 -1.92111,-6.10942 0.0527,-0.0326 0.34342,-0.0835 0.646,-0.11313 0.30257,-0.0296 1.31353,-0.13318 2.24657,-0.23008 2.09323,-0.2174 5.31973,-0.47719 5.36495,-0.43197 0.0346,0.0345 -4.2119,12.82723 -4.28079,12.89612 -0.0213,0.0213 -0.94629,-2.68392 -2.05562,-6.01152 z"
       id="path309"
       inkscape:connector-curvature="0"
       transform="scale(0.26458333)" />
    <path
       style="fill:#f4d7d7;stroke-width:0.08928572"
       d="m 383.97794,342.71325 c -1.47517,-4.38073 -2.75358,-8.30845 -2.82069,-8.66617 -0.0548,-0.29238 -0.0413,-0.31777 0.19486,-0.36524 0.53411,-0.10736 6.79629,-0.67826 7.45881,-0.67999 l 0.41929,-10e-4 -0.12701,0.42411 c -0.21964,0.73337 -4.04947,12.18462 -4.08798,12.22313 -0.0202,0.0202 -0.48695,-1.30046 -1.03728,-2.93474 z"
       id="path311"
       inkscape:connector-curvature="0"
       transform="scale(0.26458333)" />
    <path
       style="fill:#f4d7d7;stroke-width:0.02362351"
       d="m 104.18468,90.39096 c -0.39282,-1.158217 -0.73334,-2.196687 -0.75129,-2.291296 -0.0143,-0.07739 -0.0114,-0.08401 0.0514,-0.09675 0.14125,-0.02873 1.79779,-0.183364 1.97307,-0.184203 l 0.11093,-5.08e-4 -0.0334,0.112288 c -0.0577,0.19416 -1.06441,3.226168 -1.07457,3.23638 -0.005,0.0054 -0.12958,-0.343801 -0.27614,-0.775884 z"
       id="path311-8"
       inkscape:connector-curvature="0" />
    <path
       style="fill:#f4d7d7;stroke-width:0.02362351"
       d="m 106.67954,90.280485 c -0.19108,-1.207999 -0.35088,-2.289127 -0.35257,-2.38541 -0.001,-0.07869 0.003,-0.08472 0.067,-0.08666 0.14408,-0.0044 1.80289,0.123625 1.97579,0.152472 l 0.10941,0.01828 -0.0519,0.105018 c -0.0897,0.181597 -1.59519,2.999414 -1.60694,3.007757 -0.006,0.0044 -0.0695,-0.360775 -0.14081,-0.811433 z"
       id="path311-8-0"
       inkscape:connector-curvature="0" />
    <path
       style="fill:#f4d7d7;stroke-width:0.02362351"
       d="m 109.58995,90.545064 c -0.19108,-1.207999 -0.35088,-2.289127 -0.35257,-2.38541 -0.001,-0.07869 0.003,-0.08472 0.067,-0.08666 0.14408,-0.0044 1.80289,0.123629 1.97579,0.152476 l 0.10941,0.01828 -0.0519,0.105018 c -0.0897,0.181597 -1.59519,2.999411 -1.60694,3.007754 -0.006,0.0044 -0.0695,-0.360775 -0.14081,-0.811434 z"
       id="path311-8-0-9"
       inkscape:connector-curvature="0" />
    <path
       style="fill:#f4d7d7;stroke-width:0.02362351"
       d="m 112.08864,90.681987 c 0.0466,-1.222132 0.0992,-2.313736 0.11624,-2.408522 0.0143,-0.07739 0.0194,-0.08253 0.0825,-0.07204 0.14221,0.0236 1.74479,0.470566 1.90882,0.532362 l 0.1038,0.03913 -0.0713,0.09297 c -0.12318,0.160779 -2.14605,2.633546 -2.15919,2.639454 -0.007,0.0032 0.002,-0.367404 0.0191,-0.82334 z"
       id="path311-8-0-9-7"
       inkscape:connector-curvature="0" />
    <path
       style="fill:#f4d7d7;stroke-width:0.02362351"
       d="m 99.290902,90.99367 c -0.560637,-1.086949 -1.051744,-2.063261 -1.083565,-2.154148 -0.026,-0.07429 -0.02345,-0.08147 0.03634,-0.103301 0.135419,-0.0494 1.750562,-0.448593 1.923773,-0.475481 l 0.10963,-0.01699 -0.0163,0.115996 c -0.0282,0.20058 -0.572971,3.348557 -0.581507,3.360166 -0.0041,0.006 -0.179258,-0.320714 -0.388414,-0.726211 z"
       id="path311-7"
       inkscape:connector-curvature="0" />
    <path
       style="fill:#f4d7d7;stroke-width:0.02362351"
       d="m 101.07083,93.270818 c 0.11864,1.217245 0.21364,2.305983 0.20957,2.402197 -0.003,0.07867 -0.009,0.08432 -0.072,0.08253 -0.14409,-0.0042 -1.79229,-0.230992 -1.963165,-0.270104 l -0.108139,-0.02477 0.05806,-0.101736 c 0.100414,-0.17591 1.771335,-2.898873 1.783565,-2.906498 0.006,-0.0042 0.0479,0.364278 0.0921,0.818387 z"
       id="path311-7-1"
       inkscape:connector-curvature="0" />
    <path
       style="fill:#f4d7d7;stroke-width:0.02362351"
       d="m 103.71667,93.630154 c 0.10191,1.218759 0.18195,2.308697 0.17656,2.404848 -0.004,0.07862 -0.0102,0.08418 -0.0731,0.08154 -0.14402,-0.0062 -1.78895,-0.255581 -1.95927,-0.297037 l -0.1078,-0.02621 0.0594,-0.10094 c 0.10277,-0.174528 1.81098,-2.874275 1.82331,-2.881731 0.006,-0.004 0.0429,0.3649 0.0808,0.819574 z"
       id="path311-7-1-6"
       inkscape:connector-curvature="0" />
    <path
       style="fill:#f4d7d7;stroke-width:0.02362351"
       d="m 105.83333,93.535313 c 0.45057,1.136993 0.84288,2.157026 0.86556,2.250615 0.0189,0.07643 0.0147,0.08351 -0.0463,0.09922 -0.13963,0.0358 -1.78629,0.273549 -1.96131,0.283204 l -0.11077,0.0062 0.0276,-0.113835 c 0.0478,-0.196813 0.9008,-3.275612 0.91044,-3.286321 0.005,-0.0057 0.14675,0.336834 0.31478,0.761021 z"
       id="path311-7-1-6-0"
       inkscape:connector-curvature="0" />
    <path
       style="fill:#f4d7d7;stroke-width:0.02362351"
       d="m 108.74375,93.270772 c 0.44994,1.137242 0.84169,2.157492 0.86432,2.251093 0.0189,0.07644 0.0147,0.08352 -0.0464,0.09919 -0.13965,0.03572 -1.78644,0.272563 -1.96147,0.282121 l -0.11077,0.0061 0.0277,-0.11382 c 0.0479,-0.196786 0.90261,-3.275114 0.91226,-3.285817 0.005,-0.0057 0.14656,0.336915 0.31436,0.761194 z"
       id="path311-7-1-6-0-9"
       inkscape:connector-curvature="0" />
    <path
       style="fill:#f4d7d7;stroke-width:0.02362351"
       d="m 111.38958,93.006189 c 0.44994,1.137242 0.84169,2.157492 0.86432,2.251093 0.0189,0.07644 0.0147,0.08352 -0.0464,0.09919 -0.13965,0.03572 -1.78644,0.272563 -1.96147,0.282121 l -0.11077,0.0061 0.0277,-0.11382 c 0.0479,-0.196786 0.90261,-3.275114 0.91226,-3.285817 0.005,-0.0057 0.14656,0.336915 0.31436,0.761194 z"
       id="path311-7-1-6-0-9-1"
       inkscape:connector-curvature="0" />
    <rect
       style="fill:#f4d7d7;stroke-width:0.26458332"
       id="rect477-8"
       width="63.5"
       height="15.875"
       x="-69.450813"
       y="191.77916"
       transform="rotate(-64.572975)" />
    <ellipse
       style="fill:#f4d7d7;stroke-width:0.26458332"
       id="path494-8"
       cx="0.85276341"
       cy="198.96071"
       rx="13.229167"
       ry="10.583333"
       transform="rotate(-64.572975)" />
    <path
       style="fill:none;stroke:#000000;stroke-width:0.26458332px;stroke-linecap:butt;stroke-linejoin:miter;stroke-opacity:1"
       d="m 175.39406,73.867931 -6.41492,-20.557903 11.69511,18.654868"
       id="path533"
       inkscape:connector-curvature="0" />
    <path
       style="fill:none;stroke:#000000;stroke-width:0.26458332px;stroke-linecap:butt;stroke-linejoin:miter;stroke-opacity:1"
       d="m 180.67425,71.964896 0.56409,-21.662242 4.78759,22.716473"
       id="path533-4"
       inkscape:connector-curvature="0"
       sodipodi:nodetypes="ccc" />
    <path
       style="fill:none;stroke:#000000;stroke-width:0.26458332px;stroke-linecap:butt;stroke-linejoin:miter;stroke-opacity:1"
       d="m 186.59078,73.676218 8.44092,-19.812364 -3.96796,25.780035"
       id="path533-4-0"
       inkscape:connector-curvature="0"
       sodipodi:nodetypes="ccc" />
    <rect
       style="fill:#f4d7d7;stroke-width:0.26458332"
       id="rect477-8-5"
       width="63.5"
       height="15.875"
       x="-154.48824"
       y="-31.539385"
       transform="rotate(-121.07499)" />
    <ellipse
       style="fill:#f4d7d7;stroke-width:0.26458332"
       id="path494-8-4"
       cx="-84.184654"
       cy="-24.357836"
       rx="13.229167"
       ry="10.583333"
       transform="rotate(-121.07499)" />
    <path
       style="fill:none;stroke:#000000;stroke-width:0.26458332px;stroke-linecap:butt;stroke-linejoin:miter;stroke-opacity:1"
       d="m 14.526611,74.80393 -1.61058,-22.315707 7.312298,20.768003"
       id="path533-0"
       inkscape:connector-curvature="0"
       sodipodi:nodetypes="ccc" />
    <path
       style="fill:none;stroke:#000000;stroke-width:0.26458332px;stroke-linecap:butt;stroke-linejoin:miter;stroke-opacity:1"
       d="M 20.121095,72.879378 25.53641,52.246816 25.191967,74.888883"
       id="path533-4-6"
       inkscape:connector-curvature="0"
       sodipodi:nodetypes="ccc" />
    <path
       style="fill:none;stroke:#000000;stroke-width:0.26458332px;stroke-linecap:butt;stroke-linejoin:miter;stroke-opacity:1"
       d="M 25.191967,74.888883 39.961286,54.166735 30.428055,78.445788"
       id="path533-4-0-3"
       inkscape:connector-curvature="0"
       sodipodi:nodetypes="ccc" />
    <path
       style="fill:#ff0000;stroke-width:0.37797621"
       d="M 37.041667,122.375 C 25.451675,103.1974 21.259722,96.566031 20.555019,96.294281 13.233523,93.470917 9.0905752,82.829343 12.858066,76.523888 c 0.597873,-1.000627 1.223618,-1.707538 1.390546,-1.570915 0.166928,0.136624 0.337349,-0.0059 0.378713,-0.316646 0.165025,-1.239874 4.546956,-2.893348 4.998303,-1.886055 0.286898,0.640288 0.889596,0.621886 0.976335,-0.02981 0.05331,-0.400561 0.478228,-0.506817 1.479142,-0.369887 2.301458,0.314894 3.044097,0.764138 2.911371,1.761346 -0.140369,1.054629 0.151405,1.175209 0.914714,0.378024 0.512477,-0.535222 0.679915,-0.476286 2.225625,0.78339 0.919301,0.749185 1.788019,1.759007 1.930482,2.244047 0.142462,0.485043 0.463844,0.909157 0.714184,0.942477 0.707553,0.09417 2.22833,3.398874 2.832964,6.156131 0.457467,2.086144 1.892147,4.73093 8.772013,16.17091 4.523803,7.52228 8.46012,13.92264 8.747371,14.22302 0.287247,0.30039 0.402855,0.53026 0.256901,0.51083 -0.145959,-0.0194 3.113354,5.56162 7.242918,12.40231 l 7.508294,12.43763 -6.529917,3.89597 c -3.591454,2.14277 -6.641237,3.88217 -6.777301,3.86531 -0.136027,-0.0171 -7.241134,-11.60299 -15.789057,-25.74697 z"
       id="path592"
       inkscape:connector-curvature="0" />
    <path
       style="fill:#ff0000;stroke-width:0.37797621"
       d="m 150.66111,148.35136 c -3.68702,-1.7567 -6.7225,-3.34552 -6.74552,-3.53069 -0.046,-0.36991 3.00709,-6.91709 16.45896,-35.29579 L 169.33333,90.625 169.1359,88.27459 c -0.41596,-4.951861 1.55511,-9.835198 5.3146,-13.166871 3.3322,-2.953009 7.80363,-3.92105 11.03813,-2.389689 0.71717,0.339543 1.20387,0.644798 1.08156,0.678343 -0.12231,0.03354 0.27614,0.344917 0.88544,0.691943 2.61017,1.486609 4.19482,6.784664 3.34487,11.183158 -0.5823,3.013426 -2.39994,6.339206 -4.65057,8.509265 -1.34297,1.294891 -3.56822,5.69048 -14.23743,28.123501 -14.21274,29.88364 -14.03711,29.52103 -14.33246,29.59049 -0.11828,0.0283 -3.23193,-1.38666 -6.91893,-3.14337 z"
       id="path594"
       inkscape:connector-curvature="0" />
    <path
       style="fill:#280b0b;stroke-width:0.37797621"
       d="M 14.709795,72.972548 C 14.422287,70.925096 13.556704,56.634784 13.702146,56.3368 c 0.09512,-0.194889 1.402299,3.237935 2.904838,7.628496 1.50254,4.390562 2.64795,8.02182 2.545357,8.069463 -0.102592,0.04764 -1.123047,0.428321 -2.267676,0.84595 -1.86927,0.682022 -2.090682,0.691371 -2.17487,0.09184 z"
       id="path596"
       inkscape:connector-curvature="0" />
    <path
       style="fill:#280b0b;stroke-width:0.37797621"
       d="m 25.20458,64.149859 c 0.07607,-0.434079 0.176669,-0.511042 0.256493,-0.196237 0.07223,0.284873 0.01591,0.606257 -0.125159,0.714187 -0.141071,0.107929 -0.200171,-0.125144 -0.131333,-0.517949 z"
       id="path598"
       inkscape:connector-curvature="0" />
    <path
       style="fill:#280b0b;stroke-width:0.37797621"
       d="m 20.933154,70.953325 c 0.194938,-0.655647 1.176544,-4.379854 2.181347,-8.276019 1.004802,-3.896168 1.873949,-7.022458 1.931438,-6.947318 0.116016,0.151641 -0.03871,15.279404 -0.166925,16.320485 -0.06753,0.548296 -0.428656,0.610238 -2.190575,0.37573 L 20.57872,72.145404 Z"
       id="path600"
       inkscape:connector-curvature="0" />
    <path
       style="fill:#280b0b;stroke-width:0.37797621"
       d="m 29.154594,75.976001 c -0.689459,-0.715345 -1.571534,-1.450184 -1.960168,-1.63298 -0.388633,-0.182796 -0.628166,-0.52608 -0.532294,-0.762855 0.262291,-0.647784 11.397362,-16.235461 11.501023,-16.099969 0.09435,0.123318 -7.436112,19.552456 -7.638172,19.707047 -0.06426,0.04916 -0.680928,-0.495903 -1.370389,-1.211243 z"
       id="path602"
       inkscape:connector-curvature="0" />
    <path
       style="fill:#280b0b;stroke-width:0.37797621"
       d="m 175.22131,72.14251 c -0.95316,-2.322992 -5.04183,-16.089217 -4.61337,-15.532814 0.20557,0.266966 2.47321,3.833843 5.03919,7.926394 l 4.66542,7.441005 -1.18067,0.323805 c -0.64938,0.178096 -1.65312,0.560864 -2.23055,0.850607 -1.02283,0.513236 -1.06609,0.487252 -1.68002,-1.008997 z"
       id="path604"
       inkscape:connector-curvature="0" />
    <path
       style="fill:#280b0b;stroke-width:0.37797621"
       d="m 184.15981,72.040191 c -0.70277,-0.204456 -1.55537,-0.296527 -1.89467,-0.204607 -0.3393,0.09192 -0.75914,0.03475 -0.93298,-0.127042 -0.28508,-0.265346 -0.0417,-18.122952 0.24476,-17.959789 0.12941,0.0737 3.90835,18.024656 3.87852,18.42396 -0.01,0.131574 -0.59287,0.07194 -1.29563,-0.132522 z"
       id="path606"
       inkscape:connector-curvature="0" />
    <path
       style="fill:#280b0b;stroke-width:1.42857146"
       d=""
       id="path608"
       inkscape:connector-curvature="0"
       transform="scale(0.26458333)" />
    <path
       style="fill:#280b0b;stroke-width:0.37797621"
       d="m 190.1367,77.398911 c -0.1875,-0.683664 -0.94497,-1.883224 -1.68326,-2.665688 l -1.34236,-1.42266 3.23061,-7.595274 c 1.77683,-4.177399 3.32879,-7.539348 3.4488,-7.470996 0.2689,0.153149 -2.71247,19.752564 -3.06175,20.12783 -0.13812,0.148398 -0.40454,-0.289546 -0.59204,-0.973212 z"
       id="path610"
       inkscape:connector-curvature="0" />
  </g>
</svg>
