<?xml version="1.0" encoding="UTF-8" standalone="no"?>
<!-- Created with Inkscape (http://www.inkscape.org/) -->

<svg
   xmlns:dc="http://purl.org/dc/elements/1.1/"
   xmlns:cc="http://creativecommons.org/ns#"
   xmlns:rdf="http://www.w3.org/1999/02/22-rdf-syntax-ns#"
   xmlns:svg="http://www.w3.org/2000/svg"
   xmlns="http://www.w3.org/2000/svg"
   xmlns:sodipodi="http://sodipodi.sourceforge.net/DTD/sodipodi-0.dtd"
   xmlns:inkscape="http://www.inkscape.org/namespaces/inkscape"
   width="350mm"
   height="297mm"
   viewBox="0 0 350 297"
   version="1.1"
   id="svg8"
   inkscape:export-filename="C:\Users\Tobi_\Desktop\Schwert.png"
   inkscape:export-xdpi="130.0788"
   inkscape:export-ydpi="130.0788"
   inkscape:version="0.92.2 (5c3e80d, 2017-08-06)"
   sodipodi:docname="Schwert.svg">
  <defs
     id="defs2" />
  <sodipodi:namedview
     id="base"
     pagecolor="#ffffff"
     bordercolor="#666666"
     borderopacity="1.0"
     inkscape:pageopacity="0.0"
     inkscape:pageshadow="2"
     inkscape:zoom="0.64"
     inkscape:cx="405.38584"
     inkscape:cy="485.04976"
     inkscape:document-units="mm"
     inkscape:current-layer="layer1"
     showgrid="true"
     inkscape:window-width="1920"
     inkscape:window-height="1017"
     inkscape:window-x="-8"
     inkscape:window-y="-8"
     inkscape:window-maximized="1">
    <inkscape:grid
       type="xygrid"
       id="grid16" />
  </sodipodi:namedview>
  <metadata
     id="metadata5">
    <rdf:RDF>
      <cc:Work
         rdf:about="">
        <dc:format>image/svg+xml</dc:format>
        <dc:type
           rdf:resource="http://purl.org/dc/dcmitype/StillImage" />
        <dc:title></dc:title>
      </cc:Work>
    </rdf:RDF>
  </metadata>
  <g
     inkscape:label="Ebene 1"
     inkscape:groupmode="layer"
     id="layer1">
    <path
       style="fill:none;stroke:#000000;stroke-width:0.06744006px;stroke-linecap:butt;stroke-linejoin:miter;stroke-opacity:1"
       d="m 36.951472,106.76158 37.39553,0.0832"
       id="path899-8"
       inkscape:connector-curvature="0" />
    <path
       style="fill:none;stroke:#000000;stroke-width:0.06744006px;stroke-linecap:butt;stroke-linejoin:miter;stroke-opacity:1"
       d="m 36.937359,99.950664 25.375539,0.05643 12.034103,6.83766 -12.005867,6.7842 -25.375538,-0.0564 z"
       id="path907-9"
       inkscape:connector-curvature="0" />
    <path
       style="fill:#999975;fill-opacity:1;stroke-width:0.1053751"
       d="m 55.429454,106.91857 c 10.138396,0.0225 18.404621,0.0704 18.369399,0.1063 -0.0352,0.0359 -2.629537,1.51472 -5.765156,3.28621 l -5.701107,3.22089 -12.661449,-0.0282 -12.661449,-0.0282 -0.0068,-3.29904 -0.0069,-3.29905 z"
       id="path909-8"
       inkscape:connector-curvature="0" />
    <path
       style="fill:#483737;fill-opacity:0.55607473;stroke-width:0.1053751"
       d="m 49.665576,100.09485 12.683649,0.0282 5.765232,3.27325 c 3.170869,1.80029 5.784822,3.29066 5.808775,3.31195 0.02395,0.0212 -8.274963,0.0202 -18.442048,-0.002 l -18.485605,-0.0411 -0.0069,-3.29905 -0.0069,-3.29903 z"
       id="path911-3"
       inkscape:connector-curvature="0" />
    <path
       style="fill:#666666;fill-opacity:1;stroke-width:0.1053751"
       d="m 46.473736,106.89865 c 12.18739,0.0272 27.072449,0.18001 26.967206,0.27706 -0.04496,0.0415 -2.579278,1.48854 -5.631805,3.21574 l -5.550046,3.14037 -12.62469,-0.0281 -12.624709,-0.0281 -0.0068,-3.29904 -0.0069,-3.29905 z"
       id="path913-0"
       inkscape:connector-curvature="0" />
    <rect
       style="fill:#501616;fill-opacity:0.95327101;stroke-width:0.06358338"
       id="rect915-4"
       width="21.795013"
       height="4.0066733"
       x="95.898506"
       y="-36.730488"
       transform="matrix(0.00207253,0.99999785,-0.99999753,-0.002224,0,0)" />
    <rect
       style="fill:#501616;fill-opacity:0.95327101;stroke-width:0.078637"
       id="rect917-6"
       width="13.621882"
       height="25.421709"
       x="99.86927"
       y="-32.815582"
       transform="matrix(0.00206057,0.99999788,-0.99999755,-0.00221164,0,0)" />
    <path
       style="fill:none;stroke:#000000;stroke-width:0.06744006px;stroke-linecap:butt;stroke-linejoin:miter;stroke-opacity:1"
       d="m 62.357444,100.12308 -3.992547,6.80202 4.020784,6.81983"
       id="path828-8"
       inkscape:connector-curvature="0" />
    <path
       style="fill:#979797;fill-opacity:0.95327101;stroke-width:0.1053751"
       d="m 60.503173,103.43743 c 1.02656,-1.74982 1.939007,-3.1922 2.027692,-3.20528 0.08873,-0.0131 0.161308,0.011 0.161408,0.0536 2.24e-4,0.11924 0.796095,0.54912 0.872455,0.47125 0.03708,-0.0378 0.06754,-0.0218 0.06763,0.0357 5.32e-4,0.13821 0.785762,0.58689 0.872522,0.49841 0.03708,-0.0378 0.06755,-0.0218 0.06763,0.0357 5.33e-4,0.1382 0.785752,0.58688 0.872503,0.49841 0.03708,-0.0378 0.06754,-0.0218 0.06763,0.0357 5.32e-4,0.1382 0.785762,0.58688 0.872533,0.49839 0.03708,-0.0378 0.06754,-0.0217 0.06763,0.0357 5.32e-4,0.13821 0.785742,0.58689 0.872496,0.49841 0.03708,-0.0378 0.06753,-0.0218 0.06765,0.0357 5.32e-4,0.1382 0.785758,0.58689 0.872514,0.49841 0.03711,-0.0378 0.06752,-0.0218 0.06765,0.0357 4.31e-4,0.13819 0.785754,0.58688 0.872518,0.4984 0.0371,-0.0378 0.06752,-0.0218 0.06765,0.0358 4.32e-4,0.1382 0.785753,0.58689 0.872512,0.4984 0.0371,-0.0378 0.06755,-0.0139 0.06768,0.0533 4.8e-4,0.14596 0.781905,0.57335 0.874961,0.47844 0.03572,-0.0365 0.06508,-0.0111 0.0652,0.0557 3.8e-4,0.14597 0.781896,0.57335 0.874958,0.47844 0.03573,-0.0365 0.06508,-0.0111 0.0652,0.0557 3.8e-4,0.14596 0.781896,0.57335 0.87496,0.47844 0.03573,-0.0365 0.06508,-0.0111 0.0652,0.0553 2.46e-4,0.0669 0.176513,0.21682 0.391962,0.33316 l 0.391713,0.21156 -7.590741,-0.0121 c -4.174905,-0.007 -7.590638,-0.0242 -7.59051,-0.0388 1.09e-4,-0.0146 0.840149,-1.45827 1.866688,-3.2081 z"
       id="path830-1"
       inkscape:connector-curvature="0" />
    <path
       style="fill:#979797;fill-opacity:1;stroke-width:0.1053751"
       d="m 60.795814,106.99632 c 3.979761,0.009 12.449071,0.16635 12.447632,0.23118 -5.99e-4,0.0343 -2.216633,1.31526 -4.92415,2.84649 -2.707521,1.53124 -5.163608,2.92438 -5.457988,3.09586 l -0.535212,0.31181 -1.85981,-3.16534 c -1.022892,-1.74095 -1.879204,-3.20132 -1.902909,-3.24526 -0.02371,-0.044 0.980881,-0.0776 2.232441,-0.0746 z"
       id="path832-8"
       inkscape:connector-curvature="0" />
    <path
       style="fill:#b2b2b2;fill-opacity:0.95327101;stroke-width:0.1053751"
       d="m 49.597369,100.1604 c 6.915143,0.0153 12.57304,0.0485 12.573092,0.0737 8e-5,0.0251 -0.844748,1.48389 -1.877312,3.24164 l -1.877414,3.19593 -10.688954,-0.0238 -10.688954,-0.0238 -0.0068,-3.24583 -0.0068,-3.24583 z"
       id="path834-3"
       inkscape:connector-curvature="0" />
    <path
       style="fill:#bebebe;fill-opacity:0.95327101;stroke-width:0.10509896"
       d="m 47.699176,106.9412 10.633651,0.0514 1.880289,3.20333 c 1.034162,1.76183 1.88033,3.22351 1.880383,3.2482 8.3e-5,0.0247 -5.628126,0.0446 -12.507049,0.0443 l -12.507141,-5.9e-4 -0.0069,-3.29905 -0.0069,-3.29903 z"
       id="path836-2"
       inkscape:connector-curvature="0" />
    <path
       sodipodi:type="star"
       style="fill:#d4aa00;fill-opacity:0.95327101;stroke-width:0.26458332"
       id="path1027-9"
       sodipodi:sides="5"
       sodipodi:cx="93.784584"
       sodipodi:cy="213.65192"
       sodipodi:r1="28.619064"
       sodipodi:r2="15.168074"
       sodipodi:arg1="0.98279372"
       sodipodi:arg2="1.6111123"
       inkscape:flatsided="false"
       inkscape:rounded="0"
       inkscape:randomized="0"
       d="m 109.65958,237.46442 -16.486346,-8.65676 -17.130039,7.30075 3.138498,-18.35454 -12.236891,-14.03558 18.426049,-2.68697 9.567225,-15.97521 8.249424,16.69389 18.14976,4.16236 -13.32762,13.00437 z"
       inkscape:transform-center-x="-0.68080421"
       inkscape:transform-center-y="-0.006427368"
       transform="matrix(0.01122794,0.24846393,-0.25212106,0.01074995,73.184244,81.068619)" />
    <path
       style="fill:none;stroke:#000000;stroke-width:0.06744006px;stroke-linecap:butt;stroke-linejoin:miter;stroke-opacity:1"
       d="m 24.978916,255.48514 0.05067,37.39559"
       id="path899-0"
       inkscape:connector-curvature="0" />
    <path
       style="fill:none;stroke:#000000;stroke-width:0.06744006px;stroke-linecap:butt;stroke-linejoin:miter;stroke-opacity:1"
       d="m 31.789747,255.44665 0.03438,25.37558 -6.794549,12.0585 -6.827119,-11.98153 -0.03438,-25.37556 z"
       id="path907-3"
       inkscape:connector-curvature="0" />
    <path
       style="fill:#999975;fill-opacity:1;stroke-width:0.1053751"
       d="m 24.888059,273.96357 c 0.01377,10.1384 -0.0045,18.40475 -0.04056,18.36965 -0.03604,-0.0351 -1.524121,-2.6241 -3.306819,-5.75334 l -3.241279,-5.68956 -0.01715,-12.66147 -0.01715,-12.66146 3.298994,-0.0186 3.299002,-0.0186 z"
       id="path909-5"
       inkscape:connector-curvature="0" />
    <path
       style="fill:#483737;fill-opacity:0.55607473;stroke-width:0.1053751"
       d="m 31.691105,268.17529 0.01718,12.68368 -3.252596,5.77691 c -1.788931,3.17729 -3.26994,5.79656 -3.291139,5.8206 -0.02119,0.024 -0.04981,-8.27486 -0.06357,-18.44194 l -0.02508,-18.48564 3.298996,-0.0186 3.298997,-0.0187 z"
       id="path911-8"
       inkscape:connector-curvature="0" />
    <path
       style="fill:#666666;fill-opacity:1;stroke-width:0.1053751"
       d="m 24.875924,265.00782 c 0.01646,12.18742 -0.08312,27.07293 -0.180543,26.96804 -0.0416,-0.0448 -1.497756,-2.57393 -3.235873,-5.62026 l -3.160212,-5.53877 -0.01708,-12.62472 -0.01709,-12.62473 3.298994,-0.0186 3.299,-0.0186 z"
       id="path913-5"
       inkscape:connector-curvature="0" />
    <rect
       style="fill:#501616;fill-opacity:0.95327101;stroke-width:0.06358338"
       id="rect915-9"
       width="21.795013"
       height="4.0066733"
       x="-35.4146"
       y="-255.62463"
       transform="matrix(-0.99998403,0.00565132,-0.00135482,-0.99999908,0,0)" />
    <rect
       style="fill:#501616;fill-opacity:0.95327101;stroke-width:0.078637"
       id="rect917-7"
       width="13.621882"
       height="25.421709"
       x="-31.441126"
       y="-251.7081"
       transform="matrix(-0.9999841,0.00563936,-0.00136718,-0.99999907,0,0)" />
    <path
       style="fill:none;stroke:#000000;stroke-width:0.06744006px;stroke-linecap:butt;stroke-linejoin:miter;stroke-opacity:1"
       d="m 31.708298,280.86719 -6.816261,-3.96817 -6.805404,4.04515"
       id="path828-4"
       inkscape:connector-curvature="0" />
    <path
       style="fill:#979797;fill-opacity:0.95327101;stroke-width:0.1053751"
       d="m 28.387333,279.0248 c 1.753488,1.02027 3.199125,1.92757 3.212521,2.0162 0.01343,0.0887 -0.01049,0.16134 -0.05304,0.1616 -0.11921,8.9e-4 -0.546268,0.79805 -0.468126,0.87414 0.03795,0.037 0.02198,0.0675 -0.03554,0.0678 -0.138199,9.8e-4 -0.584072,0.78783 -0.49528,0.87428 0.03795,0.037 0.02198,0.0675 -0.03555,0.0678 -0.138199,9.8e-4 -0.584075,0.78785 -0.495282,0.87429 0.03795,0.037 0.02198,0.0675 -0.03553,0.0678 -0.138198,9.8e-4 -0.584073,0.78786 -0.495273,0.8743 0.03795,0.037 0.02197,0.0675 -0.03555,0.0678 -0.138198,9.8e-4 -0.584069,0.78785 -0.495279,0.87429 0.03795,0.037 0.02198,0.0675 -0.03554,0.0678 -0.138201,9.7e-4 -0.584075,0.78786 -0.495276,0.87429 0.03795,0.037 0.02198,0.0675 -0.03555,0.0678 -0.138198,8.7e-4 -0.584073,0.78786 -0.495279,0.87429 0.03795,0.037 0.02197,0.0675 -0.03555,0.0678 -0.138197,8.7e-4 -0.584068,0.78784 -0.495276,0.87429 0.03795,0.037 0.01417,0.0674 -0.05299,0.0679 -0.14596,9.5e-4 -0.570544,0.78396 -0.475304,0.87668 0.03656,0.0356 0.01155,0.065 -0.05552,0.0653 -0.145957,9.5e-4 -0.570547,0.78394 -0.475306,0.87668 0.03656,0.0356 0.01155,0.065 -0.05551,0.0653 -0.145957,9.5e-4 -0.57055,0.78396 -0.475309,0.87668 0.03656,0.0357 0.01173,0.065 -0.05514,0.0654 -0.06688,5.9e-4 -0.216189,0.17728 -0.33176,0.39314 l -0.21015,0.39247 -0.01506,-7.59073 c -0.0082,-4.1749 -0.003,-7.59067 0.01163,-7.5906 0.01468,-6.8e-4 1.461276,0.83493 3.214767,1.8552 z"
       id="path830-11"
       inkscape:connector-curvature="0" />
    <path
       style="fill:#979797;fill-opacity:1;stroke-width:0.1053751"
       d="m 24.82951,279.33017 c 0.0052,3.97976 -0.121798,12.44959 -0.186629,12.44838 -0.03427,-4.5e-4 -1.323179,-2.21192 -2.864095,-4.91393 -1.540913,-2.70203 -2.94283,-5.15311 -3.115376,-5.44687 l -0.313718,-0.5341 3.158669,-1.87112 c 1.737268,-1.02912 3.194565,-1.89066 3.23843,-1.91453 0.04387,-0.0238 0.08109,0.98061 0.08272,2.23217 z"
       id="path832-5"
       inkscape:connector-curvature="0" />
    <path
       style="fill:#b2b2b2;fill-opacity:0.95327101;stroke-width:0.1053751"
       d="m 31.62531,268.10733 c 0.0094,6.91516 -0.0035,12.57313 -0.02869,12.57327 -0.02515,10e-6 -1.4869,-0.83943 -3.248336,-1.86571 l -3.202625,-1.86595 -0.01449,-10.68897 -0.01448,-10.68897 3.245791,-0.0184 3.245784,-0.0184 z"
       id="path834-4"
       inkscape:connector-curvature="0" />
    <path
       style="fill:#bebebe;fill-opacity:0.95327101;stroke-width:0.10509896"
       d="m 24.837764,266.23341 -0.01338,10.63376 -3.196575,1.89176 c -1.758119,1.04046 -3.216767,1.89185 -3.241446,1.89199 -0.02471,7e-5 -0.06474,-5.62793 -0.08904,-12.50681 l -0.04416,-12.50706 3.298995,-0.0187 3.298999,-0.0187 z"
       id="path836-9"
       inkscape:connector-curvature="0" />
    <path
       sodipodi:type="star"
       style="fill:#d4aa00;fill-opacity:0.95327101;stroke-width:0.26458332"
       id="path1027-99"
       sodipodi:sides="5"
       sodipodi:cx="93.784584"
       sodipodi:cy="213.65192"
       sodipodi:r1="28.619064"
       sodipodi:r2="15.168074"
       sodipodi:arg1="0.98279372"
       sodipodi:arg2="1.6111123"
       inkscape:flatsided="false"
       inkscape:rounded="0"
       inkscape:randomized="0"
       d="m 109.65958,237.46442 -16.486346,-8.65676 -17.130039,7.30075 3.138498,-18.35454 -12.236891,-14.03558 18.426049,-2.68697 9.567225,-15.97521 8.249424,16.69389 18.14976,4.16236 -13.32762,13.00437 z"
       inkscape:transform-center-x="-0.014415919"
       inkscape:transform-center-y="0.67331035"
       transform="matrix(-0.24842216,0.01211709,-0.01165217,-0.25208097,50.801388,291.62573)" />
    <path
       style="fill:none;stroke:#000000;stroke-width:0.06744006px;stroke-linecap:butt;stroke-linejoin:miter;stroke-opacity:1"
       d="m 43.981815,177.05734 -37.3943062,0.3148"
       id="path899-7"
       inkscape:connector-curvature="0" />
    <path
       style="fill:none;stroke:#000000;stroke-width:0.06744006px;stroke-linecap:butt;stroke-linejoin:miter;stroke-opacity:1"
       d="m 44.068397,183.86774 -25.374705,0.2132 -12.106187,-6.7092 11.933004,-6.91158 25.374705,-0.2132 z"
       id="path907-4"
       inkscape:connector-curvature="0" />
    <path
       style="fill:#999975;fill-opacity:1;stroke-width:0.1053751"
       d="m 25.503199,177.09701 c -10.138051,0.0854 -18.4043257,0.12544 -18.3694804,0.0892 0.034781,-0.0363 2.6132623,-1.54262 5.7298584,-3.34738 l 5.666511,-3.28138 12.661023,-0.10637 12.661034,-0.10638 0.04186,3.29879 0.04186,3.29878 z"
       id="path909-0"
       inkscape:connector-curvature="0" />
    <path
       style="fill:#483737;fill-opacity:0.55607473;stroke-width:0.1053751"
       d="m 31.339378,183.859 -12.683244,0.10657 -5.799737,-3.21171 c -3.1898405,-1.76645 -5.8195089,-3.22893 -5.8436838,-3.24994 -0.024182,-0.021 8.2742808,-0.10824 18.4410218,-0.19387 l 18.48499,-0.15615 0.04186,3.29879 0.04196,3.29878 z"
       id="path911-39"
       inkscape:connector-curvature="0" />
    <path
       style="fill:#666666;fill-opacity:1;stroke-width:0.1053751"
       d="m 34.458633,177.02162 c -12.186992,0.10224 -27.0728373,0.1081 -26.9686286,0.01 0.04454,-0.0419 2.5632826,-1.5159 5.5972586,-3.27549 l 5.516321,-3.19925 12.624275,-0.10605 12.624286,-0.10606 0.04186,3.29879 0.04186,3.29877 z"
       id="path913-53"
       inkscape:connector-curvature="0" />
    <rect
       style="fill:#501616;fill-opacity:0.95327101;stroke-width:0.06358338"
       id="rect915-97"
       width="21.795013"
       height="4.0066733"
       x="-188.20456"
       y="41.727509"
       transform="matrix(-0.01271399,-0.99991917,0.99996457,-0.00841769,0,0)" />
    <rect
       style="fill:#501616;fill-opacity:0.95327101;stroke-width:0.078637"
       id="rect917-66"
       width="13.621882"
       height="25.421709"
       x="-184.23474"
       y="45.645802"
       transform="matrix(-0.01270203,-0.99991933,0.99996447,-0.00843006,0,0)" />
    <path
       style="fill:none;stroke:#000000;stroke-width:0.06744006px;stroke-linecap:butt;stroke-linejoin:miter;stroke-opacity:1"
       d="m 18.647926,183.96584 3.919927,-6.84412 -4.09312,-6.77667"
       id="path828-0"
       inkscape:connector-curvature="0" />
    <path
       style="fill:#979797;fill-opacity:0.95327101;stroke-width:0.1053751"
       d="m 20.466813,180.63193 c -1.00787,1.76066 -1.904927,3.21267 -1.993468,3.22668 -0.08858,0.014 -0.161404,-0.01 -0.161959,-0.0519 -0.0015,-0.11923 -0.801904,-0.54062 -0.877421,-0.46194 -0.03666,0.0382 -0.06731,0.0225 -0.068,-0.0351 -0.002,-0.13818 -0.791963,-0.57849 -0.877777,-0.48909 -0.03666,0.0382 -0.06731,0.0225 -0.06801,-0.0351 -0.002,-0.1382 -0.791953,-0.5785 -0.877768,-0.4891 -0.03666,0.0382 -0.06731,0.0225 -0.06801,-0.0351 -0.002,-0.13819 -0.791952,-0.5785 -0.877776,-0.48909 -0.03666,0.0382 -0.06731,0.0225 -0.06801,-0.0351 -0.002,-0.13819 -0.791952,-0.57849 -0.877756,-0.48909 -0.03666,0.0382 -0.06731,0.0225 -0.06801,-0.0351 -0.002,-0.13819 -0.791964,-0.57849 -0.877767,-0.48909 -0.03666,0.0382 -0.06731,0.0225 -0.06801,-0.0351 -0.0018,-0.13819 -0.791953,-0.57849 -0.877778,-0.48909 -0.03666,0.0382 -0.06731,0.0225 -0.06801,-0.0351 -0.0018,-0.13819 -0.791952,-0.57849 -0.877767,-0.48908 -0.03666,0.0382 -0.06738,0.0146 -0.06826,-0.0525 -0.002,-0.14594 -0.7879554,-0.56498 -0.8800028,-0.46909 -0.035381,0.0368 -0.064899,0.012 -0.065782,-0.0551 -0.00193,-0.14595 -0.787955,-0.565 -0.8799927,-0.46911 -0.035381,0.0368 -0.064899,0.012 -0.065781,-0.0551 -0.00194,-0.14594 -0.7879555,-0.56499 -0.8800032,-0.46909 -0.035385,0.0368 -0.064897,0.0122 -0.065782,-0.0548 -9.282e-4,-0.0668 -0.1788109,-0.21494 -0.3954924,-0.32898 l -0.3939432,-0.20737 7.5904443,-0.0682 c 4.174753,-0.0374 7.590469,-0.0562 7.590492,-0.042 4.7e-5,0.0146 -0.824581,1.46713 -1.832442,3.22779 z"
       id="path830-4"
       inkscape:connector-curvature="0" />
    <path
       style="fill:#979797;fill-opacity:1;stroke-width:0.1053751"
       d="m 20.136315,177.07636 c -3.979617,0.0337 -12.4501279,-0.0339 -12.449383,-0.0987 2.696e-4,-0.0344 2.2025131,-1.33876 4.893577,-2.89874 2.691083,-1.55996 5.132205,-2.97914 5.424734,-3.15377 l 0.531872,-0.31747 1.893392,3.14537 c 1.041359,1.72996 1.913163,3.18113 1.937335,3.22483 0.02419,0.0437 -0.98,0.0881 -2.231527,0.0985 z"
       id="path832-51"
       inkscape:connector-curvature="0" />
    <path
       style="fill:#b2b2b2;fill-opacity:0.95327101;stroke-width:0.1053751"
       d="m 31.406882,183.79273 c -6.914924,0.0583 -12.572844,0.0853 -12.573163,0.0601 -3.97e-4,-0.0251 0.828908,-1.49279 1.842708,-3.26143 l 1.843298,-3.21572 10.688591,-0.0902 10.688609,-0.0902 0.04129,3.24559 0.04129,3.24557 z"
       id="path834-7"
       inkscape:connector-curvature="0" />
    <path
       style="fill:#bebebe;fill-opacity:0.95327101;stroke-width:0.10509896"
       d="m 33.232808,176.99212 -10.633596,0.0617 -1.914281,-3.18314 c -1.052842,-1.75073 -1.914517,-3.20332 -1.914842,-3.228 -3.08e-4,-0.0247 5.627344,-0.10446 12.505868,-0.17742 l 12.506451,-0.13253 0.04196,3.29878 0.04196,3.29878 z"
       id="path836-26"
       inkscape:connector-curvature="0" />
    <path
       sodipodi:type="star"
       style="fill:#d4aa00;fill-opacity:0.95327101;stroke-width:0.26458332"
       id="path1027-98"
       sodipodi:sides="5"
       sodipodi:cx="93.784584"
       sodipodi:cy="213.65192"
       sodipodi:r1="28.619064"
       sodipodi:r2="15.168074"
       sodipodi:arg1="0.98279372"
       sodipodi:arg2="1.6111123"
       inkscape:flatsided="false"
       inkscape:rounded="0"
       inkscape:randomized="0"
       d="m 109.65958,237.46442 -16.486346,-8.65676 -17.130039,7.30075 3.138498,-18.35454 -12.236891,-14.03558 18.426049,-2.68697 9.567225,-15.97521 8.249424,16.69389 18.14976,4.16236 -13.32762,13.00437 z"
       inkscape:transform-center-x="0.65848465"
       inkscape:transform-center-y="0.030173148"
       transform="matrix(-0.01387136,-0.24833038,0.25199239,-0.01343231,8.0245007,203.13443)" />
    <path
       style="fill:none;stroke:#000000;stroke-width:0.06744006px;stroke-linecap:butt;stroke-linejoin:miter;stroke-opacity:1"
       d="m 120.60304,255.89091 0.0507,37.39559"
       id="path899-0-0"
       inkscape:connector-curvature="0" />
    <path
       style="fill:none;stroke:#000000;stroke-width:0.06744006px;stroke-linecap:butt;stroke-linejoin:miter;stroke-opacity:1"
       d="m 127.41387,255.85242 0.0344,25.37558 -6.79454,12.0585 -6.82712,-11.98153 -0.0344,-25.37556 z"
       id="path907-3-0"
       inkscape:connector-curvature="0" />
    <path
       style="fill:#999975;fill-opacity:1;stroke-width:0.1053751"
       d="m 120.51219,274.36934 c 0.0138,10.1384 -0.005,18.40475 -0.0406,18.36965 -0.036,-0.0351 -1.52412,-2.6241 -3.30682,-5.75334 l -3.24128,-5.68956 -0.0172,-12.66147 -0.0172,-12.66146 3.29899,-0.0186 3.299,-0.0186 z"
       id="path909-5-1"
       inkscape:connector-curvature="0" />
    <path
       style="fill:#483737;fill-opacity:0.55607473;stroke-width:0.1053751"
       d="m 127.31523,268.58106 0.0172,12.68368 -3.2526,5.77691 c -1.78893,3.17729 -3.26993,5.79656 -3.29113,5.8206 -0.0212,0.024 -0.0498,-8.27486 -0.0636,-18.44194 l -0.0251,-18.48564 3.29899,-0.0186 3.299,-0.0187 z"
       id="path911-8-8"
       inkscape:connector-curvature="0" />
    <path
       style="fill:#666666;fill-opacity:1;stroke-width:0.1053751"
       d="m 120.50005,265.41359 c 0.0165,12.18742 -0.0831,27.07293 -0.18054,26.96804 -0.0416,-0.0448 -1.49776,-2.57393 -3.23587,-5.62026 l -3.16022,-5.53877 -0.0171,-12.62472 -0.0171,-12.62473 3.299,-0.0186 3.299,-0.0186 z"
       id="path913-5-3"
       inkscape:connector-curvature="0" />
    <rect
       style="fill:#501616;fill-opacity:0.95327101;stroke-width:0.06358338"
       id="rect915-9-2"
       width="21.795013"
       height="4.0066733"
       x="-131.03897"
       y="-256.5708"
       transform="matrix(-0.99998403,0.00565132,-0.00135482,-0.99999908,0,0)" />
    <rect
       style="fill:#501616;fill-opacity:0.95327101;stroke-width:0.078637"
       id="rect917-7-2"
       width="13.621882"
       height="25.421709"
       x="-127.06548"
       y="-252.65312"
       transform="matrix(-0.9999841,0.00563936,-0.00136718,-0.99999907,0,0)" />
    <path
       style="fill:none;stroke:#000000;stroke-width:0.06744006px;stroke-linecap:butt;stroke-linejoin:miter;stroke-opacity:1"
       d="m 127.33242,281.27296 -6.81626,-3.96817 -6.8054,4.04515"
       id="path828-4-3"
       inkscape:connector-curvature="0" />
    <path
       style="fill:#979797;fill-opacity:0.95327101;stroke-width:0.1053751"
       d="m 124.01146,279.43057 c 1.75349,1.02027 3.19912,1.92757 3.21252,2.0162 0.0134,0.0887 -0.0105,0.16134 -0.053,0.1616 -0.11921,7.9e-4 -0.54627,0.79805 -0.46813,0.87414 0.0379,0.037 0.022,0.0675 -0.0355,0.0678 -0.1382,10e-4 -0.58407,0.78783 -0.49528,0.87428 0.0379,0.037 0.022,0.0675 -0.0356,0.0678 -0.1382,10e-4 -0.58407,0.78785 -0.49528,0.87429 0.0379,0.037 0.022,0.0675 -0.0355,0.0678 -0.1382,10e-4 -0.58407,0.78786 -0.49527,0.8743 0.0379,0.037 0.022,0.0675 -0.0356,0.0678 -0.1382,0.001 -0.58407,0.78785 -0.49528,0.87429 0.0379,0.037 0.022,0.0675 -0.0355,0.0678 -0.1382,10e-4 -0.58408,0.78786 -0.49528,0.87429 0.0379,0.037 0.022,0.0675 -0.0356,0.0678 -0.1382,8e-4 -0.58407,0.78786 -0.49528,0.87429 0.0379,0.037 0.022,0.0675 -0.0356,0.0678 -0.13819,7.9e-4 -0.58406,0.78784 -0.49527,0.87429 0.0379,0.037 0.0142,0.0674 -0.053,0.0679 -0.14596,0.001 -0.57055,0.78396 -0.47531,0.87668 0.0366,0.0356 0.0115,0.065 -0.0555,0.0653 -0.14595,10e-4 -0.57054,0.78394 -0.4753,0.87668 0.0366,0.0356 0.0115,0.065 -0.0555,0.0653 -0.14596,10e-4 -0.57055,0.78396 -0.47531,0.87668 0.0366,0.0357 0.0117,0.065 -0.0551,0.0654 -0.0669,5.3e-4 -0.21619,0.17728 -0.33176,0.39314 l -0.21015,0.39247 -0.0151,-7.59073 c -0.008,-4.1749 -0.003,-7.59067 0.0116,-7.5906 0.0147,-8e-4 1.46127,0.83493 3.21477,1.8552 z"
       id="path830-11-4"
       inkscape:connector-curvature="0" />
    <path
       style="fill:#979797;fill-opacity:1;stroke-width:0.1053751"
       d="m 120.45364,279.73594 c 0.005,3.97976 -0.1218,12.44959 -0.18663,12.44838 -0.0343,-5.3e-4 -1.32318,-2.21192 -2.8641,-4.91393 -1.54091,-2.70203 -2.94283,-5.15311 -3.11537,-5.44687 l -0.31372,-0.5341 3.15867,-1.87112 c 1.73727,-1.02912 3.19456,-1.89066 3.23843,-1.91453 0.0439,-0.0238 0.0811,0.98061 0.0827,2.23217 z"
       id="path832-5-8"
       inkscape:connector-curvature="0" />
    <path
       style="fill:#b2b2b2;fill-opacity:0.95327101;stroke-width:0.1053751"
       d="m 127.24943,268.5131 c 0.009,6.91516 -0.004,12.57313 -0.0287,12.57327 -0.0252,1e-5 -1.4869,-0.83943 -3.24833,-1.86571 l -3.20262,-1.86595 -0.0145,-10.68897 -0.0145,-10.68897 3.24578,-0.0184 3.24579,-0.0184 z"
       id="path834-4-5"
       inkscape:connector-curvature="0" />
    <path
       style="fill:#bebebe;fill-opacity:0.95327101;stroke-width:0.10509896"
       d="m 120.46189,266.63918 -0.0134,10.63376 -3.19657,1.89176 c -1.75812,1.04046 -3.21677,1.89185 -3.24145,1.89199 -0.0247,7e-5 -0.0647,-5.62793 -0.089,-12.50681 l -0.0442,-12.50706 3.299,-0.0187 3.29899,-0.0187 z"
       id="path836-9-2"
       inkscape:connector-curvature="0" />
    <path
       sodipodi:type="star"
       style="fill:#d4aa00;fill-opacity:0.95327101;stroke-width:0.26458332"
       id="path1027-99-8"
       sodipodi:sides="5"
       sodipodi:cx="93.784584"
       sodipodi:cy="213.65192"
       sodipodi:r1="28.619064"
       sodipodi:r2="15.168074"
       sodipodi:arg1="0.98279372"
       sodipodi:arg2="1.6111123"
       inkscape:flatsided="false"
       inkscape:rounded="0"
       inkscape:randomized="0"
       d="m 109.65958,237.46442 -16.486346,-8.65676 -17.130039,7.30075 3.138498,-18.35454 -12.236891,-14.03558 18.426049,-2.68697 9.567225,-15.97521 8.249424,16.69389 18.14976,4.16236 -13.32762,13.00437 z"
       inkscape:transform-center-x="-0.014415919"
       inkscape:transform-center-y="0.67331035"
       transform="matrix(-0.24842216,0.01211709,-0.01165217,-0.25208097,146.42551,292.0315)" />
    <path
       style="fill:none;stroke:#000000;stroke-width:0.06744006px;stroke-linecap:butt;stroke-linejoin:miter;stroke-opacity:1"
       d="m 215.85304,255.89092 0.0507,37.39559"
       id="path899-0-0-6"
       inkscape:connector-curvature="0" />
    <path
       style="fill:none;stroke:#000000;stroke-width:0.06744006px;stroke-linecap:butt;stroke-linejoin:miter;stroke-opacity:1"
       d="m 222.66387,255.85243 0.0344,25.37558 -6.79454,12.0585 -6.82712,-11.98153 -0.0344,-25.37556 z"
       id="path907-3-0-6"
       inkscape:connector-curvature="0" />
    <path
       style="fill:#999975;fill-opacity:1;stroke-width:0.1053751"
       d="m 215.76219,274.36935 c 0.0138,10.1384 -0.005,18.40475 -0.0406,18.36965 -0.036,-0.0351 -1.52412,-2.6241 -3.30682,-5.75334 l -3.24128,-5.68956 -0.0172,-12.66147 -0.0172,-12.66146 3.29899,-0.0186 3.299,-0.0186 z"
       id="path909-5-1-8"
       inkscape:connector-curvature="0" />
    <path
       style="fill:#483737;fill-opacity:0.55607473;stroke-width:0.1053751"
       d="m 222.56524,268.58107 0.0172,12.68368 -3.2526,5.77691 c -1.78893,3.17729 -3.26993,5.79656 -3.29113,5.8206 -0.0212,0.024 -0.0498,-8.27486 -0.0636,-18.44194 l -0.0251,-18.48564 3.29899,-0.0186 3.299,-0.0187 z"
       id="path911-8-8-7"
       inkscape:connector-curvature="0" />
    <path
       style="fill:#666666;fill-opacity:1;stroke-width:0.1053751"
       d="m 215.75006,265.4136 c 0.0165,12.18742 -0.0831,27.07293 -0.18055,26.96804 -0.0416,-0.0448 -1.49776,-2.57393 -3.23587,-5.62026 l -3.16022,-5.53877 -0.0171,-12.62472 -0.0171,-12.62473 3.299,-0.0186 3.299,-0.0186 z"
       id="path913-5-3-5"
       inkscape:connector-curvature="0" />
    <rect
       style="fill:#501616;fill-opacity:0.95327101;stroke-width:0.06358338"
       id="rect915-9-2-7"
       width="21.795013"
       height="4.0066733"
       x="-226.28976"
       y="-257.1091"
       transform="matrix(-0.99998403,0.00565132,-0.00135482,-0.99999908,0,0)" />
    <rect
       style="fill:#501616;fill-opacity:0.95327101;stroke-width:0.078637"
       id="rect917-7-2-6"
       width="13.621882"
       height="25.421709"
       x="-222.31627"
       y="-253.19028"
       transform="matrix(-0.9999841,0.00563936,-0.00136718,-0.99999907,0,0)" />
    <path
       style="fill:none;stroke:#000000;stroke-width:0.06744006px;stroke-linecap:butt;stroke-linejoin:miter;stroke-opacity:1"
       d="m 222.58243,281.27297 -6.81627,-3.96817 -6.8054,4.04515"
       id="path828-4-3-2"
       inkscape:connector-curvature="0" />
    <path
       style="fill:#979797;fill-opacity:0.95327101;stroke-width:0.1053751"
       d="m 219.26147,279.43058 c 1.75349,1.02027 3.19912,1.92757 3.21252,2.0162 0.0134,0.0887 -0.0105,0.16134 -0.053,0.1616 -0.11922,7.9e-4 -0.54628,0.79805 -0.46813,0.87414 0.0379,0.037 0.022,0.0675 -0.0355,0.0678 -0.1382,10e-4 -0.58407,0.78782 -0.49528,0.87427 0.0379,0.037 0.022,0.0675 -0.0356,0.0678 -0.1382,10e-4 -0.58407,0.78785 -0.49528,0.8743 0.0379,0.037 0.022,0.0675 -0.0355,0.0678 -0.13821,0.001 -0.58408,0.78786 -0.49528,0.8743 0.0379,0.037 0.022,0.0675 -0.0356,0.0678 -0.1382,10e-4 -0.58406,0.78785 -0.49527,0.87428 0.0379,0.037 0.022,0.0675 -0.0355,0.0678 -0.1382,10e-4 -0.58409,0.78786 -0.49529,0.87429 0.0379,0.037 0.022,0.0675 -0.0356,0.0678 -0.1382,8e-4 -0.58407,0.78786 -0.49528,0.87429 0.0379,0.037 0.022,0.0675 -0.0356,0.0678 -0.13819,8e-4 -0.58406,0.78784 -0.49527,0.87429 0.0379,0.037 0.0142,0.0674 -0.053,0.0679 -0.14596,0.001 -0.57055,0.78396 -0.47531,0.87668 0.0366,0.0356 0.0115,0.065 -0.0555,0.0653 -0.14595,10e-4 -0.57054,0.78394 -0.4753,0.87668 0.0366,0.0356 0.0115,0.065 -0.0555,0.0653 -0.14596,10e-4 -0.57055,0.78396 -0.47531,0.87668 0.0366,0.0357 0.0117,0.065 -0.0551,0.0654 -0.0669,5.3e-4 -0.21619,0.17728 -0.33176,0.39314 l -0.21015,0.39247 -0.0151,-7.59073 c -0.008,-4.1749 -0.003,-7.59067 0.0116,-7.5906 0.0147,-7.9e-4 1.46127,0.83493 3.21477,1.8552 z"
       id="path830-11-4-1"
       inkscape:connector-curvature="0" />
    <path
       style="fill:#979797;fill-opacity:1;stroke-width:0.1053751"
       d="m 215.70364,279.73595 c 0.005,3.97976 -0.1218,12.44959 -0.18662,12.44838 -0.0343,-5.3e-4 -1.32319,-2.21192 -2.86411,-4.91393 -1.54091,-2.70203 -2.94283,-5.15311 -3.11537,-5.44687 l -0.31372,-0.5341 3.15867,-1.87112 c 1.73727,-1.02912 3.19456,-1.89066 3.23843,-1.91453 0.0439,-0.0238 0.0811,0.98061 0.0827,2.23217 z"
       id="path832-5-8-0"
       inkscape:connector-curvature="0" />
    <path
       style="fill:#b2b2b2;fill-opacity:0.95327101;stroke-width:0.1053751"
       d="m 222.49944,268.51311 c 0.009,6.91516 -0.004,12.57313 -0.0287,12.57327 -0.0252,10e-6 -1.4869,-0.83943 -3.24833,-1.86571 l -3.20262,-1.86595 -0.0145,-10.68897 -0.0145,-10.68897 3.24578,-0.0184 3.24579,-0.0184 z"
       id="path834-4-5-4"
       inkscape:connector-curvature="0" />
    <path
       style="fill:#bebebe;fill-opacity:0.95327101;stroke-width:0.10509896"
       d="m 215.71189,266.63919 -0.0134,10.63376 -3.19657,1.89176 c -1.75812,1.04046 -3.21677,1.89185 -3.24145,1.89199 -0.0247,7e-5 -0.0647,-5.62793 -0.089,-12.50681 l -0.0442,-12.50706 3.299,-0.0187 3.29899,-0.0187 z"
       id="path836-9-2-6"
       inkscape:connector-curvature="0" />
    <path
       sodipodi:type="star"
       style="fill:#d4aa00;fill-opacity:0.95327101;stroke-width:0.26458332"
       id="path1027-99-8-0"
       sodipodi:sides="5"
       sodipodi:cx="93.784584"
       sodipodi:cy="213.65192"
       sodipodi:r1="28.619064"
       sodipodi:r2="15.168074"
       sodipodi:arg1="0.98279372"
       sodipodi:arg2="1.6111123"
       inkscape:flatsided="false"
       inkscape:rounded="0"
       inkscape:randomized="0"
       d="m 109.65958,237.46442 -16.486346,-8.65676 -17.130039,7.30075 3.138498,-18.35454 -12.236891,-14.03558 18.426049,-2.68697 9.567225,-15.97521 8.249424,16.69389 18.14976,4.16236 -13.32762,13.00437 z"
       inkscape:transform-center-x="-0.014415919"
       inkscape:transform-center-y="0.67331035"
       transform="matrix(-0.24842216,0.01211709,-0.01165217,-0.25208097,241.67551,292.0315)" />
    <path
       style="fill:none;stroke:#000000;stroke-width:0.06744006px;stroke-linecap:butt;stroke-linejoin:miter;stroke-opacity:1"
       d="m 131.06614,106.61492 37.39554,0.0832"
       id="path899-8-0"
       inkscape:connector-curvature="0" />
    <path
       style="fill:none;stroke:#000000;stroke-width:0.06744006px;stroke-linecap:butt;stroke-linejoin:miter;stroke-opacity:1"
       d="m 131.05203,99.804006 25.37554,0.05643 12.0341,6.837664 -12.00586,6.7842 -25.37554,-0.0564 z"
       id="path907-9-7"
       inkscape:connector-curvature="0" />
    <path
       style="fill:#999975;fill-opacity:1;stroke-width:0.1053751"
       d="m 149.54412,106.77191 c 10.1384,0.0225 18.40463,0.0704 18.3694,0.1063 -0.0352,0.0359 -2.62953,1.51472 -5.76515,3.28621 l -5.70111,3.22089 -12.66145,-0.0282 -12.66145,-0.0282 -0.007,-3.29904 -0.007,-3.29905 z"
       id="path909-8-8"
       inkscape:connector-curvature="0" />
    <path
       style="fill:#483737;fill-opacity:0.55607473;stroke-width:0.1053751"
       d="m 143.78025,99.948192 12.68365,0.0282 5.76523,3.273248 c 3.17087,1.80029 5.78482,3.29066 5.80878,3.31195 0.0239,0.0212 -8.27497,0.0202 -18.44205,-0.002 l -18.48561,-0.0411 -0.007,-3.29905 -0.007,-3.299027 z"
       id="path911-3-0"
       inkscape:connector-curvature="0" />
    <path
       style="fill:#666666;fill-opacity:1;stroke-width:0.1053751"
       d="m 140.58841,106.75199 c 12.18739,0.0272 27.07245,0.18001 26.96721,0.27706 -0.045,0.0415 -2.57928,1.48854 -5.63181,3.21574 l -5.55005,3.14037 -12.62469,-0.0281 -12.62471,-0.0281 -0.007,-3.29904 -0.007,-3.29905 z"
       id="path913-0-5"
       inkscape:connector-curvature="0" />
    <rect
       style="fill:#501616;fill-opacity:0.95327101;stroke-width:0.06358338"
       id="rect915-4-2"
       width="21.795013"
       height="4.0066733"
       x="95.542534"
       y="-130.84613"
       transform="matrix(0.00207253,0.99999785,-0.99999753,-0.002224,0,0)" />
    <rect
       style="fill:#501616;fill-opacity:0.95327101;stroke-width:0.078637"
       id="rect917-6-0"
       width="13.621882"
       height="25.421707"
       x="99.514458"
       y="-126.93121"
       transform="matrix(0.00206057,0.99999788,-0.99999755,-0.00221164,0,0)" />
    <path
       style="fill:none;stroke:#000000;stroke-width:0.06744006px;stroke-linecap:butt;stroke-linejoin:miter;stroke-opacity:1"
       d="m 156.47212,99.976422 -3.99255,6.802018 4.02078,6.81983"
       id="path828-8-6"
       inkscape:connector-curvature="0" />
    <path
       style="fill:#979797;fill-opacity:0.95327101;stroke-width:0.1053751"
       d="m 154.61784,103.29077 c 1.02657,-1.74982 1.93901,-3.1922 2.0277,-3.20528 0.0887,-0.0131 0.16131,0.011 0.16141,0.0536 2.2e-4,0.11924 0.79609,0.54912 0.87245,0.47125 0.0371,-0.0378 0.0675,-0.0218 0.0676,0.0357 5.3e-4,0.13821 0.78576,0.58689 0.87252,0.49841 0.0371,-0.0378 0.0675,-0.0218 0.0676,0.0357 5.3e-4,0.1382 0.78576,0.58688 0.87251,0.49841 0.0371,-0.0378 0.0675,-0.0218 0.0676,0.0357 5.3e-4,0.1382 0.78576,0.58688 0.87253,0.49839 0.0371,-0.0378 0.0675,-0.0217 0.0676,0.0357 5.3e-4,0.13821 0.78574,0.58689 0.8725,0.49841 0.0371,-0.0378 0.0675,-0.0218 0.0677,0.0357 5.3e-4,0.1382 0.78576,0.58689 0.87251,0.49841 0.0371,-0.0378 0.0675,-0.0218 0.0676,0.0357 5.3e-4,0.13819 0.78576,0.58688 0.87252,0.4984 0.0371,-0.0378 0.0675,-0.0218 0.0676,0.0358 5.3e-4,0.1382 0.78575,0.58689 0.87251,0.4984 0.0371,-0.0378 0.0676,-0.0139 0.0677,0.0533 5.3e-4,0.14596 0.7819,0.57335 0.87496,0.47844 0.0357,-0.0365 0.0651,-0.0111 0.0652,0.0557 2.7e-4,0.14597 0.78189,0.57335 0.87496,0.47844 0.0357,-0.0365 0.0651,-0.0111 0.0652,0.0557 2.6e-4,0.14596 0.78189,0.57335 0.87496,0.47844 0.0357,-0.0365 0.0651,-0.0111 0.0652,0.0553 2.4e-4,0.0669 0.17651,0.21682 0.39196,0.33316 l 0.39171,0.21156 -7.59074,-0.0121 c -4.1749,-0.007 -7.59064,-0.0242 -7.59051,-0.0388 1.1e-4,-0.0146 0.84015,-1.45827 1.86669,-3.2081 z"
       id="path830-1-6"
       inkscape:connector-curvature="0" />
    <path
       style="fill:#979797;fill-opacity:1;stroke-width:0.1053751"
       d="m 154.91049,106.84966 c 3.97976,0.009 12.44907,0.16635 12.44763,0.23118 -5.3e-4,0.0343 -2.21663,1.31526 -4.92415,2.84649 -2.70752,1.53124 -5.16361,2.92438 -5.45799,3.09586 l -0.53521,0.31181 -1.85981,-3.16534 c -1.02289,-1.74095 -1.87921,-3.20132 -1.90291,-3.24526 -0.0237,-0.044 0.98088,-0.0776 2.23244,-0.0746 z"
       id="path832-8-4"
       inkscape:connector-curvature="0" />
    <path
       style="fill:#b2b2b2;fill-opacity:0.95327101;stroke-width:0.1053751"
       d="m 143.71204,100.01374 c 6.91514,0.0153 12.57304,0.0485 12.57309,0.0737 8e-5,0.0251 -0.84474,1.48389 -1.87731,3.24164 l -1.87741,3.19593 -10.68896,-0.0238 -10.68895,-0.0238 -0.007,-3.24583 -0.007,-3.245828 z"
       id="path834-3-8"
       inkscape:connector-curvature="0" />
    <path
       style="fill:#bebebe;fill-opacity:0.95327101;stroke-width:0.10509896"
       d="m 141.81385,106.79454 10.63365,0.0514 1.88029,3.20333 c 1.03416,1.76183 1.88033,3.22351 1.88038,3.2482 9e-5,0.0247 -5.62812,0.0446 -12.50705,0.0443 l -12.50714,-5.8e-4 -0.007,-3.29905 -0.007,-3.29903 z"
       id="path836-2-4"
       inkscape:connector-curvature="0" />
    <path
       sodipodi:type="star"
       style="fill:#d4aa00;fill-opacity:0.95327101;stroke-width:0.26458332"
       id="path1027-9-0"
       sodipodi:sides="5"
       sodipodi:cx="93.784584"
       sodipodi:cy="213.65192"
       sodipodi:r1="28.619064"
       sodipodi:r2="15.168074"
       sodipodi:arg1="0.98279372"
       sodipodi:arg2="1.6111123"
       inkscape:flatsided="false"
       inkscape:rounded="0"
       inkscape:randomized="0"
       d="m 109.65958,237.46442 -16.486346,-8.65676 -17.130039,7.30075 3.138498,-18.35454 -12.236891,-14.03558 18.426049,-2.68697 9.567225,-15.97521 8.249424,16.69389 18.14976,4.16236 -13.32762,13.00437 z"
       inkscape:transform-center-x="-0.68080421"
       inkscape:transform-center-y="-0.006427368"
       transform="matrix(0.01122794,0.24846393,-0.25212106,0.01074995,167.29892,80.92196)" />
    <path
       style="fill:none;stroke:#000000;stroke-width:0.06744006px;stroke-linecap:butt;stroke-linejoin:miter;stroke-opacity:1"
       d="m 210.44114,106.61492 37.39554,0.0832"
       id="path899-8-0-9"
       inkscape:connector-curvature="0" />
    <path
       style="fill:none;stroke:#000000;stroke-width:0.06744006px;stroke-linecap:butt;stroke-linejoin:miter;stroke-opacity:1"
       d="m 210.42703,99.80401 25.37554,0.0564 12.0341,6.83766 -12.00586,6.7842 -25.37554,-0.0564 z"
       id="path907-9-7-8"
       inkscape:connector-curvature="0" />
    <path
       style="fill:#999975;fill-opacity:1;stroke-width:0.1053751"
       d="m 228.91912,106.77191 c 10.1384,0.0225 18.40463,0.0704 18.3694,0.1063 -0.0352,0.0359 -2.62953,1.51472 -5.76515,3.28621 l -5.70111,3.22089 -12.66145,-0.0282 -12.66145,-0.0282 -0.007,-3.29904 -0.007,-3.29905 z"
       id="path909-8-8-9"
       inkscape:connector-curvature="0" />
    <path
       style="fill:#483737;fill-opacity:0.55607473;stroke-width:0.1053751"
       d="m 223.15525,99.94819 12.68365,0.0282 5.76523,3.27325 c 3.17087,1.80029 5.78482,3.29066 5.80878,3.31195 0.0239,0.0212 -8.27497,0.0202 -18.44205,-0.002 l -18.48561,-0.0411 -0.007,-3.29905 -0.007,-3.29902 z"
       id="path911-3-0-8"
       inkscape:connector-curvature="0" />
    <path
       style="fill:#666666;fill-opacity:1;stroke-width:0.1053751"
       d="m 219.96341,106.75199 c 12.18739,0.0272 27.07245,0.18001 26.96721,0.27706 -0.045,0.0415 -2.57928,1.48854 -5.63181,3.21574 l -5.55005,3.14037 -12.62469,-0.0281 -12.62471,-0.0281 -0.007,-3.29904 -0.007,-3.29905 z"
       id="path913-0-5-7"
       inkscape:connector-curvature="0" />
    <rect
       style="fill:#501616;fill-opacity:0.95327101;stroke-width:0.06358338"
       id="rect915-4-2-4"
       width="21.795013"
       height="4.0066733"
       x="95.365997"
       y="-210.22168"
       transform="matrix(0.00207253,0.99999785,-0.99999753,-0.002224,0,0)" />
    <rect
       style="fill:#501616;fill-opacity:0.95327101;stroke-width:0.078637"
       id="rect917-6-0-9"
       width="13.621882"
       height="25.421705"
       x="99.338905"
       y="-206.30676"
       transform="matrix(0.00206057,0.99999788,-0.99999755,-0.00221164,0,0)" />
    <path
       style="fill:none;stroke:#000000;stroke-width:0.06744006px;stroke-linecap:butt;stroke-linejoin:miter;stroke-opacity:1"
       d="m 235.84712,99.97642 -3.99255,6.80202 4.02078,6.81983"
       id="path828-8-6-0"
       inkscape:connector-curvature="0" />
    <path
       style="fill:#979797;fill-opacity:0.95327101;stroke-width:0.1053751"
       d="m 233.99284,103.29077 c 1.02657,-1.74982 1.93901,-3.1922 2.0277,-3.20528 0.0887,-0.0131 0.16131,0.011 0.16141,0.0536 2.2e-4,0.11924 0.79609,0.54912 0.87245,0.47125 0.0371,-0.0378 0.0675,-0.0218 0.0676,0.0357 5.3e-4,0.13821 0.78576,0.58689 0.87252,0.49841 0.0371,-0.0378 0.0675,-0.0218 0.0676,0.0357 5.3e-4,0.1382 0.78576,0.58688 0.87251,0.49841 0.0371,-0.0378 0.0675,-0.0218 0.0676,0.0357 5.3e-4,0.1382 0.78576,0.58688 0.87253,0.49839 0.0371,-0.0378 0.0675,-0.0217 0.0676,0.0357 5.3e-4,0.13821 0.78574,0.58689 0.8725,0.49841 0.0371,-0.0378 0.0675,-0.0218 0.0677,0.0357 5.3e-4,0.1382 0.78576,0.58689 0.87251,0.49841 0.0371,-0.0378 0.0675,-0.0218 0.0676,0.0357 5.3e-4,0.13819 0.78576,0.58688 0.87252,0.4984 0.0371,-0.0378 0.0675,-0.0218 0.0676,0.0358 5.2e-4,0.1382 0.78574,0.58689 0.8725,0.4984 0.0371,-0.0378 0.0676,-0.0139 0.0677,0.0533 5.3e-4,0.14596 0.7819,0.57335 0.87496,0.47844 0.0357,-0.0365 0.0651,-0.0111 0.0652,0.0557 2.7e-4,0.14597 0.78189,0.57335 0.87496,0.47844 0.0357,-0.0365 0.0651,-0.0111 0.0652,0.0557 2.6e-4,0.14596 0.78189,0.57335 0.87496,0.47844 0.0357,-0.0365 0.0651,-0.0111 0.0652,0.0553 2.4e-4,0.0669 0.17651,0.21682 0.39196,0.33316 l 0.39171,0.21156 -7.59074,-0.0121 c -4.1749,-0.007 -7.59064,-0.0242 -7.59051,-0.0388 1.1e-4,-0.0146 0.84015,-1.45827 1.86669,-3.2081 z"
       id="path830-1-6-4"
       inkscape:connector-curvature="0" />
    <path
       style="fill:#979797;fill-opacity:1;stroke-width:0.1053751"
       d="m 234.28549,106.84966 c 3.97976,0.009 12.44907,0.16635 12.44763,0.23118 -5.3e-4,0.0343 -2.21663,1.31526 -4.92415,2.84649 -2.70752,1.53124 -5.16361,2.92438 -5.45799,3.09586 l -0.53521,0.31181 -1.85981,-3.16534 c -1.02289,-1.74095 -1.87921,-3.20132 -1.90291,-3.24526 -0.0237,-0.044 0.98088,-0.0776 2.23244,-0.0746 z"
       id="path832-8-4-3"
       inkscape:connector-curvature="0" />
    <path
       style="fill:#b2b2b2;fill-opacity:0.95327101;stroke-width:0.1053751"
       d="m 223.08704,100.01374 c 6.91514,0.0153 12.57304,0.0485 12.57309,0.0737 8e-5,0.0251 -0.84474,1.48389 -1.87731,3.24164 l -1.87741,3.19593 -10.68896,-0.0238 -10.68895,-0.0238 -0.007,-3.24583 -0.007,-3.24583 z"
       id="path834-3-8-6"
       inkscape:connector-curvature="0" />
    <path
       style="fill:#bebebe;fill-opacity:0.95327101;stroke-width:0.10509896"
       d="m 221.18885,106.79454 10.63365,0.0514 1.88029,3.20333 c 1.03416,1.76183 1.88033,3.22351 1.88038,3.2482 9e-5,0.0247 -5.62812,0.0446 -12.50705,0.0443 l -12.50714,-5.8e-4 -0.007,-3.29905 -0.007,-3.29903 z"
       id="path836-2-4-6"
       inkscape:connector-curvature="0" />
    <path
       sodipodi:type="star"
       style="fill:#d4aa00;fill-opacity:0.95327101;stroke-width:0.26458332"
       id="path1027-9-0-2"
       sodipodi:sides="5"
       sodipodi:cx="93.784584"
       sodipodi:cy="213.65192"
       sodipodi:r1="28.619064"
       sodipodi:r2="15.168074"
       sodipodi:arg1="0.98279372"
       sodipodi:arg2="1.6111123"
       inkscape:flatsided="false"
       inkscape:rounded="0"
       inkscape:randomized="0"
       d="m 109.65958,237.46442 -16.486346,-8.65676 -17.130039,7.30075 3.138498,-18.35454 -12.236891,-14.03558 18.426049,-2.68697 9.567225,-15.97521 8.249424,16.69389 18.14976,4.16236 -13.32762,13.00437 z"
       inkscape:transform-center-x="-0.68080421"
       inkscape:transform-center-y="-0.006427368"
       transform="matrix(0.01122794,0.24846393,-0.25212106,0.01074995,246.67392,80.92196)" />
    <path
       style="fill:none;stroke:#000000;stroke-width:0.06744006px;stroke-linecap:butt;stroke-linejoin:miter;stroke-opacity:1"
       d="m 136.52318,175.32738 -37.394304,0.3148"
       id="path899-7-5"
       inkscape:connector-curvature="0" />
    <path
       style="fill:none;stroke:#000000;stroke-width:0.06744006px;stroke-linecap:butt;stroke-linejoin:miter;stroke-opacity:1"
       d="m 136.60976,182.13778 -25.3747,0.2132 -12.106188,-6.7092 11.933008,-6.91158 25.3747,-0.2132 z"
       id="path907-4-4"
       inkscape:connector-curvature="0" />
    <path
       style="fill:#999975;fill-opacity:1;stroke-width:0.1053751"
       d="m 118.04457,175.36705 c -10.13806,0.0854 -18.404329,0.12544 -18.369484,0.0892 0.03478,-0.0363 2.613264,-1.54262 5.729854,-3.34738 l 5.66651,-3.28138 12.66103,-0.10637 12.66103,-0.10638 0.0419,3.29879 0.0419,3.29878 z"
       id="path909-0-4"
       inkscape:connector-curvature="0" />
    <path
       style="fill:#483737;fill-opacity:0.55607473;stroke-width:0.1053751"
       d="m 123.88074,182.12904 -12.68324,0.10657 -5.79974,-3.21171 c -3.18984,-1.76645 -5.819504,-3.22893 -5.843679,-3.24994 -0.02418,-0.021 8.274279,-0.10824 18.441019,-0.19387 l 18.48499,-0.15615 0.0419,3.29879 0.042,3.29878 z"
       id="path911-39-8"
       inkscape:connector-curvature="0" />
    <path
       style="fill:#666666;fill-opacity:1;stroke-width:0.1053751"
       d="m 127,175.29166 c -12.18699,0.10224 -27.072837,0.1081 -26.96863,0.01 0.0445,-0.0419 2.56328,-1.5159 5.59726,-3.27549 l 5.51632,-3.19925 12.62428,-0.10605 12.62428,-0.10606 0.0419,3.29879 0.0419,3.29877 z"
       id="path913-53-9"
       inkscape:connector-curvature="0" />
    <rect
       style="fill:#501616;fill-opacity:0.95327101;stroke-width:0.06358338"
       id="rect915-97-3"
       width="21.795013"
       height="4.0066733"
       x="-187.25363"
       y="134.28424"
       transform="matrix(-0.01271399,-0.99991917,0.99996457,-0.00841769,0,0)" />
    <rect
       style="fill:#501616;fill-opacity:0.95327101;stroke-width:0.078637"
       id="rect917-66-8"
       width="13.621882"
       height="25.421711"
       x="-183.28496"
       y="138.20251"
       transform="matrix(-0.01270203,-0.99991933,0.99996447,-0.00843006,0,0)" />
    <path
       style="fill:none;stroke:#000000;stroke-width:0.06744006px;stroke-linecap:butt;stroke-linejoin:miter;stroke-opacity:1"
       d="m 111.18929,182.23588 3.91993,-6.84412 -4.09312,-6.77667"
       id="path828-0-1"
       inkscape:connector-curvature="0" />
    <path
       style="fill:#979797;fill-opacity:0.95327101;stroke-width:0.1053751"
       d="m 113.00818,178.90197 c -1.00787,1.76066 -1.90493,3.21267 -1.99347,3.22668 -0.0886,0.014 -0.1614,-0.01 -0.16196,-0.0519 -0.002,-0.11923 -0.8019,-0.54062 -0.87742,-0.46194 -0.0367,0.0382 -0.0673,0.0225 -0.068,-0.0351 -0.002,-0.13818 -0.79196,-0.57849 -0.87777,-0.48909 -0.0367,0.0382 -0.0673,0.0225 -0.068,-0.0351 -0.002,-0.1382 -0.79196,-0.5785 -0.87777,-0.4891 -0.0367,0.0382 -0.0673,0.0225 -0.068,-0.0351 -0.002,-0.13819 -0.79195,-0.5785 -0.87778,-0.48909 -0.0367,0.0382 -0.0673,0.0225 -0.068,-0.0351 -0.002,-0.13819 -0.79195,-0.57849 -0.87775,-0.48909 -0.0367,0.0382 -0.0673,0.0225 -0.068,-0.0351 -0.002,-0.13819 -0.79197,-0.57849 -0.87777,-0.48909 -0.0367,0.0382 -0.0673,0.0225 -0.068,-0.0351 -0.002,-0.13819 -0.79196,-0.57849 -0.87778,-0.48909 -0.0367,0.0382 -0.0673,0.0225 -0.068,-0.0351 -0.002,-0.13819 -0.79195,-0.57849 -0.87777,-0.48908 -0.0367,0.0382 -0.0674,0.0146 -0.0683,-0.0525 -0.002,-0.14594 -0.78795,-0.56498 -0.88,-0.46909 -0.0354,0.0368 -0.0649,0.012 -0.0658,-0.0551 -0.002,-0.14595 -0.78795,-0.565 -0.87999,-0.46911 -0.0354,0.0368 -0.0649,0.012 -0.0658,-0.0551 -0.002,-0.14594 -0.78796,-0.56499 -0.88001,-0.46909 -0.0354,0.0368 -0.0649,0.0122 -0.0658,-0.0548 -9.2e-4,-0.0668 -0.17881,-0.21494 -0.39549,-0.32898 l -0.393941,-0.20737 7.590441,-0.0682 c 4.17476,-0.0374 7.59047,-0.0562 7.59049,-0.042 5e-5,0.0146 -0.82458,1.46713 -1.83244,3.22779 z"
       id="path830-4-8"
       inkscape:connector-curvature="0" />
    <path
       style="fill:#979797;fill-opacity:1;stroke-width:0.1053751"
       d="m 112.67768,175.3464 c -3.97962,0.0337 -12.45013,-0.0339 -12.44938,-0.0987 2.7e-4,-0.0344 2.20251,-1.33876 4.89358,-2.89874 2.69108,-1.55996 5.1322,-2.97914 5.42473,-3.15377 l 0.53187,-0.31747 1.89339,3.14537 c 1.04136,1.72996 1.91317,3.18113 1.93734,3.22483 0.0242,0.0437 -0.98,0.0881 -2.23153,0.0985 z"
       id="path832-51-2"
       inkscape:connector-curvature="0" />
    <path
       style="fill:#b2b2b2;fill-opacity:0.95327101;stroke-width:0.1053751"
       d="m 123.94825,182.06277 c -6.91493,0.0583 -12.57285,0.0853 -12.57316,0.0601 -4e-4,-0.0251 0.8289,-1.49279 1.8427,-3.26143 l 1.8433,-3.21572 10.68859,-0.0902 10.68861,-0.0902 0.0413,3.24559 0.0413,3.24557 z"
       id="path834-7-0"
       inkscape:connector-curvature="0" />
    <path
       style="fill:#bebebe;fill-opacity:0.95327101;stroke-width:0.10509896"
       d="m 125.77417,175.26216 -10.63359,0.0617 -1.91428,-3.18314 c -1.05284,-1.75073 -1.91452,-3.20332 -1.91484,-3.228 -3.2e-4,-0.0247 5.62734,-0.10446 12.50586,-0.17742 l 12.50646,-0.13253 0.042,3.29878 0.042,3.29878 z"
       id="path836-26-9"
       inkscape:connector-curvature="0" />
    <path
       sodipodi:type="star"
       style="fill:#d4aa00;fill-opacity:0.95327101;stroke-width:0.26458332"
       id="path1027-98-1"
       sodipodi:sides="5"
       sodipodi:cx="93.784584"
       sodipodi:cy="213.65192"
       sodipodi:r1="28.619064"
       sodipodi:r2="15.168074"
       sodipodi:arg1="0.98279372"
       sodipodi:arg2="1.6111123"
       inkscape:flatsided="false"
       inkscape:rounded="0"
       inkscape:randomized="0"
       d="m 109.65958,237.46442 -16.486346,-8.65676 -17.130039,7.30075 3.138498,-18.35454 -12.236891,-14.03558 18.426049,-2.68697 9.567225,-15.97521 8.249424,16.69389 18.14976,4.16236 -13.32762,13.00437 z"
       inkscape:transform-center-x="0.65848465"
       inkscape:transform-center-y="0.030173148"
       transform="matrix(-0.01387136,-0.24833038,0.25199239,-0.01343231,100.56587,201.40447)" />
    <path
       style="fill:none;stroke:#000000;stroke-width:0.06744006px;stroke-linecap:butt;stroke-linejoin:miter;stroke-opacity:1"
       d="m 217.17427,175.29518 -37.3943,0.3148"
       id="path899-7-5-5"
       inkscape:connector-curvature="0" />
    <path
       style="fill:none;stroke:#000000;stroke-width:0.06744006px;stroke-linecap:butt;stroke-linejoin:miter;stroke-opacity:1"
       d="m 217.26086,182.10558 -25.37471,0.2132 -12.10618,-6.7092 11.933,-6.91158 25.3747,-0.2132 z"
       id="path907-4-4-8"
       inkscape:connector-curvature="0" />
    <path
       style="fill:#999975;fill-opacity:1;stroke-width:0.1053751"
       d="m 198.69566,175.33485 c -10.13806,0.0854 -18.40433,0.12544 -18.36948,0.0892 0.0348,-0.0363 2.61326,-1.54262 5.72985,-3.34738 l 5.66651,-3.28138 12.66103,-0.10637 12.66103,-0.10638 0.0419,3.29879 0.0419,3.29878 z"
       id="path909-0-4-2"
       inkscape:connector-curvature="0" />
    <path
       style="fill:#483737;fill-opacity:0.55607473;stroke-width:0.1053751"
       d="m 204.53183,182.09684 -12.68324,0.10657 -5.79974,-3.21171 c -3.18984,-1.76645 -5.8195,-3.22893 -5.84368,-3.24994 -0.0242,-0.021 8.27428,-0.10824 18.44102,-0.19387 l 18.48499,-0.15615 0.0419,3.29879 0.042,3.29878 z"
       id="path911-39-8-9"
       inkscape:connector-curvature="0" />
    <path
       style="fill:#666666;fill-opacity:1;stroke-width:0.1053751"
       d="m 207.65109,175.25946 c -12.18699,0.10224 -27.07283,0.1081 -26.96863,0.01 0.0445,-0.0419 2.56328,-1.5159 5.59726,-3.27549 l 5.51632,-3.19925 12.62428,-0.10605 12.62428,-0.10606 0.0419,3.29879 0.0419,3.29877 z"
       id="path913-53-9-0"
       inkscape:connector-curvature="0" />
    <rect
       style="fill:#501616;fill-opacity:0.95327101;stroke-width:0.06358338"
       id="rect915-97-3-6"
       width="21.795013"
       height="4.0066733"
       x="-187.90033"
       y="214.92996"
       transform="matrix(-0.01271399,-0.99991917,0.99996457,-0.00841769,0,0)" />
    <rect
       style="fill:#501616;fill-opacity:0.95327101;stroke-width:0.078637"
       id="rect917-66-8-4"
       width="13.621882"
       height="25.421713"
       x="-183.93265"
       y="218.84825"
       transform="matrix(-0.01270203,-0.99991933,0.99996447,-0.00843006,0,0)" />
    <path
       style="fill:none;stroke:#000000;stroke-width:0.06744006px;stroke-linecap:butt;stroke-linejoin:miter;stroke-opacity:1"
       d="m 191.84038,182.20368 3.91993,-6.84412 -4.09312,-6.77667"
       id="path828-0-1-1"
       inkscape:connector-curvature="0" />
    <path
       style="fill:#979797;fill-opacity:0.95327101;stroke-width:0.1053751"
       d="m 193.65927,178.86977 c -1.00787,1.76066 -1.90493,3.21267 -1.99347,3.22668 -0.0886,0.014 -0.1614,-0.01 -0.16196,-0.0519 -0.002,-0.11923 -0.8019,-0.54062 -0.87742,-0.46194 -0.0367,0.0382 -0.0673,0.0225 -0.068,-0.0351 -0.002,-0.13818 -0.79196,-0.57849 -0.87777,-0.48909 -0.0367,0.0382 -0.0673,0.0225 -0.068,-0.0351 -0.002,-0.1382 -0.79196,-0.5785 -0.87777,-0.4891 -0.0367,0.0382 -0.0673,0.0225 -0.068,-0.0351 -0.002,-0.13819 -0.79195,-0.5785 -0.87778,-0.48909 -0.0367,0.0382 -0.0673,0.0225 -0.068,-0.0351 -0.002,-0.13819 -0.79195,-0.57849 -0.87775,-0.48909 -0.0367,0.0382 -0.0673,0.0225 -0.068,-0.0351 -0.002,-0.13819 -0.79197,-0.57849 -0.87777,-0.48909 -0.0367,0.0382 -0.0673,0.0225 -0.068,-0.0351 -0.002,-0.13819 -0.79196,-0.57849 -0.87778,-0.48909 -0.0367,0.0382 -0.0673,0.0225 -0.068,-0.0351 -0.002,-0.13819 -0.79195,-0.57849 -0.87777,-0.48908 -0.0367,0.0382 -0.0674,0.0146 -0.0683,-0.0525 -0.002,-0.14594 -0.78795,-0.56498 -0.88,-0.46909 -0.0354,0.0368 -0.0649,0.012 -0.0658,-0.0551 -0.002,-0.14595 -0.78795,-0.565 -0.87999,-0.46911 -0.0354,0.0368 -0.0649,0.012 -0.0658,-0.0551 -0.002,-0.14594 -0.78796,-0.56499 -0.88001,-0.46909 -0.0354,0.0368 -0.0649,0.0122 -0.0658,-0.0548 -9.2e-4,-0.0668 -0.17881,-0.21494 -0.39549,-0.32898 l -0.39394,-0.20737 7.59044,-0.0682 c 4.17476,-0.0374 7.59047,-0.0562 7.59049,-0.042 5e-5,0.0146 -0.82458,1.46713 -1.83244,3.22779 z"
       id="path830-4-8-5"
       inkscape:connector-curvature="0" />
    <path
       style="fill:#979797;fill-opacity:1;stroke-width:0.1053751"
       d="m 193.32877,175.3142 c -3.97962,0.0337 -12.45013,-0.0339 -12.44938,-0.0987 2.7e-4,-0.0344 2.20251,-1.33876 4.89358,-2.89874 2.69108,-1.55996 5.1322,-2.97914 5.42473,-3.15377 l 0.53187,-0.31747 1.89339,3.14537 c 1.04136,1.72996 1.91317,3.18113 1.93734,3.22483 0.0242,0.0437 -0.98,0.0881 -2.23153,0.0985 z"
       id="path832-51-2-0"
       inkscape:connector-curvature="0" />
    <path
       style="fill:#b2b2b2;fill-opacity:0.95327101;stroke-width:0.1053751"
       d="m 204.59934,182.03057 c -6.91493,0.0583 -12.57285,0.0853 -12.57316,0.0601 -3.9e-4,-0.0251 0.8289,-1.49279 1.8427,-3.26143 l 1.8433,-3.21572 10.68859,-0.0902 10.68861,-0.0902 0.0413,3.24559 0.0413,3.24557 z"
       id="path834-7-0-4"
       inkscape:connector-curvature="0" />
    <path
       style="fill:#bebebe;fill-opacity:0.95327101;stroke-width:0.10509896"
       d="m 206.42526,175.22996 -10.63359,0.0617 -1.91428,-3.18314 c -1.05284,-1.75073 -1.91452,-3.20332 -1.91484,-3.228 -3.1e-4,-0.0247 5.62734,-0.10446 12.50586,-0.17742 l 12.50646,-0.13253 0.042,3.29878 0.042,3.29878 z"
       id="path836-26-9-8"
       inkscape:connector-curvature="0" />
    <path
       sodipodi:type="star"
       style="fill:#d4aa00;fill-opacity:0.95327101;stroke-width:0.26458332"
       id="path1027-98-1-2"
       sodipodi:sides="5"
       sodipodi:cx="93.784584"
       sodipodi:cy="213.65192"
       sodipodi:r1="28.619064"
       sodipodi:r2="15.168074"
       sodipodi:arg1="0.98279372"
       sodipodi:arg2="1.6111123"
       inkscape:flatsided="false"
       inkscape:rounded="0"
       inkscape:randomized="0"
       d="m 109.65958,237.46442 -16.486346,-8.65676 -17.130039,7.30075 3.138498,-18.35454 -12.236891,-14.03558 18.426049,-2.68697 9.567225,-15.97521 8.249424,16.69389 18.14976,4.16236 -13.32762,13.00437 z"
       inkscape:transform-center-x="0.65848465"
       inkscape:transform-center-y="0.030173148"
       transform="matrix(-0.01387136,-0.24833038,0.25199239,-0.01343231,181.21696,201.37226)" />
    <path
       style="fill:none;stroke:#000000;stroke-width:0.06744006px;stroke-linecap:butt;stroke-linejoin:miter;stroke-opacity:1"
       d="M 34.13793,44.268342 52.97845,11.965606"
       id="path899-2-5-9-5-5-1"
       inkscape:connector-curvature="0" />
    <path
       style="fill:none;stroke:#000000;stroke-width:0.06744006px;stroke-linecap:butt;stroke-linejoin:miter;stroke-opacity:1"
       d="M 28.23988,40.862189 41.02453,18.942472 52.97846,11.965608 52.82066,25.754783 40.03597,47.674495 Z"
       id="path907-8-1-1-1-2-2"
       inkscape:connector-curvature="0" />
    <path
       style="fill:#999975;fill-opacity:1;stroke-width:0.1053751"
       d="m 43.54771,28.364982 c 5.10786,-8.757687 9.29803,-15.883362 9.31145,-15.834868 0.0133,0.04848 -0.01,3.034598 -0.0512,6.635777 l -0.0755,6.547618 -6.37908,10.9371 -6.37909,10.9371 -2.85683,-1.649886 -2.85685,-1.64991 z"
       id="path909-6-5-5-1-5-9"
       inkscape:connector-curvature="0" />
    <path
       style="fill:#483737;fill-opacity:0.55607473;stroke-width:0.1053751"
       d="m 34.75281,29.925549 6.39028,-10.956287 5.72465,-3.343687 c 3.14857,-1.839017 5.74957,-3.351893 5.78002,-3.361942 0.0303,-0.01011 -4.13577,7.16736 -9.25808,15.94985 L 34.07636,44.181622 31.21952,42.53172 28.36265,40.881882 Z"
       id="path911-2-1-4-8-1-2"
       inkscape:connector-curvature="0" />
    <path
       style="fill:#666666;fill-opacity:1;stroke-width:0.1053751"
       d="m 39.03565,36.10105 c 6.14033,-10.527561 13.74322,-23.3254 13.77434,-23.185653 0.0129,0.05966 -0.007,2.97798 -0.0452,6.485062 l -0.0693,6.37653 -6.36054,10.905378 -6.36062,10.905332 -2.85684,-1.649881 -2.85685,-1.64991 z"
       id="path913-8-1-5-3-5-4"
       inkscape:connector-curvature="0" />
    <rect
       style="fill:#501616;fill-opacity:0.95327101;stroke-width:0.06358338"
       id="rect915-7-1-2-9-4-8"
       width="21.795013"
       height="4.0066733"
       x="41.010715"
       y="21.26273"
       transform="matrix(0.86596735,0.50010054,-0.50381657,0.86381066,0,0)" />
    <rect
       style="fill:#501616;fill-opacity:0.95327101;stroke-width:0.078637"
       id="rect917-9-1-5-4-9-0"
       width="13.621882"
       height="25.421711"
       x="44.980747"
       y="25.178268"
       transform="matrix(0.86596137,0.50011089,-0.50380588,0.8638169,0,0)" />
    <path
       style="fill:none;stroke:#000000;stroke-width:0.06744006px;stroke-linecap:butt;stroke-linejoin:miter;stroke-opacity:1"
       d="m 41.14722,18.962157 3.87943,6.867164 7.9167,-0.05486"
       id="path828-7-3-4-5-2-0"
       inkscape:connector-curvature="0" />
    <path
       style="fill:#979797;fill-opacity:0.95327101;stroke-width:0.1053751"
       d="m 43.08324,22.229422 c -0.99821,-1.766145 -1.78787,-3.279254 -1.75467,-3.362524 0.0331,-0.08332 0.0904,-0.134037 0.12749,-0.112628 0.10327,0.05964 0.87453,-0.412972 0.84549,-0.518098 -0.0138,-0.05113 0.0145,-0.06942 0.0649,-0.04059 0.11988,0.06884 0.90199,-0.385067 0.86902,-0.504503 -0.0138,-0.05113 0.0156,-0.06919 0.0649,-0.04059 0.11988,0.06883 0.902,-0.385064 0.86901,-0.504494 -0.0138,-0.05112 0.0156,-0.06919 0.0649,-0.04059 0.11988,0.06884 0.902,-0.385077 0.86904,-0.504509 -0.0138,-0.05113 0.0156,-0.06919 0.0649,-0.04059 0.11987,0.06883 0.90197,-0.385055 0.869,-0.504488 -0.0138,-0.05113 0.0156,-0.06919 0.0649,-0.04059 0.11987,0.06882 0.90198,-0.385066 0.86899,-0.504483 -0.0138,-0.05113 0.0156,-0.06919 0.0649,-0.04059 0.11976,0.06903 0.902,-0.385069 0.86901,-0.504494 -0.0137,-0.05109 0.0155,-0.06923 0.0649,-0.04059 0.11975,0.06902 0.90196,-0.385079 0.86894,-0.50457 -0.0138,-0.05113 0.0222,-0.0653 0.08,-0.03182 0.12648,0.07287 0.88833,-0.388542 0.85293,-0.516656 -0.0136,-0.04922 0.0228,-0.0621 0.0811,-0.02838 0.12643,0.07298 0.88834,-0.388529 0.85295,-0.516657 -0.0136,-0.04928 0.0228,-0.0621 0.0811,-0.02837 0.12642,0.07297 0.88835,-0.388528 0.85294,-0.516661 -0.0136,-0.04927 0.0228,-0.0621 0.0807,-0.02858 0.058,0.03328 0.27611,-0.04386 0.48488,-0.171812 l 0.37957,-0.23263 -3.8202,6.559394 c -2.10121,3.607597 -3.83061,6.553217 -3.84318,6.54578 -0.0125,-0.0076 -0.83976,-1.458509 -1.83788,-3.224706 z"
       id="path830-7-0-6-7-3-7"
       inkscape:connector-curvature="0" />
    <path
       style="fill:#979797;fill-opacity:1;stroke-width:0.1053751"
       d="m 46.30829,23.762497 c 2.00521,-3.437708 6.3922,-10.683974 6.44733,-10.650305 0.0294,0.01771 0.0251,2.577337 -0.009,5.687669 -0.0344,3.110338 -0.0622,5.933873 -0.0616,6.274562 l 10e-4,0.619419 -3.67122,0.01994 c -2.0192,0.01096 -3.71209,0.01866 -3.76198,0.0171 -0.0499,-0.0016 0.42522,-0.887313 1.05576,-1.96843 z"
       id="path832-9-7-8-7-6-3"
       inkscape:connector-curvature="0" />
    <path
       style="fill:#b2b2b2;fill-opacity:0.95327101;stroke-width:0.1053751"
       d="m 34.77527,30.017441 c 3.48397,-5.973411 6.35227,-10.85046 6.37413,-10.837831 0.0218,0.01251 0.85979,1.47521 1.86155,3.25071 l 1.82201,3.227827 -5.3853,9.233241 -5.38533,9.233241 -2.81081,-1.623209 -2.81081,-1.62321 z"
       id="path834-9-4-5-4-4-2"
       inkscape:connector-curvature="0" />
    <path
       style="fill:#bebebe;fill-opacity:0.95327101;stroke-width:0.10509896"
       d="m 39.6875,35.062492 5.38144,-9.17155 3.71435,-0.01859 c 2.04291,-0.01023 3.73184,-0.0085 3.75321,0.0039 0.0214,0.01222 -2.78613,4.890331 -6.23893,10.839937 l -6.27779,10.817471 -2.85686,-1.649841 -2.8569,-1.649841 z"
       id="path836-5-8-6-2-8-79"
       inkscape:connector-curvature="0" />
    <path
       sodipodi:type="star"
       style="fill:#d4aa00;fill-opacity:0.95327101;stroke-width:0.26458332"
       id="path1027-2-0-7-8-7-30"
       sodipodi:sides="5"
       sodipodi:cx="93.784584"
       sodipodi:cy="213.65192"
       sodipodi:r1="28.619064"
       sodipodi:r2="15.168074"
       sodipodi:arg1="0.98279372"
       sodipodi:arg2="1.6111123"
       inkscape:flatsided="false"
       inkscape:rounded="0"
       inkscape:randomized="0"
       d="m 109.65958,237.46442 -16.486346,-8.65676 -17.130039,7.30075 3.138498,-18.35454 -12.236891,-14.03558 18.426049,-2.68697 9.567225,-15.97521 8.249424,16.69389 18.14976,4.16236 -13.32762,13.00437 z"
       inkscape:transform-center-x="-0.21918093"
       inkscape:transform-center-y="0.44461538"
       transform="matrix(0.22053892,0.11499125,-0.11724015,0.22346217,30.10035,0.03440821)" />
    <path
       style="fill:none;stroke:#000000;stroke-width:0.06744006px;stroke-linecap:butt;stroke-linejoin:miter;stroke-opacity:1"
       d="M 87.631111,47.567721 97.469092,11.489388"
       id="path899-2-5-9-5-5-1-0"
       inkscape:connector-curvature="0" />
    <path
       style="fill:none;stroke:#000000;stroke-width:0.06744006px;stroke-linecap:butt;stroke-linejoin:miter;stroke-opacity:1"
       d="m 81.052454,45.804157 6.675785,-24.481732 9.740864,-9.833037 3.416477,13.360162 -6.675822,24.481737 z"
       id="path907-8-1-1-1-2-2-2"
       inkscape:connector-curvature="0" />
    <path
       style="fill:#999975;fill-opacity:1;stroke-width:0.1053751"
       d="m 92.604167,29.770825 c 2.667159,-9.781288 4.870282,-17.748655 4.895806,-17.705289 0.02539,0.04339 0.775752,2.933784 1.66801,6.42292 L 100.7897,24.83251 97.458715,37.047965 94.127716,49.263422 90.94121,48.409156 87.754676,47.554873 Z"
       id="path909-6-5-5-1-5-9-1"
       inkscape:connector-curvature="0" />
    <path
       style="fill:#483737;fill-opacity:0.55607473;stroke-width:0.1053751"
       d="m 84.512851,33.554504 3.336842,-12.236887 4.664177,-4.711402 c 2.565312,-2.591264 4.686124,-4.725778 4.712935,-4.743366 0.02665,-0.01761 -2.139797,7.993554 -4.814492,17.802539 l -4.86312,17.834503 -3.186521,-0.854278 -3.186534,-0.854209 z"
       id="path911-2-1-4-8-1-2-0"
       inkscape:connector-curvature="0" />
    <path
       style="fill:#666666;fill-opacity:1;stroke-width:0.1053751"
       d="m 90.248094,38.411099 c 3.20637,-11.758077 7.237874,-26.087613 7.304103,-25.960682 0.0279,0.05429 0.763996,2.878319 1.634797,6.275787 l 1.583426,6.177191 -3.321287,12.180015 -3.321377,12.179991 -3.186517,-0.854258 -3.186533,-0.854283 z"
       id="path913-8-1-5-3-5-4-4"
       inkscape:connector-curvature="0" />
    <rect
       style="fill:#501616;fill-opacity:0.95327101;stroke-width:0.06358338"
       id="rect915-7-1-2-9-4-8-1"
       width="21.795013"
       height="4.0066733"
       x="86.277611"
       y="23.255238"
       transform="matrix(0.96589577,0.25893118,-0.26307879,0.96477435,0,0)" />
    <rect
       style="fill:#501616;fill-opacity:0.95327101;stroke-width:0.078637"
       id="rect917-9-1-5-4-9-0-9"
       width="13.621882"
       height="25.421711"
       x="90.247612"
       y="27.170238"
       transform="matrix(0.96589268,0.25894273,-0.26306685,0.96477761,0,0)" />
    <path
       style="fill:none;stroke:#000000;stroke-width:0.06744006px;stroke-linecap:butt;stroke-linejoin:miter;stroke-opacity:1"
       d="m 87.851843,21.309685 5.524594,5.629101 7.632733,-2.101981"
       id="path828-7-3-4-5-2-0-1"
       inkscape:connector-curvature="0" />
    <path
       style="fill:#979797;fill-opacity:0.95327101;stroke-width:0.1053751"
       d="m 90.567525,23.964542 c -1.421311,-1.447609 -2.575685,-2.704781 -2.565168,-2.793806 0.01041,-0.08905 0.05263,-0.152867 0.094,-0.141788 0.115186,0.03088 0.737846,-0.625245 0.682586,-0.719273 -0.02657,-0.04581 -0.004,-0.07081 0.05218,-0.056 0.133612,0.03547 0.771594,-0.605399 0.708832,-0.712231 -0.02654,-0.04582 -0.0028,-0.07087 0.05218,-0.056 0.13361,0.03546 0.771605,-0.605399 0.708829,-0.712221 -0.02656,-0.04581 -0.0028,-0.07087 0.05218,-0.056 0.133612,0.03547 0.7716,-0.605411 0.708851,-0.712243 -0.02656,-0.04582 -0.0028,-0.07087 0.05218,-0.056 0.133591,0.03546 0.771567,-0.605379 0.708819,-0.712212 -0.02656,-0.04582 -0.0028,-0.07087 0.05218,-0.056 0.133597,0.03545 0.771583,-0.605395 0.70881,-0.712204 -0.02656,-0.04582 -0.0028,-0.07087 0.05218,-0.05601 0.133546,0.03568 0.771592,-0.6054 0.708827,-0.71222 -0.02646,-0.0458 -0.0029,-0.07088 0.05218,-0.056 0.133533,0.03567 0.771551,-0.6054 0.708729,-0.712273 -0.02656,-0.04582 0.0045,-0.06882 0.06904,-0.05144 0.14104,0.03765 0.757499,-0.60522 0.690147,-0.719806 -0.02588,-0.04402 0.0059,-0.06588 0.07099,-0.0484 0.141011,0.03777 0.757512,-0.60521 0.690166,-0.719812 -0.02589,-0.04408 0.0059,-0.06588 0.07099,-0.04839 0.140998,0.03776 0.757521,-0.605211 0.690155,-0.719813 -0.02589,-0.04407 0.0059,-0.06589 0.07055,-0.04849 0.06464,0.01713 0.25535,-0.113828 0.42389,-0.291454 l 0.306427,-0.322943 -1.992334,7.324628 c -1.095898,4.028505 -2.003978,7.321354 -2.018044,7.317424 -0.01404,-0.0041 -1.188646,-1.191463 -2.609875,-2.639147 z"
       id="path830-7-0-6-7-3-7-3"
       inkscape:connector-curvature="0" />
    <path
       style="fill:#979797;fill-opacity:1;stroke-width:0.1053751"
       d="m 94.079473,24.610674 c 1.04714,-3.839557 3.409175,-11.974349 3.47114,-11.956096 0.03298,0.0095 0.691309,2.48302 1.463384,5.496196 0.771787,3.013259 1.475723,5.747779 1.564473,6.076705 l 0.16129,0.598053 -3.54097,0.969443 c -1.94756,0.533194 -3.580774,0.978783 -3.629368,0.990189 -0.04861,0.01137 0.181078,-0.967133 0.510319,-2.174608 z"
       id="path832-9-7-8-7-6-3-4"
       inkscape:connector-curvature="0" />
    <path
       style="fill:#b2b2b2;fill-opacity:0.95327101;stroke-width:0.1053751"
       d="m 84.558329,33.637452 c 1.819225,-6.67159 3.327514,-12.124828 3.351901,-12.118288 0.02429,0.0064 1.212306,1.202414 2.639462,2.658141 l 2.595352,2.64627 -2.812062,10.312444 -2.812092,10.312453 -3.135151,-0.840409 -3.135152,-0.840409 z"
       id="path834-9-4-5-4-4-2-4"
       inkscape:connector-curvature="0" />
    <path
       style="fill:#bebebe;fill-opacity:0.95327101;stroke-width:0.10509896"
       d="m 90.608935,37.239218 2.8243,-10.251856 3.582975,-0.979301 c 1.970652,-0.538626 3.60248,-0.974082 3.62633,-0.967635 0.0238,0.0063 -1.425482,5.4448 -3.22076,12.085329 l -3.264111,12.073686 -3.186526,-0.854214 -3.186564,-0.854204 z"
       id="path836-5-8-6-2-8-79-8"
       inkscape:connector-curvature="0" />
    <path
       sodipodi:type="star"
       style="fill:#d4aa00;fill-opacity:0.95327101;stroke-width:0.26458332"
       id="path1027-2-0-7-8-7-30-0"
       sodipodi:sides="5"
       sodipodi:cx="93.784584"
       sodipodi:cy="213.65192"
       sodipodi:r1="28.619064"
       sodipodi:r2="15.168074"
       sodipodi:arg1="0.98279372"
       sodipodi:arg2="1.6111123"
       inkscape:flatsided="false"
       inkscape:rounded="0"
       inkscape:randomized="0"
       d="m 109.65958,237.46442 -16.486346,-8.65676 -17.130039,7.30075 3.138498,-18.35454 -12.236891,-14.03558 18.426049,-2.68697 9.567225,-15.97521 8.249424,16.69389 18.14976,4.16236 -13.32762,13.00437 z"
       inkscape:transform-center-x="-0.57617028"
       inkscape:transform-center-y="-0.12909856"
       transform="matrix(0.24278616,0.05399335,-0.05540902,0.24619186,72.282522,5.8860244)" />
    <path
       style="fill:none;stroke:#000000;stroke-width:0.06744006px;stroke-linecap:butt;stroke-linejoin:miter;stroke-opacity:1"
       d="m 142.67186,48.45561 0.165,-37.395252"
       id="path899-2-5-9-5-5-1-0-9"
       inkscape:connector-curvature="0" />
    <path
       style="fill:none;stroke:#000000;stroke-width:0.06744006px;stroke-linecap:butt;stroke-linejoin:miter;stroke-opacity:1"
       d="m 135.86092,48.454821 0.11198,-25.375361 6.86397,-12.019104 6.75793,12.020676 -0.11201,25.37537 z"
       id="path907-8-1-1-1-2-2-2-6"
       inkscape:connector-curvature="0" />
    <path
       style="fill:#999975;fill-opacity:1;stroke-width:0.1053751"
       d="m 142.86929,29.978005 c 0.0447,-10.138311 0.11064,-18.404406 0.14652,-18.369123 0.0358,0.03534 1.50863,2.633039 3.27354,5.772352 l 3.20843,5.708154 -0.0559,12.661347 -0.0559,12.661348 -3.29903,-4.28e-4 -3.29905,-4.37e-4 z"
       id="path909-6-5-5-1-5-9-1-0"
       inkscape:connector-curvature="0" />
    <path
       style="fill:#483737;fill-opacity:0.55607473;stroke-width:0.1053751"
       d="m 136.03297,35.726946 0.056,-12.683564 3.28585,-5.758043 c 1.80723,-3.16692 3.30332,-5.777608 3.32467,-5.801536 0.0212,-0.02392 0.002,8.274999 -0.0428,18.442015 l -0.0815,18.485475 -3.29905,-4.38e-4 -3.29903,-3.66e-4 z"
       id="path911-2-1-4-8-1-2-0-1"
       inkscape:connector-curvature="0" />
    <path
       style="fill:#666666;fill-opacity:1;stroke-width:0.1053751"
       d="m 142.82976,38.933667 c 0.0539,-12.187299 0.23929,-27.072001 0.33611,-26.966536 0.041,0.04522 1.48292,2.582507 3.20338,5.638829 l 3.12825,5.556887 -0.0557,12.624605 -0.0558,12.624603 -3.29904,-4.2e-4 -3.29906,-4.38e-4 z"
       id="path913-8-1-5-3-5-4-4-6"
       inkscape:connector-curvature="0" />
    <rect
       style="fill:#501616;fill-opacity:0.95327101;stroke-width:0.06358338"
       id="rect915-7-1-2-9-4-8-1-8"
       width="21.795013"
       height="4.0066733"
       x="132.10403"
       y="48.43948"
       transform="matrix(0.99999999,1.1609313e-4,-0.00441262,0.99999026,0,0)" />
    <rect
       style="fill:#501616;fill-opacity:0.95327101;stroke-width:0.078637"
       id="rect917-9-1-5-4-9-0-9-4"
       width="13.621882"
       height="25.421713"
       x="136.07372"
       y="52.353935"
       transform="matrix(0.99999999,1.2804933e-4,-0.00440024,0.99999032,0,0)" />
    <path
       style="fill:none;stroke:#000000;stroke-width:0.06744006px;stroke-linecap:butt;stroke-linejoin:miter;stroke-opacity:1"
       d="m 136.08899,23.035164 6.79327,4.007424 6.82862,-4.005854"
       id="path828-7-3-4-5-2-0-1-9"
       inkscape:connector-curvature="0" />
    <path
       style="fill:#979797;fill-opacity:0.95327101;stroke-width:0.1053751"
       d="m 139.39926,24.89669 c -1.74754,-1.030421 -3.18796,-1.945983 -3.20084,-2.034698 -0.013,-0.08871 0.0112,-0.161272 0.0541,-0.161285 0.11925,1.7e-5 0.55087,-0.794908 0.47316,-0.871429 -0.0375,-0.03737 -0.0222,-0.06736 0.0359,-0.0676 0.13823,-3.19e-4 0.58862,-0.784475 0.50034,-0.87142 -0.0375,-0.0374 -0.0213,-0.06768 0.0359,-0.0676 0.13824,-3.29e-4 0.58863,-0.784478 0.50034,-0.871411 -0.0375,-0.03736 -0.0212,-0.06768 0.0359,-0.0676 0.13825,-3.22e-4 0.58862,-0.784488 0.50036,-0.871438 -0.0376,-0.03737 -0.0212,-0.06768 0.0359,-0.0676 0.13823,-3.27e-4 0.5886,-0.78445 0.50034,-0.871401 -0.0376,-0.03737 -0.0212,-0.06768 0.0359,-0.0676 0.13823,-3.36e-4 0.58861,-0.78447 0.50033,-0.87139 -0.0376,-0.03737 -0.0212,-0.06768 0.0359,-0.06761 0.13824,-1.01e-4 0.58862,-0.784477 0.50035,-0.871411 -0.0375,-0.03738 -0.0213,-0.06769 0.0359,-0.0676 0.13821,-1.05e-4 0.58857,-0.784463 0.50023,-0.871436 -0.0375,-0.03737 -0.013,-0.06777 0.0533,-0.06755 0.14598,-1.37e-4 0.57505,-0.780653 0.48033,-0.873904 -0.0364,-0.03582 -0.0113,-0.06519 0.0561,-0.06513 0.14598,-1.4e-5 0.57506,-0.780646 0.48034,-0.873912 -0.0364,-0.03588 -0.0113,-0.06519 0.0561,-0.06512 0.14596,-2e-5 0.57506,-0.78065 0.48034,-0.873913 -0.0364,-0.03586 -0.0113,-0.0652 0.0555,-0.06508 0.0668,-1.74e-4 0.21718,-0.176039 0.33401,-0.391234 l 0.21239,-0.391246 -0.0287,7.5907 c -0.0159,4.174878 -0.0408,7.590554 -0.0554,7.590397 -0.0146,-3.37e-4 -1.45653,-0.84322 -3.20402,-1.873734 z"
       id="path830-7-0-6-7-3-7-3-9"
       inkscape:connector-curvature="0" />
    <path
       style="fill:#979797;fill-opacity:1;stroke-width:0.1053751"
       d="m 142.95878,24.611846 c 0.0177,-3.979748 0.19382,-12.448694 0.2584,-12.4471 0.0343,6.36e-4 1.3104,2.219489 2.83604,4.930165 1.52537,2.710833 2.91307,5.169984 3.08393,5.464733 l 0.31058,0.535929 -3.1694,1.852881 c -1.7432,1.019091 -3.20543,1.872203 -3.24942,1.895799 -0.044,0.02356 -0.0754,-0.981047 -0.0699,-2.232591 z"
       id="path832-9-7-8-7-6-3-4-2"
       inkscape:connector-curvature="0" />
    <path
       style="fill:#b2b2b2;fill-opacity:0.95327101;stroke-width:0.1053751"
       d="m 136.09837,35.795297 c 0.0305,-6.91511 0.076,-12.572908 0.10124,-12.572903 0.0251,-1.07e-4 1.48221,0.847674 3.2375,1.884424 l 3.19182,1.884375 -0.0472,10.688871 -0.0472,10.688887 -3.24583,-3.37e-4 -3.24584,-3.37e-4 z"
       id="path834-9-4-5-4-4-2-4-7"
       inkscape:connector-curvature="0" />
    <path
       style="fill:#bebebe;fill-opacity:0.95327101;stroke-width:0.10509896"
       d="m 142.875,37.708325 0.0747,-10.633515 3.20743,-1.873276 c 1.7641,-1.030314 3.22762,-1.873281 3.25233,-1.873227 0.0246,-7.4e-5 0.0323,5.628215 0.0169,12.507126 l -0.028,12.5071 -3.29904,-3.75e-4 -3.29907,-3.55e-4 z"
       id="path836-5-8-6-2-8-79-8-1"
       inkscape:connector-curvature="0" />
    <path
       sodipodi:type="star"
       style="fill:#d4aa00;fill-opacity:0.95327101;stroke-width:0.26458332"
       id="path1027-2-0-7-8-7-30-0-7"
       sodipodi:sides="5"
       sodipodi:cx="93.784584"
       sodipodi:cy="213.65192"
       sodipodi:r1="28.619064"
       sodipodi:r2="15.168074"
       sodipodi:arg1="0.98279372"
       sodipodi:arg2="1.6111123"
       inkscape:flatsided="false"
       inkscape:rounded="0"
       inkscape:randomized="0"
       d="m 109.65958,237.46442 -16.486346,-8.65676 -17.130039,7.30075 3.138498,-18.35454 -12.236891,-14.03558 18.426049,-2.68697 9.567225,-15.97521 8.249424,16.69389 18.14976,4.16236 -13.32762,13.00437 z"
       inkscape:transform-center-x="0.0015373738"
       inkscape:transform-center-y="-0.68538746"
       transform="matrix(0.24848793,-0.01068411,0.01019814,0.25214399,117.05825,12.166688)" />
    <path
       style="fill:none;stroke:#000000;stroke-width:0.06744006px;stroke-linecap:butt;stroke-linejoin:miter;stroke-opacity:1"
       d="m 192.9484,48.24843 0.165,-37.395253"
       id="path899-2-5-9-5-5-1-0-9-5"
       inkscape:connector-curvature="0" />
    <path
       style="fill:none;stroke:#000000;stroke-width:0.06744006px;stroke-linecap:butt;stroke-linejoin:miter;stroke-opacity:1"
       d="m 186.13746,48.247642 0.11198,-25.375362 6.86397,-12.019105 6.75793,12.020677 -0.11201,25.375369 z"
       id="path907-8-1-1-1-2-2-2-6-2"
       inkscape:connector-curvature="0" />
    <path
       style="fill:#999975;fill-opacity:1;stroke-width:0.1053751"
       d="m 193.14583,29.770825 c 0.0447,-10.138312 0.11064,-18.404407 0.14652,-18.369124 0.0358,0.03534 1.50863,2.633039 3.27354,5.772352 l 3.20843,5.708155 -0.0559,12.661347 -0.0559,12.661349 -3.29903,-5.3e-4 -3.29905,-5.29e-4 z"
       id="path909-6-5-5-1-5-9-1-0-9"
       inkscape:connector-curvature="0" />
    <path
       style="fill:#483737;fill-opacity:0.55607473;stroke-width:0.1053751"
       d="m 186.30951,35.519766 0.056,-12.683564 3.28585,-5.758044 c 1.80723,-3.16692 3.30332,-5.777608 3.32467,-5.801536 0.0212,-0.02392 0.002,8.274999 -0.0428,18.442016 l -0.0815,18.485475 -3.29905,-5.3e-4 -3.29903,-2.64e-4 z"
       id="path911-2-1-4-8-1-2-0-1-5"
       inkscape:connector-curvature="0" />
    <path
       style="fill:#666666;fill-opacity:1;stroke-width:0.1053751"
       d="m 193.1063,38.726486 c 0.0539,-12.187298 0.23929,-27.072001 0.33611,-26.966536 0.041,0.04522 1.48292,2.582507 3.20338,5.638829 l 3.12825,5.556888 -0.0557,12.624605 -0.0558,12.624603 -3.29904,-5.3e-4 -3.29906,-5.29e-4 z"
       id="path913-8-1-5-3-5-4-4-6-8"
       inkscape:connector-curvature="0" />
    <rect
       style="fill:#501616;fill-opacity:0.95327101;stroke-width:0.06358338"
       id="rect915-7-1-2-9-4-8-1-8-4"
       width="21.795013"
       height="4.0066733"
       x="182.37964"
       y="48.226467"
       transform="matrix(0.99999999,1.1609313e-4,-0.00441262,0.99999026,0,0)" />
    <rect
       style="fill:#501616;fill-opacity:0.95327101;stroke-width:0.078637"
       id="rect917-9-1-5-4-9-0-9-4-4"
       width="13.621882"
       height="25.421713"
       x="186.34932"
       y="52.140316"
       transform="matrix(0.99999999,1.2804933e-4,-0.00440024,0.99999032,0,0)" />
    <path
       style="fill:none;stroke:#000000;stroke-width:0.06744006px;stroke-linecap:butt;stroke-linejoin:miter;stroke-opacity:1"
       d="m 186.36553,22.827984 6.79327,4.007424 6.82862,-4.005854"
       id="path828-7-3-4-5-2-0-1-9-7"
       inkscape:connector-curvature="0" />
    <path
       style="fill:#979797;fill-opacity:0.95327101;stroke-width:0.1053751"
       d="m 189.6758,24.68951 c -1.74754,-1.030421 -3.18796,-1.945983 -3.20084,-2.034698 -0.013,-0.08871 0.0112,-0.161272 0.0541,-0.161285 0.11925,1.7e-5 0.55087,-0.794908 0.47316,-0.871429 -0.0375,-0.03737 -0.0222,-0.06736 0.0359,-0.0676 0.13823,-3.18e-4 0.58862,-0.784476 0.50034,-0.871421 -0.0375,-0.0374 -0.0213,-0.06768 0.0359,-0.0676 0.13824,-3.17e-4 0.58863,-0.784478 0.50034,-0.871411 -0.0375,-0.03736 -0.0212,-0.06768 0.0359,-0.0676 0.13825,-3.17e-4 0.58862,-0.784488 0.50036,-0.871438 -0.0376,-0.03737 -0.0212,-0.06768 0.0359,-0.0676 0.13823,-3.17e-4 0.5886,-0.78445 0.50034,-0.871401 -0.0376,-0.03737 -0.0212,-0.06768 0.0359,-0.0676 0.13823,-3.44e-4 0.58861,-0.78447 0.50033,-0.87139 -0.0376,-0.03737 -0.0212,-0.06768 0.0359,-0.06761 0.13824,-1.01e-4 0.58862,-0.784477 0.50035,-0.871411 -0.0375,-0.03738 -0.0213,-0.06769 0.0359,-0.0676 0.13821,-1.05e-4 0.58857,-0.784463 0.50023,-0.871436 -0.0375,-0.03737 -0.013,-0.06777 0.0533,-0.06755 0.14598,-1.37e-4 0.57505,-0.780653 0.48033,-0.873904 -0.0364,-0.03582 -0.0113,-0.06519 0.0561,-0.06513 0.14598,-1.4e-5 0.57506,-0.780646 0.48034,-0.873912 -0.0364,-0.03588 -0.0113,-0.06519 0.0561,-0.06512 0.14596,-2e-5 0.57506,-0.78065 0.48034,-0.873913 -0.0364,-0.03586 -0.0113,-0.0652 0.0555,-0.06508 0.0668,-1.74e-4 0.21718,-0.176039 0.33401,-0.391234 l 0.21239,-0.391246 -0.0287,7.5907 c -0.0159,4.174879 -0.0408,7.590555 -0.0554,7.590398 -0.0146,-3.44e-4 -1.45653,-0.84322 -3.20402,-1.873734 z"
       id="path830-7-0-6-7-3-7-3-9-0"
       inkscape:connector-curvature="0" />
    <path
       style="fill:#979797;fill-opacity:1;stroke-width:0.1053751"
       d="m 193.23532,24.404666 c 0.0177,-3.979749 0.19382,-12.448695 0.2584,-12.447101 0.0343,6.35e-4 1.3104,2.219489 2.83604,4.930165 1.52537,2.710833 2.91307,5.169985 3.08393,5.464734 l 0.31058,0.535929 -3.1694,1.852881 c -1.7432,1.019091 -3.20543,1.872203 -3.24942,1.895799 -0.044,0.02356 -0.0754,-0.981047 -0.0699,-2.232591 z"
       id="path832-9-7-8-7-6-3-4-2-3"
       inkscape:connector-curvature="0" />
    <path
       style="fill:#b2b2b2;fill-opacity:0.95327101;stroke-width:0.1053751"
       d="m 186.37491,35.588117 c 0.0305,-6.91511 0.076,-12.572908 0.10124,-12.572903 0.0251,-1.07e-4 1.48221,0.847674 3.2375,1.884424 l 3.19182,1.884375 -0.0472,10.688872 -0.0472,10.688886 -3.24583,-2.64e-4 -3.24584,-2.65e-4 z"
       id="path834-9-4-5-4-4-2-4-7-5"
       inkscape:connector-curvature="0" />
    <path
       style="fill:#bebebe;fill-opacity:0.95327101;stroke-width:0.10509896"
       d="m 193.15154,37.501145 0.0747,-10.633515 3.20743,-1.873276 c 1.7641,-1.030314 3.22762,-1.873281 3.25233,-1.873227 0.0246,-7.4e-5 0.0323,5.628215 0.0169,12.507126 l -0.028,12.5071 -3.29904,-2.65e-4 -3.29907,-2.65e-4 z"
       id="path836-5-8-6-2-8-79-8-1-6"
       inkscape:connector-curvature="0" />
    <path
       sodipodi:type="star"
       style="fill:#d4aa00;fill-opacity:0.95327101;stroke-width:0.26458332"
       id="path1027-2-0-7-8-7-30-0-7-7"
       sodipodi:sides="5"
       sodipodi:cx="93.784584"
       sodipodi:cy="213.65192"
       sodipodi:r1="28.619064"
       sodipodi:r2="15.168074"
       sodipodi:arg1="0.98279372"
       sodipodi:arg2="1.6111123"
       inkscape:flatsided="false"
       inkscape:rounded="0"
       inkscape:randomized="0"
       d="m 109.65958,237.46442 -16.486346,-8.65676 -17.130039,7.30075 3.138498,-18.35454 -12.236891,-14.03558 18.426049,-2.68697 9.567225,-15.97521 8.249424,16.69389 18.14976,4.16236 -13.32762,13.00437 z"
       inkscape:transform-center-x="0.0015373738"
       inkscape:transform-center-y="-0.68538746"
       transform="matrix(0.24848793,-0.01068411,0.01019814,0.25214399,167.33479,11.959507)" />
    <path
       style="fill:none;stroke:#000000;stroke-width:0.06744006px;stroke-linecap:butt;stroke-linejoin:miter;stroke-opacity:1"
       d="M 248.64788,48.141982 239.12866,11.978237"
       id="path899-2-5-9-5-5-1-0-9-5-4"
       inkscape:connector-curvature="0" />
    <path
       style="fill:none;stroke:#000000;stroke-width:0.06744006px;stroke-linecap:butt;stroke-linejoin:miter;stroke-opacity:1"
       d="m 242.06882,49.904022 -6.45947,-24.539699 3.51932,-13.38609 9.63884,9.862001 6.45943,24.539714 z"
       id="path907-8-1-1-1-2-2-2-6-2-4"
       inkscape:connector-curvature="0" />
    <path
       style="fill:#999975;fill-opacity:1;stroke-width:0.1053751"
       d="m 244.05623,30.242889 c -2.58081,-9.804427 -4.65654,-17.805928 -4.61275,-17.781134 0.0437,0.02487 2.1387,2.152858 4.65599,4.728409 l 4.57649,4.683252 3.223,12.24439 3.223,12.244393 -3.18675,0.853341 -3.18678,0.853346 z"
       id="path909-6-5-5-1-5-9-1-0-9-1"
       inkscape:connector-curvature="0" />
    <path
       style="fill:#483737;fill-opacity:0.55607473;stroke-width:0.1053751"
       d="m 238.94079,37.565309 -3.22866,-12.265876 1.6836,-6.412284 c 0.92599,-3.526755 1.69541,-6.435703 1.70983,-6.464341 0.0143,-0.02859 2.14366,7.992517 4.73181,17.824697 l 4.70567,17.876692 -3.18678,0.853346 -3.18668,0.853596 z"
       id="path911-2-1-4-8-1-2-0-1-5-2"
       inkscape:connector-curvature="0" />
    <path
       style="fill:#666666;fill-opacity:1;stroke-width:0.1053751"
       d="m 246.33594,38.903623 c -3.10224,-11.785975 -6.77561,-26.211477 -6.65479,-26.134664 0.0513,0.03307 2.10079,2.110702 4.55366,4.617594 l 4.45989,4.557891 3.21368,12.208849 3.21359,12.208873 -3.18676,0.853343 -3.18679,0.853349 z"
       id="path913-8-1-5-3-5-4-4-6-8-3"
       inkscape:connector-curvature="0" />
    <rect
       style="fill:#501616;fill-opacity:0.95327101;stroke-width:0.06358338"
       id="rect915-7-1-2-9-4-8-1-8-4-5"
       width="21.795013"
       height="4.0066733"
       x="217.42281"
       y="110.83098"
       transform="matrix(0.96595587,-0.25870691,0.25455426,0.96705849,0,0)" />
    <rect
       style="fill:#501616;fill-opacity:0.95327101;stroke-width:0.078637"
       id="rect917-9-1-5-4-9-0-9-4-4-3"
       width="13.621882"
       height="25.421713"
       x="221.39172"
       y="114.74441"
       transform="matrix(0.96595896,-0.25869536,0.25456623,0.96705534,0,0)" />
    <path
       style="fill:none;stroke:#000000;stroke-width:0.06744006px;stroke-linecap:butt;stroke-linejoin:miter;stroke-opacity:1"
       d="m 235.71002,25.29149 7.599,2.112647 5.55915,-5.636735"
       id="path828-7-3-4-5-2-0-1-9-7-2"
       inkscape:connector-curvature="0" />
    <path
       style="fill:#979797;fill-opacity:0.95327101;stroke-width:0.1053751"
       d="m 239.3893,26.232825 c -1.95469,-0.543014 -3.58299,-1.054571 -3.61839,-1.136929 -0.0355,-0.08232 -0.0309,-0.158676 0.0105,-0.169791 0.11519,-0.03085 0.32636,-0.910398 0.23149,-0.964199 -0.0459,-0.02639 -0.0389,-0.05932 0.0172,-0.07459 0.13344,-0.03608 0.36553,-0.910092 0.25775,-0.971226 -0.0459,-0.02642 -0.0381,-0.05986 0.0172,-0.07459 0.13344,-0.03608 0.36553,-0.910096 0.25775,-0.971216 -0.0459,-0.02638 -0.038,-0.05989 0.0172,-0.07459 0.13346,-0.03609 0.36552,-0.910103 0.25777,-0.971247 -0.046,-0.02636 -0.038,-0.05989 0.0172,-0.07459 0.13343,-0.03608 0.36551,-0.910062 0.25775,-0.971207 -0.046,-0.02637 -0.038,-0.05989 0.0172,-0.07459 0.13343,-0.03611 0.36552,-0.910083 0.25775,-0.971193 -0.046,-0.02636 -0.038,-0.05989 0.0172,-0.0746 0.1335,-0.03588 0.36553,-0.910092 0.25776,-0.971218 -0.0459,-0.0264 -0.0381,-0.05987 0.0172,-0.07459 0.13348,-0.03587 0.36548,-0.910066 0.25764,-0.971211 -0.0459,-0.02639 -0.0301,-0.0621 0.034,-0.07904 0.14097,-0.03791 0.3534,-0.902887 0.23778,-0.968445 -0.0444,-0.02518 -0.0278,-0.06004 0.0373,-0.07743 0.141,-0.0378 0.35342,-0.902883 0.23778,-0.968455 -0.0444,-0.02524 -0.0278,-0.06004 0.0373,-0.07742 0.14098,-0.0378 0.35342,-0.902887 0.23779,-0.968456 -0.0444,-0.02522 -0.0278,-0.06005 0.0368,-0.07723 0.0645,-0.01746 0.16422,-0.226251 0.22137,-0.464351 l 0.10389,-0.432886 1.9369,7.339482 c 1.06518,4.036738 1.92517,7.342473 1.91103,7.3461 -0.0142,0.0034 -1.62515,-0.437511 -3.57981,-0.980627 z"
       id="path830-7-0-6-7-3-7-3-9-0-8"
       inkscape:connector-curvature="0" />
    <path
       style="fill:#979797;fill-opacity:1;stroke-width:0.1053751"
       d="m 242.75381,25.036415 c -1.01294,-3.848723 -3.03475,-12.07468 -2.97195,-12.089855 0.0333,-0.0083 1.84019,1.804705 4.01542,4.028153 2.17501,2.223668 4.1519,4.239864 4.39323,4.480347 l 0.4387,0.437284 -2.58184,2.610047 c -1.42004,1.43554 -2.61165,2.638035 -2.64803,2.672213 -0.0364,0.03414 -0.32675,-0.928104 -0.64536,-2.138426 z"
       id="path832-9-7-8-7-6-3-4-2-3-0"
       inkscape:connector-curvature="0" />
    <path
       style="fill:#b2b2b2;fill-opacity:0.95327101;stroke-width:0.1053751"
       d="m 239.02165,37.614404 c -1.7603,-6.687377 -3.1807,-12.164167 -3.15632,-12.170694 0.0242,-0.0066 1.6511,0.435166 3.61491,0.982287 l 3.57078,0.994062 2.72089,10.336873 2.72089,10.336888 -3.13529,0.839829 -3.13531,0.83983 z"
       id="path834-9-4-5-4-4-2-4-7-5-6"
       inkscape:connector-curvature="0" />
    <path
       style="fill:#bebebe;fill-opacity:0.95327101;stroke-width:0.10509896"
       d="m 246.0625,37.708325 -2.68,-10.290519 2.6133,-2.63959 c 1.43732,-1.451789 2.6328,-2.64482 2.65668,-2.651163 0.0237,-0.0064 1.48789,5.428078 3.25341,12.076582 l 3.21003,12.088179 -3.1867,0.853599 -3.18672,0.853606 z"
       id="path836-5-8-6-2-8-79-8-1-6-3"
       inkscape:connector-curvature="0" />
    <path
       sodipodi:type="star"
       style="fill:#d4aa00;fill-opacity:0.95327101;stroke-width:0.26458332"
       id="path1027-2-0-7-8-7-30-0-7-7-6"
       sodipodi:sides="5"
       sodipodi:cx="93.784584"
       sodipodi:cy="213.65192"
       sodipodi:r1="28.619064"
       sodipodi:r2="15.168074"
       sodipodi:arg1="0.98279372"
       sodipodi:arg2="1.6111123"
       inkscape:flatsided="false"
       inkscape:rounded="0"
       inkscape:randomized="0"
       d="m 109.65958,237.46442 -16.486346,-8.65676 -17.130039,7.30075 3.138498,-18.35454 -12.236891,-14.03558 18.426049,-2.68697 9.567225,-15.97521 8.249424,16.69389 18.14976,4.16236 -13.32762,13.00437 z"
       inkscape:transform-center-x="0.57914764"
       inkscape:transform-center-y="-0.12052094"
       transform="matrix(0.23725566,-0.07463347,0.07511031,0.24091292,214.51477,19.718865)" />
    <path
       style="fill:none;stroke:#000000;stroke-width:0.06744006px;stroke-linecap:butt;stroke-linejoin:miter;stroke-opacity:1"
       d="M 306.82271,44.471485 288.26798,12.003746"
       id="path899-2-5-9-5-5-1-0-9-5-4-2"
       inkscape:connector-curvature="0" />
    <path
       style="fill:none;stroke:#000000;stroke-width:0.06744006px;stroke-linecap:butt;stroke-linejoin:miter;stroke-opacity:1"
       d="m 300.92388,47.876272 -12.59072,-22.031696 -0.0652,-13.840837 11.86288,7.031246 12.59068,22.031719 z"
       id="path907-8-1-1-1-2-2-2-6-2-4-1"
       inkscape:connector-curvature="0" />
    <path
       style="fill:#999975;fill-opacity:1;stroke-width:0.1053751"
       d="m 297.75489,28.370696 c -5.03044,-8.802387 -9.10639,-15.994005 -9.05767,-15.981389 0.0487,0.01271 2.62303,1.525964 5.72114,3.362233 l 5.63267,3.339191 6.28226,10.992999 6.28226,10.993002 -2.8573,1.649056 -2.85734,1.649068 z"
       id="path909-6-5-5-1-5-9-1-0-9-1-4"
       inkscape:connector-curvature="0" />
    <path
       style="fill:#483737;fill-opacity:0.55607473;stroke-width:0.1053751"
       d="m 294.70894,36.767584 -6.29329,-11.012288 -0.0334,-6.629539 c -0.0183,-3.646247 -0.028,-6.655216 -0.0215,-6.68661 0.006,-0.03132 4.13924,7.165358 9.18395,15.992652 l 9.17216,16.049642 -2.85733,1.649067 -2.85717,1.649284 z"
       id="path911-2-1-4-8-1-2-0-1-5-2-5"
       inkscape:connector-curvature="0" />
    <path
       style="fill:#666666;fill-opacity:1;stroke-width:0.1053751"
       d="m 302.19848,36.146291 c -6.04696,-10.58146 -13.32876,-23.564687 -13.19218,-23.521762 0.0581,0.01867 2.5755,1.495057 5.59362,3.28168 l 5.48759,3.24828 6.26406,10.961081 6.26398,10.961128 -2.85731,1.64906 -2.85734,1.649072 z"
       id="path913-8-1-5-3-5-4-4-6-8-3-2"
       inkscape:connector-curvature="0" />
    <rect
       style="fill:#501616;fill-opacity:0.95327101;stroke-width:0.06358338"
       id="rect915-7-1-2-9-4-8-1-8-4-5-5"
       width="21.795013"
       height="4.0066733"
       x="233.54573"
       y="191.89827"
       transform="matrix(0.86608344,-0.49989946,0.49617369,0.86822328,0,0)" />
    <rect
       style="fill:#501616;fill-opacity:0.95327101;stroke-width:0.078637"
       id="rect917-9-1-5-4-9-0-9-4-4-3-9"
       width="13.621882"
       height="25.421713"
       x="237.51361"
       y="195.81151"
       transform="matrix(0.86608942,-0.4998891,0.49618444,0.86821714,0,0)" />
    <path
       style="fill:none;stroke:#000000;stroke-width:0.06744006px;stroke-linecap:butt;stroke-linejoin:miter;stroke-opacity:1"
       d="m 288.41155,25.74817 7.88687,0.07389 3.91083,-6.883482"
       id="path828-7-3-4-5-2-0-1-9-7-2-4"
       inkscape:connector-curvature="0" />
    <path
       style="fill:#979797;fill-opacity:0.95327101;stroke-width:0.1053751"
       d="m 292.2091,25.705162 c -2.02863,-0.0186 -3.73384,-0.09129 -3.78935,-0.161681 -0.0556,-0.07033 -0.0709,-0.145272 -0.0338,-0.166723 0.10328,-0.05961 0.0796,-0.963845 -0.0259,-0.991259 -0.0512,-0.01361 -0.0529,-0.04723 -0.003,-0.0765 0.11956,-0.06939 0.11753,-0.973688 -0.002,-1.004843 -0.0512,-0.01364 -0.0523,-0.04796 -0.003,-0.0765 0.11956,-0.06939 0.11753,-0.973692 -0.002,-1.004833 -0.0512,-0.0136 -0.0522,-0.04801 -0.003,-0.0765 0.11957,-0.0694 0.11751,-0.973696 -0.002,-1.004869 -0.0513,-0.01356 -0.0522,-0.04801 -0.003,-0.0765 0.11955,-0.06939 0.11751,-0.973653 -0.002,-1.004824 -0.0513,-0.01357 -0.0522,-0.04801 -0.003,-0.0765 0.11954,-0.06941 0.11752,-0.973676 -0.002,-1.004811 -0.0512,-0.01356 -0.0522,-0.04801 -0.003,-0.07651 0.11966,-0.06921 0.11752,-0.973688 -0.002,-1.004838 -0.0512,-0.01362 -0.0523,-0.04797 -0.003,-0.0765 0.11964,-0.0692 0.11748,-0.97365 -0.003,-1.0048 -0.0512,-0.01361 -0.0452,-0.05219 0.0124,-0.08515 0.12636,-0.0731 0.10768,-0.963588 -0.021,-0.996988 -0.0494,-0.01283 -0.0424,-0.0508 0.016,-0.08445 0.12641,-0.07301 0.10769,-0.96359 -0.021,-0.996998 -0.0494,-0.01289 -0.0424,-0.0508 0.016,-0.08444 0.12639,-0.073 0.10769,-0.963594 -0.021,-0.997001 -0.0494,-0.01287 -0.0424,-0.05081 0.0156,-0.08412 0.0578,-0.03356 0.10007,-0.261045 0.0936,-0.505824 l -0.0117,-0.445024 3.7705,6.588089 c 2.07367,3.6235 3.75994,6.594013 3.74722,6.601176 -0.0128,0.007 -1.68301,-0.002 -3.71164,-0.02069 z"
       id="path830-7-0-6-7-3-7-3-9-0-8-6"
       inkscape:connector-curvature="0" />
    <path
       style="fill:#979797;fill-opacity:1;stroke-width:0.1053751"
       d="m 295.14931,23.678719 c -1.97454,-3.455413 -6.0565,-10.877794 -5.99976,-10.908706 0.03,-0.01664 2.24458,1.266935 4.92116,2.85163 2.67642,1.584964 5.10778,3.020803 5.40313,3.190631 l 0.53693,0.30884 -1.81834,3.189341 c -1.0001,1.754159 -1.83988,3.224091 -1.86618,3.266521 -0.0263,0.0424 -0.55582,-0.811911 -1.17683,-1.89853 z"
       id="path832-9-7-8-7-6-3-4-2-3-0-8"
       inkscape:connector-curvature="0" />
    <path
       style="fill:#b2b2b2;fill-opacity:0.95327101;stroke-width:0.1053751"
       d="m 294.79975,36.794078 c -3.43114,-6.003911 -6.22064,-10.926458 -6.19878,-10.939072 0.0217,-0.01264 1.70747,-0.007 3.74597,0.01321 l 3.70639,0.036 5.30356,9.280434 5.30356,9.280449 -2.81109,1.622686 -2.81112,1.622692 z"
       id="path834-9-4-5-4-4-2-4-7-5-6-7"
       inkscape:connector-curvature="0" />
    <path
       style="fill:#bebebe;fill-opacity:0.95327101;stroke-width:0.10509896"
       d="m 301.625,35.062492 -5.25207,-9.246243 1.84108,-3.22602 c 1.01259,-1.774326 1.85856,-3.236119 1.87998,-3.248426 0.0212,-0.01232 2.84209,4.858026 6.26821,10.823038 l 6.2293,10.845468 -2.85719,1.649291 -2.85721,1.649305 z"
       id="path836-5-8-6-2-8-79-8-1-6-3-5"
       inkscape:connector-curvature="0" />
    <path
       sodipodi:type="star"
       style="fill:#d4aa00;fill-opacity:0.95327101;stroke-width:0.26458332"
       id="path1027-2-0-7-8-7-30-0-7-7-6-3"
       sodipodi:sides="5"
       sodipodi:cx="93.784584"
       sodipodi:cy="213.65192"
       sodipodi:r1="28.619064"
       sodipodi:r2="15.168074"
       sodipodi:arg1="0.98279372"
       sodipodi:arg2="1.6111123"
       inkscape:flatsided="false"
       inkscape:rounded="0"
       inkscape:randomized="0"
       d="m 109.65958,237.46442 -16.486346,-8.65676 -17.130039,7.30075 3.138498,-18.35454 -12.236891,-14.03558 18.426049,-2.68697 9.567225,-15.97521 8.249424,16.69389 18.14976,4.16236 -13.32762,13.00437 z"
       inkscape:transform-center-x="0.21435236"
       inkscape:transform-center-y="0.45255918"
       transform="matrix(0.20985481,-0.13349668,0.13490384,0.21326403,266.4962,25.851164)" />
  </g>
</svg>
