# Tiled2Unity generated file. Do not modify by hand.
# Wavefront file for 'dorf_mesh_0015.obj'

# Vertices (Count = 36)
v -10.88 -18.56 0
v -11.52 -18.56 0
v -11.52 -17.92 0
v -10.88 -17.92 0
v -10.88 -19.2 0
v -11.52 -19.2 0
v -11.52 -18.56 0
v -10.88 -18.56 0
v -11.52 -21.12 0
v -12.16 -21.12 0
v -12.16 -20.48 0
v -11.52 -20.48 0
v -12.8 -21.12 0
v -13.44 -21.12 0
v -13.44 -20.48 0
v -12.8 -20.48 0
v -11.52 -21.76 0
v -12.16 -21.76 0
v -12.16 -21.12 0
v -11.52 -21.12 0
v -17.92 -26.88 0
v -18.56 -26.88 0
v -18.56 -26.24 0
v -17.92 -26.24 0
v -19.2 -26.88 0
v -19.84 -26.88 0
v -19.84 -26.24 0
v -19.2 -26.24 0
v -17.92 -27.52 0
v -18.56 -27.52 0
v -18.56 -26.88 0
v -17.92 -26.88 0
v -19.2 -27.52 0
v -19.84 -27.52 0
v -19.84 -26.88 0
v -19.2 -26.88 0

# Texture cooridinates (Count = 15)
vt 0.6666667 0.8571429
vt 0.7777778 0.8571429
vt 0.7777778 1
vt 0.6666667 1
vt 0.6666667 0.7142857
vt 0.7777778 0.7142857
vt 0.5555556 0.8571429
vt 0.5555556 1
vt 0.8888889 0.8571429
vt 0.8888889 1
vt 0.5555556 0.7142857
vt 1 0.8571429
vt 1 1
vt 0.8888889 0.7142857
vt 1 0.7142857

# Normal
vn 0 0 -1

# Mesh description
g dorf_mesh_0015

# Faces
f 1/1/1 2/2/1 3/3/1 4/4/1
f 5/5/1 6/6/1 7/2/1 8/1/1
f 9/7/1 10/1/1 11/4/1 12/8/1
f 13/2/1 14/9/1 15/10/1 16/3/1
f 17/11/1 18/5/1 19/1/1 20/7/1
f 21/9/1 22/12/1 23/13/1 24/10/1
f 25/9/1 26/12/1 27/13/1 28/10/1
f 29/14/1 30/15/1 31/12/1 32/9/1
f 33/14/1 34/15/1 35/12/1 36/9/1

