# Tiled2Unity generated file. Do not modify by hand.
# Wavefront file for 'dorf_mesh_0008.obj'

# Vertices (Count = 224)
v -10.88 -18.56 0
v -11.52 -18.56 0
v -11.52 -17.92 0
v -10.88 -17.92 0
v -11.52 -18.56 0
v -12.16 -18.56 0
v -12.16 -17.92 0
v -11.52 -17.92 0
v -12.16 -18.56 0
v -12.8 -18.56 0
v -12.8 -17.92 0
v -12.16 -17.92 0
v -12.8 -18.56 0
v -13.44 -18.56 0
v -13.44 -17.92 0
v -12.8 -17.92 0
v -13.44 -18.56 0
v -14.08 -18.56 0
v -14.08 -17.92 0
v -13.44 -17.92 0
v -10.88 -19.2 0
v -11.52 -19.2 0
v -11.52 -18.56 0
v -10.88 -18.56 0
v -11.52 -19.2 0
v -12.16 -19.2 0
v -12.16 -18.56 0
v -11.52 -18.56 0
v -12.16 -19.2 0
v -12.8 -19.2 0
v -12.8 -18.56 0
v -12.16 -18.56 0
v -12.8 -19.2 0
v -13.44 -19.2 0
v -13.44 -18.56 0
v -12.8 -18.56 0
v -13.44 -19.2 0
v -14.08 -19.2 0
v -14.08 -18.56 0
v -13.44 -18.56 0
v -10.88 -19.84 0
v -11.52 -19.84 0
v -11.52 -19.2 0
v -10.88 -19.2 0
v -11.52 -19.84 0
v -12.16 -19.84 0
v -12.16 -19.2 0
v -11.52 -19.2 0
v -12.16 -19.84 0
v -12.8 -19.84 0
v -12.8 -19.2 0
v -12.16 -19.2 0
v -12.8 -19.84 0
v -13.44 -19.84 0
v -13.44 -19.2 0
v -12.8 -19.2 0
v -13.44 -19.84 0
v -14.08 -19.84 0
v -14.08 -19.2 0
v -13.44 -19.2 0
v -10.88 -20.48 0
v -11.52 -20.48 0
v -11.52 -19.84 0
v -10.88 -19.84 0
v -11.52 -20.48 0
v -12.16 -20.48 0
v -12.16 -19.84 0
v -11.52 -19.84 0
v -12.16 -20.48 0
v -12.8 -20.48 0
v -12.8 -19.84 0
v -12.16 -19.84 0
v -12.8 -20.48 0
v -13.44 -20.48 0
v -13.44 -19.84 0
v -12.8 -19.84 0
v -13.44 -20.48 0
v -14.08 -20.48 0
v -14.08 -19.84 0
v -13.44 -19.84 0
v -10.88 -21.12 0
v -11.52 -21.12 0
v -11.52 -20.48 0
v -10.88 -20.48 0
v -11.52 -21.12 0
v -12.16 -21.12 0
v -12.16 -20.48 0
v -11.52 -20.48 0
v -12.16 -21.12 0
v -12.8 -21.12 0
v -12.8 -20.48 0
v -12.16 -20.48 0
v -12.8 -21.12 0
v -13.44 -21.12 0
v -13.44 -20.48 0
v -12.8 -20.48 0
v -13.44 -21.12 0
v -14.08 -21.12 0
v -14.08 -20.48 0
v -13.44 -20.48 0
v -10.88 -21.76 0
v -11.52 -21.76 0
v -11.52 -21.12 0
v -10.88 -21.12 0
v -11.52 -21.76 0
v -12.16 -21.76 0
v -12.16 -21.12 0
v -11.52 -21.12 0
v -12.16 -21.76 0
v -12.8 -21.76 0
v -12.8 -21.12 0
v -12.16 -21.12 0
v -12.8 -21.76 0
v -13.44 -21.76 0
v -13.44 -21.12 0
v -12.8 -21.12 0
v -13.44 -21.76 0
v -14.08 -21.76 0
v -14.08 -21.12 0
v -13.44 -21.12 0
v -11.52 -22.4 0
v -12.16 -22.4 0
v -12.16 -21.76 0
v -11.52 -21.76 0
v -17.28 -25.6 0
v -17.92 -25.6 0
v -17.92 -24.96 0
v -17.28 -24.96 0
v -17.92 -25.6 0
v -18.56 -25.6 0
v -18.56 -24.96 0
v -17.92 -24.96 0
v -18.56 -25.6 0
v -19.2 -25.6 0
v -19.2 -24.96 0
v -18.56 -24.96 0
v -19.2 -25.6 0
v -19.84 -25.6 0
v -19.84 -24.96 0
v -19.2 -24.96 0
v -19.84 -25.6 0
v -20.48 -25.6 0
v -20.48 -24.96 0
v -19.84 -24.96 0
v -17.28 -26.24 0
v -17.92 -26.24 0
v -17.92 -25.6 0
v -17.28 -25.6 0
v -17.92 -26.24 0
v -18.56 -26.24 0
v -18.56 -25.6 0
v -17.92 -25.6 0
v -18.56 -26.24 0
v -19.2 -26.24 0
v -19.2 -25.6 0
v -18.56 -25.6 0
v -19.2 -26.24 0
v -19.84 -26.24 0
v -19.84 -25.6 0
v -19.2 -25.6 0
v -19.84 -26.24 0
v -20.48 -26.24 0
v -20.48 -25.6 0
v -19.84 -25.6 0
v -17.28 -26.88 0
v -17.92 -26.88 0
v -17.92 -26.24 0
v -17.28 -26.24 0
v -17.92 -26.88 0
v -18.56 -26.88 0
v -18.56 -26.24 0
v -17.92 -26.24 0
v -18.56 -26.88 0
v -19.2 -26.88 0
v -19.2 -26.24 0
v -18.56 -26.24 0
v -19.2 -26.88 0
v -19.84 -26.88 0
v -19.84 -26.24 0
v -19.2 -26.24 0
v -19.84 -26.88 0
v -20.48 -26.88 0
v -20.48 -26.24 0
v -19.84 -26.24 0
v -17.28 -27.52 0
v -17.92 -27.52 0
v -17.92 -26.88 0
v -17.28 -26.88 0
v -17.92 -27.52 0
v -18.56 -27.52 0
v -18.56 -26.88 0
v -17.92 -26.88 0
v -18.56 -27.52 0
v -19.2 -27.52 0
v -19.2 -26.88 0
v -18.56 -26.88 0
v -19.2 -27.52 0
v -19.84 -27.52 0
v -19.84 -26.88 0
v -19.2 -26.88 0
v -19.84 -27.52 0
v -20.48 -27.52 0
v -20.48 -26.88 0
v -19.84 -26.88 0
v -17.28 -28.16 0
v -17.92 -28.16 0
v -17.92 -27.52 0
v -17.28 -27.52 0
v -17.92 -28.16 0
v -18.56 -28.16 0
v -18.56 -27.52 0
v -17.92 -27.52 0
v -18.56 -28.16 0
v -19.2 -28.16 0
v -19.2 -27.52 0
v -18.56 -27.52 0
v -19.2 -28.16 0
v -19.84 -28.16 0
v -19.84 -27.52 0
v -19.2 -27.52 0
v -19.84 -28.16 0
v -20.48 -28.16 0
v -20.48 -27.52 0
v -19.84 -27.52 0

# Texture cooridinates (Count = 38)
vt 0 0.4285714
vt 0.1111111 0.4285714
vt 0.1111111 0.5714285
vt 0 0.5714285
vt 0 0.2857143
vt 0.1111111 0.2857143
vt 0.2222222 0.4285714
vt 0.2222222 0.5714285
vt 0.2222222 0.2857143
vt 0.3333333 0.2857143
vt 0.3333333 0.4285714
vt 0.3333333 0.5714285
vt 0 0.1428571
vt 0.1111111 0.1428571
vt 0.2222222 0.1428571
vt 0.3333333 0.1428571
vt 0 0.7142857
vt 0.1111111 0.7142857
vt 0.1111111 0.8571429
vt 0 0.8571429
vt 0.5555556 0.8571429
vt 0.6666667 0.8571429
vt 0.6666667 1
vt 0.5555556 1
vt 0.2222222 0.7142857
vt 0.2222222 0.8571429
vt 0.3333333 0.7142857
vt 0.3333333 0.8571429
vt 0.4444444 0.8571429
vt 0.4444444 1
vt 0.4444444 0.7142857
vt 0.5555556 0.7142857
vt 0.4444444 0.5714285
vt 0.5555556 0.5714285
vt 0.1111111 1
vt 0 1
vt 0.2222222 1
vt 0.3333333 1

# Normal
vn 0 0 -1

# Mesh description
g dorf_mesh_0008

# Faces
f 1/1/1 2/2/1 3/3/1 4/4/1
f 5/5/1 6/6/1 7/2/1 8/1/1
f 9/2/1 10/7/1 11/8/1 12/3/1
f 13/9/1 14/10/1 15/11/1 16/7/1
f 17/7/1 18/11/1 19/12/1 20/8/1
f 21/5/1 22/6/1 23/2/1 24/1/1
f 25/5/1 26/6/1 27/2/1 28/1/1
f 29/2/1 30/7/1 31/8/1 32/3/1
f 33/9/1 34/10/1 35/11/1 36/7/1
f 37/9/1 38/10/1 39/11/1 40/7/1
f 41/5/1 42/6/1 43/2/1 44/1/1
f 45/13/1 46/14/1 47/6/1 48/5/1
f 49/14/1 50/15/1 51/9/1 52/6/1
f 53/15/1 54/16/1 55/10/1 56/9/1
f 57/9/1 58/10/1 59/11/1 60/7/1
f 61/13/1 62/14/1 63/6/1 64/5/1
f 65/14/1 66/15/1 67/9/1 68/6/1
f 69/14/1 70/15/1 71/9/1 72/6/1
f 73/14/1 74/15/1 75/9/1 76/6/1
f 77/15/1 78/16/1 79/10/1 80/9/1
f 81/17/1 82/18/1 83/19/1 84/20/1
f 85/21/1 86/22/1 87/23/1 88/24/1
f 89/18/1 90/25/1 91/26/1 92/19/1
f 93/18/1 94/25/1 95/26/1 96/19/1
f 97/25/1 98/27/1 99/28/1 100/26/1
f 101/4/1 102/3/1 103/18/1 104/17/1
f 105/29/1 106/21/1 107/24/1 108/30/1
f 109/3/1 110/8/1 111/25/1 112/18/1
f 113/3/1 114/8/1 115/25/1 116/18/1
f 117/8/1 118/12/1 119/27/1 120/25/1
f 121/31/1 122/32/1 123/21/1 124/29/1
f 125/12/1 126/33/1 127/31/1 128/27/1
f 129/12/1 130/33/1 131/31/1 132/27/1
f 133/12/1 134/33/1 135/31/1 136/27/1
f 137/12/1 138/33/1 139/31/1 140/27/1
f 141/33/1 142/34/1 143/32/1 144/31/1
f 145/14/1 146/15/1 147/9/1 148/6/1
f 149/14/1 150/15/1 151/9/1 152/6/1
f 153/14/1 154/15/1 155/9/1 156/6/1
f 157/14/1 158/15/1 159/9/1 160/6/1
f 161/14/1 162/15/1 163/9/1 164/6/1
f 165/20/1 166/19/1 167/35/1 168/36/1
f 169/19/1 170/26/1 171/37/1 172/35/1
f 173/19/1 174/26/1 175/37/1 176/35/1
f 177/19/1 178/26/1 179/37/1 180/35/1
f 181/26/1 182/28/1 183/38/1 184/37/1
f 185/17/1 186/18/1 187/19/1 188/20/1
f 189/18/1 190/25/1 191/26/1 192/19/1
f 193/18/1 194/25/1 195/26/1 196/19/1
f 197/18/1 198/25/1 199/26/1 200/19/1
f 201/25/1 202/27/1 203/28/1 204/26/1
f 205/4/1 206/3/1 207/18/1 208/17/1
f 209/3/1 210/8/1 211/25/1 212/18/1
f 213/3/1 214/8/1 215/25/1 216/18/1
f 217/3/1 218/8/1 219/25/1 220/18/1
f 221/8/1 222/12/1 223/27/1 224/25/1

