# Tiled2Unity generated file. Do not modify by hand.
# Wavefront file for 'dorf_mesh_0010.obj'

# Vertices (Count = 32)
v -16 -22.4 0
v -16.64 -22.4 0
v -16.64 -21.76 0
v -16 -21.76 0
v -16.64 -22.4 0
v -17.28 -22.4 0
v -17.28 -21.76 0
v -16.64 -21.76 0
v -16 -23.04 0
v -16.64 -23.04 0
v -16.64 -22.4 0
v -16 -22.4 0
v -16.64 -23.04 0
v -17.28 -23.04 0
v -17.28 -22.4 0
v -16.64 -22.4 0
v -16 -23.68 0
v -16.64 -23.68 0
v -16.64 -23.04 0
v -16 -23.04 0
v -16.64 -23.68 0
v -17.28 -23.68 0
v -17.28 -23.04 0
v -16.64 -23.04 0
v -16 -24.32 0
v -16.64 -24.32 0
v -16.64 -23.68 0
v -16 -23.68 0
v -16.64 -24.32 0
v -17.28 -24.32 0
v -17.28 -23.68 0
v -16.64 -23.68 0

# Texture cooridinates (Count = 12)
vt 0.8461539 0.375
vt 0.9230769 0.375
vt 0.9230769 0.5
vt 0.8461539 0.5
vt 1 0.375
vt 1 0.5
vt 0.8461539 0.25
vt 0.9230769 0.25
vt 1 0.25
vt 0.8461539 0.125
vt 0.9230769 0.125
vt 1 0.125

# Normal
vn 0 0 -1

# Mesh description
g dorf_mesh_0010

# Faces
f 1/1/1 2/2/1 3/3/1 4/4/1
f 5/2/1 6/5/1 7/6/1 8/3/1
f 9/7/1 10/8/1 11/2/1 12/1/1
f 13/8/1 14/9/1 15/5/1 16/2/1
f 17/7/1 18/8/1 19/2/1 20/1/1
f 21/8/1 22/9/1 23/5/1 24/2/1
f 25/10/1 26/11/1 27/8/1 28/7/1
f 29/11/1 30/12/1 31/9/1 32/8/1

