# Tiled2Unity generated file. Do not modify by hand.
# Wavefront file for 'dorf_mesh_0007.obj'

# Vertices (Count = 48)
v -12.16 -14.72 0
v -12.8 -14.72 0
v -12.8 -14.08 0
v -12.16 -14.08 0
v -12.16 -15.36 0
v -12.8 -15.36 0
v -12.8 -14.72 0
v -12.16 -14.72 0
v -9.599999 -16 0
v -10.24 -16 0
v -10.24 -15.36 0
v -9.599999 -15.36 0
v -10.24 -16 0
v -10.88 -16 0
v -10.88 -15.36 0
v -10.24 -15.36 0
v -8.32 -16.64 0
v -8.96 -16.64 0
v -8.96 -16 0
v -8.32 -16 0
v -9.599999 -16.64 0
v -10.24 -16.64 0
v -10.24 -16 0
v -9.599999 -16 0
v -10.24 -16.64 0
v -10.88 -16.64 0
v -10.88 -16 0
v -10.24 -16 0
v -19.2 -16.64 0
v -19.84 -16.64 0
v -19.84 -16 0
v -19.2 -16 0
v -8.32 -17.28 0
v -8.96 -17.28 0
v -8.96 -16.64 0
v -8.32 -16.64 0
v -19.2 -17.28 0
v -19.84 -17.28 0
v -19.84 -16.64 0
v -19.2 -16.64 0
v -7.68 -21.12 0
v -8.32 -21.12 0
v -8.32 -20.48 0
v -7.68 -20.48 0
v -7.68 -21.76 0
v -8.32 -21.76 0
v -8.32 -21.12 0
v -7.68 -21.12 0

# Texture cooridinates (Count = 15)
vt 0 0.5
vt 0.25 0.5
vt 0.25 1
vt 0 1
vt 0 0
vt 0.25 0
vt 0.5 0.5
vt 0.75 0.5
vt 0.75 1
vt 0.5 1
vt 1 0.5
vt 1 1
vt 0.5 0
vt 0.75 0
vt 1 0

# Normal
vn 0 0 -1

# Mesh description
g dorf_mesh_0007

# Faces
f 1/1/1 2/2/1 3/3/1 4/4/1
f 5/5/1 6/6/1 7/2/1 8/1/1
f 9/7/1 10/8/1 11/9/1 12/10/1
f 13/8/1 14/11/1 15/12/1 16/9/1
f 17/1/1 18/2/1 19/3/1 20/4/1
f 21/13/1 22/14/1 23/8/1 24/7/1
f 25/14/1 26/15/1 27/11/1 28/8/1
f 29/1/1 30/2/1 31/3/1 32/4/1
f 33/5/1 34/6/1 35/2/1 36/1/1
f 37/5/1 38/6/1 39/2/1 40/1/1
f 41/1/1 42/2/1 43/3/1 44/4/1
f 45/5/1 46/6/1 47/2/1 48/1/1

