# Tiled2Unity generated file. Do not modify by hand.
# Wavefront file for 'dorf_mesh_0014.obj'

# Vertices (Count = 24)
v 0 -18.56 0
v -0.64 -18.56 0
v -0.64 -17.92 0
v 0 -17.92 0
v -0.64 -18.56 0
v -1.28 -18.56 0
v -1.28 -17.92 0
v -0.64 -17.92 0
v 0 -19.2 0
v -0.64 -19.2 0
v -0.64 -18.56 0
v 0 -18.56 0
v -0.64 -19.2 0
v -1.28 -19.2 0
v -1.28 -18.56 0
v -0.64 -18.56 0
v 0 -19.84 0
v -0.64 -19.84 0
v -0.64 -19.2 0
v 0 -19.2 0
v -0.64 -19.84 0
v -1.28 -19.84 0
v -1.28 -19.2 0
v -0.64 -19.2 0

# Texture cooridinates (Count = 12)
vt 0.6666667 0.8571429
vt 0.8333333 0.8571429
vt 0.8333333 1
vt 0.6666667 1
vt 1 0.8571429
vt 1 1
vt 0.6666667 0.7142857
vt 0.8333333 0.7142857
vt 1 0.7142857
vt 0.6666667 0.5714285
vt 0.8333333 0.5714285
vt 1 0.5714285

# Normal
vn 0 0 -1

# Mesh description
g dorf_mesh_0014

# Faces
f 1/1/1 2/2/1 3/3/1 4/4/1
f 5/2/1 6/5/1 7/6/1 8/3/1
f 9/7/1 10/8/1 11/2/1 12/1/1
f 13/8/1 14/9/1 15/5/1 16/2/1
f 17/10/1 18/11/1 19/8/1 20/7/1
f 21/11/1 22/12/1 23/9/1 24/8/1

