# Tiled2Unity generated file. Do not modify by hand.
# Wavefront file for 'dorf_mesh_0013.obj'

# Vertices (Count = 36)
v -2.56 -32 0
v -3.2 -32 0
v -3.2 -31.36 0
v -2.56 -31.36 0
v -4.48 -32 0
v -5.12 -32 0
v -5.12 -31.36 0
v -4.48 -31.36 0
v -7.68 -32 0
v -8.32 -32 0
v -8.32 -31.36 0
v -7.68 -31.36 0
v -10.88 -32 0
v -11.52 -32 0
v -11.52 -31.36 0
v -10.88 -31.36 0
v -14.08 -32 0
v -14.72 -32 0
v -14.72 -31.36 0
v -14.08 -31.36 0
v -19.2 -32 0
v -19.84 -32 0
v -19.84 -31.36 0
v -19.2 -31.36 0
v -21.76 -32 0
v -22.4 -32 0
v -22.4 -31.36 0
v -21.76 -31.36 0
v -25.6 -32 0
v -26.24 -32 0
v -26.24 -31.36 0
v -25.6 -31.36 0
v -28.16 -32 0
v -28.8 -32 0
v -28.8 -31.36 0
v -28.16 -31.36 0

# Texture cooridinates (Count = 8)
vt 0 0
vt 0.3333333 0
vt 0.3333333 0.1666667
vt 0 0.1666667
vt 0.6666667 0
vt 1 0
vt 1 0.1666667
vt 0.6666667 0.1666667

# Normal
vn 0 0 -1

# Mesh description
g dorf_mesh_0013

# Faces
f 1/1/1 2/2/1 3/3/1 4/4/1
f 5/5/1 6/6/1 7/7/1 8/8/1
f 9/1/1 10/2/1 11/3/1 12/4/1
f 13/1/1 14/2/1 15/3/1 16/4/1
f 17/5/1 18/6/1 19/7/1 20/8/1
f 21/1/1 22/2/1 23/3/1 24/4/1
f 25/2/1 26/5/1 27/8/1 28/3/1
f 29/1/1 30/2/1 31/3/1 32/4/1
f 33/2/1 34/5/1 35/8/1 36/3/1

